<svg id="Calque_1" data-name="Calque 1" xmlns="http://www.w3.org/2000/svg" viewBox="0 0 212.04 209.33">
  <defs>
    <style>
      .cls-1 {
        fill: #fff;
      }
    </style>
  </defs>
  <g>
    <path class="cls-1" d="M69.49,68.58c-.79.79-14.85-12-31.4-28.55S8.76,9.43,9.55,8.64s14.84,12,31.4,28.54S70.28,67.79,69.49,68.58Z"/>
    <path class="cls-1" d="M73.55,64c-.76.32-6.87-12.43-13.63-28.47S48.28,6.17,49.05,5.85s6.87,12.42,13.63,28.46S74.31,63.62,73.55,64Z"/>
    <path class="cls-1" d="M66,71.39c-.29.78-13.75-3.53-30.06-9.63S6.68,50.09,7,49.31,20.72,52.85,37,59,66.32,70.61,66,71.39Z"/>
    <path class="cls-1" d="M77.8,74.13a2.7,2.7,0,1,1-2.7-2.7A2.7,2.7,0,0,1,77.8,74.13Z"/>
    <path class="cls-1" d="M82,61c-.78-7.16,1.3-14.55,4.74-21.1a44.41,44.41,0,0,1,15.33-16.39c.79-.54,1.65-1,2.48-1.45a24.5,24.5,0,0,1,2.6-1.36,34.4,34.4,0,0,1,5.62-2,37.67,37.67,0,0,1,11.82-1.1,36.94,36.94,0,0,1,22.07,8.82,26,26,0,0,1,4.23,4.84,20.55,20.55,0,0,1,2.82,6,21.08,21.08,0,0,1-.23,13.22,18.36,18.36,0,0,1-8.83,10.11,18.85,18.85,0,0,1-6.24,2.05,21.24,21.24,0,0,1-6.42,0,15.19,15.19,0,0,1-11-7,17.22,17.22,0,0,1-2-12.17,11.6,11.6,0,0,1,2.91-5.68,8.61,8.61,0,0,1,5.7-2.71,7,7,0,0,1,5.58,2.22A7.81,7.81,0,0,1,135,42.54a7.51,7.51,0,0,0-2.82-4.1,5,5,0,0,0-4.26-.7,6.48,6.48,0,0,0-4.4,6.43,12,12,0,0,0,2.5,8.07,8.87,8.87,0,0,0,6.73,3.21,13.82,13.82,0,0,0,4.12-.48,11.53,11.53,0,0,0,3.68-1.55,9.82,9.82,0,0,0,2.77-2.51A9.26,9.26,0,0,0,145,47.65a12.42,12.42,0,0,0-.22-7.61,14.28,14.28,0,0,0-4.44-6.58,30.17,30.17,0,0,0-16.52-6.94,32.23,32.23,0,0,0-9.25.29,34.15,34.15,0,0,0-8.89,3.07,44.38,44.38,0,0,0-15.1,12.53A43.35,43.35,0,0,0,82,61Z"/>
    <path class="cls-1" d="M57.9,82.08a43.46,43.46,0,0,0-18.61,8.6,44.36,44.36,0,0,0-12.53,15.1,34.21,34.21,0,0,0-3.07,8.9,32.15,32.15,0,0,0-.29,9.24,30.07,30.07,0,0,0,6.94,16.52,14.16,14.16,0,0,0,6.58,4.44,12.35,12.35,0,0,0,7.61.23,9.52,9.52,0,0,0,3.26-1.67,9.86,9.86,0,0,0,2.51-2.78A11.56,11.56,0,0,0,51.84,137a13.87,13.87,0,0,0,.49-4.12,8.84,8.84,0,0,0-3.21-6.73,12.06,12.06,0,0,0-8.07-2.5,6.46,6.46,0,0,0-6.43,4.4,5,5,0,0,0,.7,4.26,7.56,7.56,0,0,0,4.1,2.82,8,8,0,0,1-5.17-1.87A7,7,0,0,1,32,127.67,8.57,8.57,0,0,1,34.75,122a11.5,11.5,0,0,1,5.68-2.9,17.22,17.22,0,0,1,12.17,2,15.25,15.25,0,0,1,7,11,21.25,21.25,0,0,1,0,6.42,18.85,18.85,0,0,1-2.05,6.24,18.4,18.4,0,0,1-10.11,8.83,21.08,21.08,0,0,1-13.22.23,20.83,20.83,0,0,1-6-2.83,26,26,0,0,1-4.84-4.23,36.92,36.92,0,0,1-8.82-22.07,37.7,37.7,0,0,1,1.1-11.82,35.08,35.08,0,0,1,2-5.62A26.27,26.27,0,0,1,19,104.64c.49-.83.92-1.69,1.46-2.49A44.38,44.38,0,0,1,36.8,86.83C43.35,83.39,50.73,81.31,57.9,82.08Z"/>
    <path class="cls-1" d="M81.21,76.92c5.4,3.44,10.59,6.88,15.93,9.93a124.3,124.3,0,0,0,16.45,7.94A118.76,118.76,0,0,0,131,100.1c6,1.33,12.14,2.24,18.47,3.22a61.49,61.49,0,0,1-19.15,1.33,66.25,66.25,0,0,1-18.92-4.37,68.7,68.7,0,0,1-16.85-9.62A65.7,65.7,0,0,1,81.21,76.92Z"/>
    <path class="cls-1" d="M84.79,71.73a97.79,97.79,0,0,0,25.56,10.09,71,71,0,0,0,13.31,1.77,51.85,51.85,0,0,0,13.13-1.06,36,36,0,0,0,21.77-13c5.43-6.91,8.08-15.9,9.44-25.16,1.09,9.26-.25,19.37-5.67,27.81a35.57,35.57,0,0,1-10.5,10.59A42.07,42.07,0,0,1,138,88.29a56.52,56.52,0,0,1-28.89-2.06A63.5,63.5,0,0,1,84.79,71.73Z"/>
    <path class="cls-1" d="M77.12,80.59A65.7,65.7,0,0,1,89.56,95.18a68.27,68.27,0,0,1,8,17.67,66.21,66.21,0,0,1,2.59,19.25A61.26,61.26,0,0,1,97,151c-.38-6.4-.71-12.59-1.49-18.69a118.54,118.54,0,0,0-3.65-17.86,124.84,124.84,0,0,0-6.37-17.12C83,91.77,80,86.28,77.12,80.59Z"/>
    <path class="cls-1" d="M71.63,83.66A63.87,63.87,0,0,1,83.8,109.24a56.6,56.6,0,0,1-.65,29,42.23,42.23,0,0,1-6.83,13.24,35.55,35.55,0,0,1-11.53,9.46c-8.91,4.62-19.1,5-28.22,3,9.36-.48,18.55-2.29,25.93-7a36,36,0,0,0,15-20.46,51.81,51.81,0,0,0,2.28-13,71.81,71.81,0,0,0-.52-13.41A98.07,98.07,0,0,0,71.63,83.66Z"/>
    <path class="cls-1" d="M156.48,25.83a9.73,9.73,0,0,1,3.13,4.38h44.13V25.83Z"/>
    <path class="cls-1" d="M26.26,155a9.78,9.78,0,0,0,4.38,3.14v44.13H26.26Z"/>
  </g>
</svg>
