<svg id="Calque_1" data-name="Calque 1" xmlns="http://www.w3.org/2000/svg" viewBox="0 0 123.02 590.6">
  <defs>
    <style>
      .cls-1 {
        fill: #19af97;
      }
    </style>
  </defs>
  <g>
    <path class="cls-1" d="M56.24,511.47a30.3,30.3,0,0,1,.23-3.24c.26-2.27.49-4.23-.75-5.62-1-1.08-2.68-1.59-5.4-1.59-5.7,0-10.83,2.2-13.38,5.74l0,0a3.28,3.28,0,0,0-1.89-.58H30.58a3.28,3.28,0,0,0-1.89.58l0,0C26.11,503.22,21,501,15.29,501c-2.72,0-4.43.51-5.4,1.59-1.24,1.39-1,3.35-.76,5.62a30.25,30.25,0,0,1,.24,3.24,30.26,30.26,0,0,1-.24,3.23c-.26,2.28-.48,4.24.76,5.63,1,1.08,2.68,1.59,5.4,1.59,5.61,0,10.69-2.15,13.27-5.61l0,0a3.31,3.31,0,0,0,2,.66H35a3.32,3.32,0,0,0,2-.65h0c2.59,3.46,7.67,5.61,13.28,5.61,2.72,0,4.43-.51,5.4-1.59,1.24-1.39,1-3.35.75-5.63A30.11,30.11,0,0,1,56.24,511.47Zm-29.19,4.39c-2.41,2.84-6.85,4.59-11.76,4.59-2.24,0-3.65-.36-4.31-1.11s-.62-2.47-.4-4.47a29.31,29.31,0,0,0,.25-3.4,29.14,29.14,0,0,0-.25-3.4c-.22-2-.4-3.59.4-4.47s2.07-1.11,4.31-1.11c4.91,0,9.47,1.82,11.84,4.69a4.15,4.15,0,0,0-.77,2.42v4A4.16,4.16,0,0,0,27.05,515.86Zm8-.38H30.58a1.91,1.91,0,0,1-1.92-1.91v-4a1.91,1.91,0,0,1,1.92-1.92H35A1.91,1.91,0,0,1,37,509.6v4A1.92,1.92,0,0,1,35,515.48Zm20-.61c.22,2,.41,3.59-.39,4.47s-2.08,1.11-4.31,1.11c-4.91,0-9.36-1.75-11.76-4.59a4.24,4.24,0,0,0,.69-2.29v-4a4.22,4.22,0,0,0-.77-2.42c2.36-2.87,6.93-4.69,11.84-4.69,2.23,0,3.65.36,4.31,1.11s.61,2.46.39,4.47a23.24,23.24,0,0,0,0,6.8Z"/>
    <path class="cls-1" d="M74.45,12.39a34.64,34.64,0,0,1,.27-3.77c.3-2.65.57-4.94-.88-6.56C72.72.8,70.72.21,67.55.21,60.9.21,54.92,2.77,52,6.9l0,0a3.92,3.92,0,0,0-2.2-.67h-5.2a3.92,3.92,0,0,0-2.2.67l0,0C39.32,2.77,33.34.21,26.7.21c-3.17,0-5.17.59-6.3,1.85C19,3.68,19.21,6,19.51,8.62a32.42,32.42,0,0,1,.28,3.77,32.42,32.42,0,0,1-.28,3.77c-.3,2.65-.55,4.94.89,6.56,1.13,1.26,3.13,1.85,6.3,1.85,6.54,0,12.47-2.5,15.47-6.54l0,0a3.88,3.88,0,0,0,2.33.77h5.2A3.88,3.88,0,0,0,52,18h0c3,4,8.95,6.54,15.49,6.54,3.17,0,5.17-.59,6.29-1.85,1.45-1.62,1.18-3.91.88-6.56A34.64,34.64,0,0,1,74.45,12.39Zm-34,5.12c-2.81,3.31-8,5.35-13.71,5.35-2.62,0-4.26-.42-5-1.29-.93-1-.72-2.88-.46-5.21a34.07,34.07,0,0,0,.29-4,34.4,34.4,0,0,0-.29-4c-.26-2.33-.47-4.18.46-5.21.77-.86,2.41-1.29,5-1.29,5.72,0,11.05,2.13,13.81,5.47a4.85,4.85,0,0,0-.9,2.82v4.63A4.86,4.86,0,0,0,40.41,17.51Zm9.31-.44h-5.2a2.23,2.23,0,0,1-2.23-2.23V10.21A2.23,2.23,0,0,1,44.52,8h5.2A2.24,2.24,0,0,1,52,10.21v4.63A2.24,2.24,0,0,1,49.72,17.07ZM73,16.36c.26,2.33.47,4.18-.46,5.21-.77.87-2.42,1.29-5,1.29-5.73,0-10.92-2-13.72-5.35a4.86,4.86,0,0,0,.8-2.67V10.21a4.84,4.84,0,0,0-.89-2.82c2.76-3.34,8.08-5.47,13.81-5.47,2.6,0,4.25.43,5,1.29.93,1,.72,2.88.46,5.21a36.79,36.79,0,0,0-.29,4A36.41,36.41,0,0,0,73,16.36Z"/>
    <g>
      <path class="cls-1" d="M57.09,134.43H11.3a.86.86,0,0,1-.86-.86V104.29a.86.86,0,0,1,.86-.85H22.76a.85.85,0,0,1,.63.27.87.87,0,0,1,.23.64c-.32,5.24,8.67,11.14,10.51,12.28,2.06-1.29,10.74-7.09,10.46-12.29a.91.91,0,0,1,.24-.64.85.85,0,0,1,.62-.26H57.09a.86.86,0,0,1,.86.85v29.28A.86.86,0,0,1,57.09,134.43Zm-44.93-1.72H56.23V105.15H46.29c-.6,6.6-11.25,12.95-11.72,13.23a.83.83,0,0,1-.78,0l-.12-.06-.21-.12c-1.91-1.16-11-7-11.54-13.09H12.16Z"/>
      <path class="cls-1" d="M57.09,134.44H11.3a.85.85,0,0,1-.45-1.58L34,118.32a.85.85,0,0,1,.92,0l22.63,14.54a.86.86,0,0,1-.46,1.58Zm-42.81-1.71H54.16L34.45,120.06Z"/>
      <path class="cls-1" d="M34.45,120a.84.84,0,0,1-.46-.13L10.88,105,10.8,105h0a.87.87,0,0,1-.21-.22l0-.07h0a.86.86,0,0,1-.06-.67.88.88,0,0,1,.4-.49L34,87.85a.86.86,0,0,1,1,0l22.6,15.72a.84.84,0,0,1,.36.46v0a1,1,0,0,1,0,.39.86.86,0,0,1-.45.61L34.92,119.87A.79.79,0,0,1,34.45,120ZM29.64,98.36h0a6.08,6.08,0,0,0-6,6c-.36,5.26,8.67,11.17,10.51,12.32,2.07-1.3,10.83-7.14,10.46-12.36a6.07,6.07,0,0,0-6-5.93h0a5,5,0,0,0-3.77,2,.86.86,0,0,1-.69.35h0a.86.86,0,0,1-.69-.35A4.92,4.92,0,0,0,29.64,98.36Zm8.93-1.73a7.75,7.75,0,0,1,7.73,7.52c.28,3.83-3.18,7.68-6.42,10.41l15.67-10.28L34.45,89.6,12.87,104.28l13.91,8.93c-2.72-2.57-5.1-5.77-4.87-9a7.77,7.77,0,0,1,7.71-7.56h0a6.63,6.63,0,0,1,4.46,1.85,6.59,6.59,0,0,1,4.46-1.86Z"/>
    </g>
    <g>
      <path class="cls-1" d="M49.51,439.58H26.61v-2.51a1.81,1.81,0,0,0-1.8-1.8H17.69a1.8,1.8,0,0,0-1.8,1.8v2.52A5.43,5.43,0,0,0,10.67,445v17.63A5.43,5.43,0,0,0,16.09,468H49.51a5.42,5.42,0,0,0,5.42-5.41V445A5.42,5.42,0,0,0,49.51,439.58Zm-32-2.51a.17.17,0,0,1,.17-.16h7.12a.16.16,0,0,1,.16.16v2.51H17.52Zm35.77,25.56a3.77,3.77,0,0,1-3.78,3.77H16.09a3.78,3.78,0,0,1-3.78-3.77V445a3.79,3.79,0,0,1,3.78-3.79H49.51A3.79,3.79,0,0,1,53.29,445Z"/>
      <path class="cls-1" d="M22.25,443.73H17.71A1.44,1.44,0,0,0,16.29,445h0v3.08h0a1.45,1.45,0,0,0,1.42,1.25h4.54A1.46,1.46,0,0,0,23.68,448h0v-3h0A1.45,1.45,0,0,0,22.25,443.73Zm-.19,3.93H17.91v-2.3h4.15Z"/>
      <path class="cls-1" d="M39.16,443.26a10.56,10.56,0,1,0,10.56,10.55A10.56,10.56,0,0,0,39.16,443.26Zm0,19.47a8.92,8.92,0,1,1,8.92-8.92A8.93,8.93,0,0,1,39.16,462.73Z"/>
      <path class="cls-1" d="M39.16,447.84a6,6,0,1,0,6,6A6,6,0,0,0,39.16,447.84Zm0,10.31a4.34,4.34,0,1,1,4.34-4.34A4.34,4.34,0,0,1,39.16,458.15Z"/>
      <path class="cls-1" d="M36.16,438.29a.83.83,0,0,0,.63.3.88.88,0,0,0,.52-.19.81.81,0,0,0,.11-1.15l-1.5-1.82a5.72,5.72,0,0,0,3.24-2,5.74,5.74,0,0,0,3.25,2l-1.5,1.82A.81.81,0,0,0,41,438.4a.85.85,0,0,0,.52.19.83.83,0,0,0,.63-.3l2.45-3a.81.81,0,0,0,.11-.88A.82.82,0,0,0,44,434s-3.3,0-4-2.54a.29.29,0,0,0,0-.08.53.53,0,0,0-.08-.15.38.38,0,0,0-.1-.12.52.52,0,0,0-.11-.1l-.15-.08-.08,0h-.22a.49.49,0,0,0-.17,0h-.06l-.08,0-.15.08-.12.1-.1.11a.77.77,0,0,0-.07.16s0,0-.05.08c-.72,2.56-3.89,2.53-4,2.54a.84.84,0,0,0-.75.46.83.83,0,0,0,.1.88Z"/>
    </g>
    <g>
      <path class="cls-1" d="M90.63,566.22a4,4,0,0,0-1.39-2.75.86.86,0,0,0-1.19.09,6,6,0,0,1-4.69,2,11.46,11.46,0,0,1-2.49-.31,3.29,3.29,0,0,0,.66-.63,5.31,5.31,0,0,0,.93-3.66,3.81,3.81,0,0,0,2.4-2,4.54,4.54,0,0,0-.09-3.4,4.74,4.74,0,0,0,.49-5.56,5.85,5.85,0,0,0,.27-4.46c-1.11-3.14-4.73-4.74-4.88-4.81A.87.87,0,0,0,79.59,542s1.74,2.58,1,4.42a2.59,2.59,0,0,1-1.06,1.23,8.64,8.64,0,0,0-1-1.5,5.61,5.61,0,0,0-.82-4.59,4.31,4.31,0,0,0-3.1-1.51.88.88,0,0,0-.73.38.87.87,0,0,0-.09.81,3.77,3.77,0,0,1-.12,2.74,5.54,5.54,0,0,1-3.5,2.67c-3.46,1.19-5.5,4.17-6.65,6.7l-.16-.09c-.9-.45-1.92-1-3.11-1.43a5.76,5.76,0,0,0-2.07-.4,4.89,4.89,0,0,0-3.73,1.76l-2.68.57a.87.87,0,0,0-.2,1.63s.83.39,2.78,1.26,4.37,4.78,5.22,6.23l.07.11c3.9,6.57,8.08,7.47,12,7.47h.87a7.8,7.8,0,0,1,3.07.31c6.33,3,5.59,7.09,5.55,7.28a.92.92,0,0,0,.22.78.89.89,0,0,0,.64.27h.12c2.11-.3,3.5-1.05,4.15-2.23a3.15,3.15,0,0,0,.36-1.81,4.19,4.19,0,0,0,2.63-2.12,4.53,4.53,0,0,0,0-3.37A4.66,4.66,0,0,0,90.63,566.22ZM70.75,548.28a7.18,7.18,0,0,0,4.51-3.6,5.34,5.34,0,0,0,.46-2.59,2.39,2.39,0,0,1,.66.55,4.4,4.4,0,0,1,.37,3.58A.88.88,0,0,0,77,547a6.43,6.43,0,0,1,.94,1.25l-.14,0A18.92,18.92,0,0,0,69,553.1a6.21,6.21,0,0,1-1.75,1.28,3.81,3.81,0,0,1-2.07-.48C66.19,551.73,67.92,549.25,70.75,548.28Zm16.92,20.47a.87.87,0,0,0-.16,1,3.17,3.17,0,0,1,.19,2.41,3,3,0,0,1-2.27,1.39.85.85,0,0,0-.6.46.83.83,0,0,0,0,.75,1.55,1.55,0,0,1-.07,1.23,2.78,2.78,0,0,1-1.82,1.14c-.1-1.86-1.08-5.39-6.6-8a6.92,6.92,0,0,0-3-.49h-.79c-3.32,0-7.41,0-11.37-6.62l-.06-.11c-1.11-1.88-3.42-5.78-6-6.93l-.34-.15.41-.09a.84.84,0,0,0,.55-.38,3.22,3.22,0,0,1,2.51-1.28,3.92,3.92,0,0,1,1.45.3,29.6,29.6,0,0,1,3,1.36,9.51,9.51,0,0,0,4.13,1.41,4.45,4.45,0,0,0,.81-.08,6.94,6.94,0,0,0,2.87-1.84A16.66,16.66,0,0,1,78.15,550c2.15-.51,3.52-1.52,4.09-3a5.14,5.14,0,0,0,.07-3.17,5.48,5.48,0,0,1,1.58,2.24,4.21,4.21,0,0,1-.39,3.52.86.86,0,0,0,.07.91,3.12,3.12,0,0,1-.42,4.17.88.88,0,0,0-.18,1.07,3.14,3.14,0,0,1,.3,2.44,2.53,2.53,0,0,1-2,1.22.88.88,0,0,0-.67,1,4.13,4.13,0,0,1-.47,3,2.38,2.38,0,0,1-2,.75h-.27a.85.85,0,0,0-.88.64.86.86,0,0,0,.45,1,14.47,14.47,0,0,0,5.85,1.38,7.84,7.84,0,0,0,5.27-1.81,2,2,0,0,1,.26.9A3.37,3.37,0,0,1,87.67,568.75Z"/>
      <path class="cls-1" d="M48.79,554l-2.68-.57a4.89,4.89,0,0,0-3.73-1.76,5.82,5.82,0,0,0-2.07.41,30.15,30.15,0,0,0-3.12,1.43l-.15.08c-1.15-2.52-3.19-5.5-6.65-6.69a5.56,5.56,0,0,1-3.49-2.66,3.83,3.83,0,0,1-.13-2.75.89.89,0,0,0-.09-.82.86.86,0,0,0-.72-.38,4.3,4.3,0,0,0-3.11,1.52,5.56,5.56,0,0,0-.81,4.59,8.29,8.29,0,0,0-1,1.49A2.62,2.62,0,0,1,20,546.7c-.59-1.54.55-3.72,1-4.42a.86.86,0,0,0,0-1,.88.88,0,0,0-1-.25c-.15.07-3.77,1.68-4.88,4.82a5.87,5.87,0,0,0,.27,4.45,4.74,4.74,0,0,0,.49,5.56,4.55,4.55,0,0,0-.08,3.4,3.74,3.74,0,0,0,2.39,2,5.3,5.3,0,0,0,.93,3.66,2.81,2.81,0,0,0,.66.63,10.79,10.79,0,0,1-2.48.31,6,6,0,0,1-4.7-1.94.86.86,0,0,0-1.19-.1,4,4,0,0,0-1.39,2.76,4.66,4.66,0,0,0,1.33,3.32,4.58,4.58,0,0,0,0,3.37,4.22,4.22,0,0,0,2.63,2.12,3.2,3.2,0,0,0,.36,1.8c.65,1.18,2,1.93,4.15,2.24h.15a.87.87,0,0,0,.86-.87,1.06,1.06,0,0,0-.05-.31c-.09-.75-.22-4.45,5.57-7.15a7.61,7.61,0,0,1,3.07-.32h.87c3.94,0,8.12-.91,12-7.48l.07-.11c.86-1.45,3.14-5.31,5.22-6.23S49,555.67,49,555.67a.9.9,0,0,0,.49-.89A.88.88,0,0,0,48.79,554Zm-25.21-6.71a.86.86,0,0,0,.24-.81c-.34-1.6-.21-2.83.38-3.57a2.08,2.08,0,0,1,.65-.55,5.3,5.3,0,0,0,.46,2.58,7.17,7.17,0,0,0,4.52,3.6c2.82,1,4.55,3.45,5.56,5.62a3.56,3.56,0,0,1-2.08.49,6.49,6.49,0,0,1-1.73-1.28,18.93,18.93,0,0,0-8.81-4.79l-.14,0A6.43,6.43,0,0,1,23.58,547.32Zm21.93,8c-2.59,1.14-4.91,5-6,6.92l-.06.12c-4,6.66-8,6.66-11.36,6.61a8.81,8.81,0,0,0-3.83.48c-5.52,2.57-6.5,6.1-6.59,8a2.91,2.91,0,0,1-1.83-1.13,1.51,1.51,0,0,1-.06-1.24.88.88,0,0,0,0-.76.87.87,0,0,0-.59-.45,3,3,0,0,1-2.27-1.38,3.15,3.15,0,0,1,.18-2.42.88.88,0,0,0-.16-1,3.39,3.39,0,0,1-1.22-2.41,2.11,2.11,0,0,1,.26-.91,7.81,7.81,0,0,0,5.28,1.82,14.52,14.52,0,0,0,5.85-1.38.88.88,0,0,0,.45-1,.87.87,0,0,0-.89-.64,2.52,2.52,0,0,1-2.23-.74,4.09,4.09,0,0,1-.48-3,.87.87,0,0,0-.67-1,2.59,2.59,0,0,1-1.95-1.21,3.14,3.14,0,0,1,.3-2.45.87.87,0,0,0-.18-1.07,3.1,3.1,0,0,1-.41-4.18.86.86,0,0,0,.06-.91,4.29,4.29,0,0,1-.39-3.52,5.71,5.71,0,0,1,1.58-2.24,5.14,5.14,0,0,0,.07,3.17c.57,1.5,1.94,2.52,4.09,3a16.74,16.74,0,0,1,7.75,4.25A6.74,6.74,0,0,0,33,556.42a4.45,4.45,0,0,0,.81.08A9.38,9.38,0,0,0,38,555.09a28.59,28.59,0,0,1,3-1.36,4.15,4.15,0,0,1,1.45-.29,3.14,3.14,0,0,1,2.51,1.28.85.85,0,0,0,.55.37l.41.09Z"/>
      <path class="cls-1" d="M57,540c0-.14,0-.29,0-.44a3.85,3.85,0,0,0-6.84-2.44,3.85,3.85,0,0,0-6.84,2.44,2.18,2.18,0,0,0,0,.39c.33,4.53,6,8.95,6.29,9.14a.87.87,0,0,0,.53.18.89.89,0,0,0,.53-.18C50.91,548.89,56.63,544.47,57,540Zm-6.82,7.27c-1.36-1.15-4.87-4.42-5.1-7.49,0-.08,0-.15,0-.22a2.12,2.12,0,0,1,4.24,0,.87.87,0,0,0,1.74,0,2.12,2.12,0,1,1,4.23,0c0,.08,0,.15,0,.28C55,542.85,51.49,546.11,50.14,547.26Z"/>
    </g>
    <g>
      <path class="cls-1" d="M53.28,47.88A4.77,4.77,0,0,0,56,47a5.18,5.18,0,1,0,2.88-9.48,5.1,5.1,0,0,0-3.43,1.32,4.79,4.79,0,1,0-2.2,9Zm5.63-8.63a3.45,3.45,0,1,1,0,6.9,3.4,3.4,0,0,1-1.64-.43,4.74,4.74,0,0,0-.4-5.79A3.42,3.42,0,0,1,58.91,39.25Zm-3.15,2a3.06,3.06,0,0,1,.58,1.79A3.11,3.11,0,0,1,56,44.51a3.41,3.41,0,0,1-.22-3.21ZM53.28,40a3,3,0,0,1,1.08.21,5.14,5.14,0,0,0,.39,5.54,3.18,3.18,0,0,1-1.47.38,3.07,3.07,0,1,1,0-6.13Z"/>
      <path class="cls-1" d="M23.37,69.49a2.89,2.89,0,1,0,2.88,2.89A2.9,2.9,0,0,0,23.37,69.49Zm0,4.06a1.17,1.17,0,1,1,1.16-1.17A1.17,1.17,0,0,1,23.37,73.55Z"/>
      <path class="cls-1" d="M75.88,69.49a2.89,2.89,0,1,0,2.89,2.89A2.89,2.89,0,0,0,75.88,69.49Zm0,4.05a1.17,1.17,0,1,1,1.17-1.16A1.16,1.16,0,0,1,75.88,73.54Z"/>
      <path class="cls-1" d="M50.49,53.31H42.91a.86.86,0,0,0-.7.36l-3.54,5A.87.87,0,0,0,39.38,60H50.49a.87.87,0,0,0,.86-.86v-5A.86.86,0,0,0,50.49,53.31Zm-.86,5H41L43.36,55h6.27Z"/>
      <path class="cls-1" d="M72.34,53.31H64.77a.85.85,0,0,0-.86.86v5a.86.86,0,0,0,.86.86H75.88a.87.87,0,0,0,.71-1.36l-3.55-5A.83.83,0,0,0,72.34,53.31Zm-6.71,5V55H71.9l2.32,3.27Z"/>
      <path class="cls-1" d="M62.24,53.31H53a.86.86,0,0,0-.87.86v5A.87.87,0,0,0,53,60h9.22a.86.86,0,0,0,.86-.86v-5A.85.85,0,0,0,62.24,53.31Zm-.86,5h-7.5V55h7.5Z"/>
      <path class="cls-1" d="M112,76.08a2.67,2.67,0,0,0-1.57-1.34l-4.64-1.51a2.62,2.62,0,0,0-.83-.13,2.68,2.68,0,0,0-2.19,1.13l-8.5-2.88,6.25-.9a2.68,2.68,0,0,0,2.27,1.24,3,3,0,0,0,.6-.06l4.76-1.09a2.68,2.68,0,0,0,2-3.23,2.68,2.68,0,0,0-2.62-2.09,3.07,3.07,0,0,0-.6.07l-4.76,1.09a2.68,2.68,0,0,0-2.06,2.38L91,70.08,74.7,49.82A.88.88,0,0,0,74,49.5H41.57a.86.86,0,0,0-.64.29l-7.3,8.05L15.62,60a.87.87,0,0,0-.68.5l-3.26,7.11H10.32a2.07,2.07,0,1,0,0,4.14h5.39c0,.2,0,.41,0,.62a7.69,7.69,0,0,0,15.38,0c0-.21,0-.42,0-.62H68.23c0,.2,0,.41,0,.62a7.69,7.69,0,0,0,15.37,0c0-.21,0-.42,0-.62h6.52l12.17,4.12a2.7,2.7,0,0,0,1.85,2.47l4.64,1.5a2.63,2.63,0,0,0,.83.14,2.69,2.69,0,0,0,2.4-3.91Zm-9.42-8L107.28,67a.86.86,0,0,1,.22,0,1,1,0,0,1,.94.75.94.94,0,0,1-.12.73,1,1,0,0,1-.61.43L103,70a1,1,0,0,1-1.16-.73A1,1,0,0,1,102.53,68.06ZM23.37,78.35a6,6,0,1,1,6-6A6,6,0,0,1,23.37,78.35Zm52.51,0a6,6,0,1,1,6-6A6,6,0,0,1,75.88,78.34ZM83.2,70a7.68,7.68,0,0,0-14.64,0H30.69a7.69,7.69,0,0,0-14.64,0H10.32a.35.35,0,0,1,0-.7h1.91a.8.8,0,0,0,.15,0,.76.76,0,0,0,.16,0,.54.54,0,0,0,.16-.1l.12-.08a.66.66,0,0,0,.12-.17l.07-.09v0l3.28-7.16,17.86-2.15a.86.86,0,0,0,.53-.28l7.26-8H73.61L88.75,70Zm27.27,7.55a1,1,0,0,1-1.22.63l-4.64-1.51a1,1,0,0,1,.3-1.89,1,1,0,0,1,.3,0l4.64,1.52a1,1,0,0,1,.56.48A.93.93,0,0,1,110.47,77.59Z"/>
    </g>
    <g>
      <path class="cls-1" d="M54.38,336.82v-7.48a7,7,0,0,0-6.27-6.92v-7.49a7,7,0,0,0-7-7H33v-2.31c1.56-1.27,7.27-6.25,7.64-11.29a4.41,4.41,0,0,0,0-.52A4.81,4.81,0,0,0,32,290.93c-.14-.17-.28-.33-.44-.49a4.81,4.81,0,0,0-8.21,3.41c0,.17,0,.35,0,.49.38,5.07,6.09,10.05,7.64,11.32V308H22.93a7,7,0,0,0-7,7v7.49a7,7,0,0,0-6.27,6.92v7.48a7,7,0,0,0-6.36,6.93v8.42a1,1,0,0,0,1,1H59.76a1,1,0,0,0,1-1v-8.42A7,7,0,0,0,54.38,336.82Zm-7-12.48a5,5,0,0,1,5,5v3.24c-.3,0-.6,0-.9-.05l-.23,0-.65-.1-.32-.08-.53-.13-.34-.12-.48-.18a2.52,2.52,0,0,1-.34-.15,3.55,3.55,0,0,1-.44-.21l-.33-.18-.41-.25-.32-.22-.38-.28-.29-.24-.35-.32-.28-.27c-.11-.11-.21-.23-.31-.34l-.25-.3c-.1-.12-.2-.24-.29-.37l-.22-.32a4.11,4.11,0,0,1-.24-.39l-.2-.35-.21-.41-.17-.37c-.06-.14-.11-.28-.16-.43s-.1-.25-.14-.39-.08-.28-.11-.43-.08-.27-.11-.42-.05-.28-.07-.43-.05-.3-.07-.45v0h4.14Zm-6.27-14.4a5,5,0,0,1,5,5v.67l-.09,0a6.59,6.59,0,0,1-.86-.27.84.84,0,0,1-.14-.06,6.32,6.32,0,0,1-.74-.36l-.12-.06a6,6,0,0,1-.73-.51l-.15-.11c-.23-.2-.45-.4-.66-.62l0,0a7.46,7.46,0,0,1-.56-.7l-.08-.12a5.62,5.62,0,0,1-.46-.79l-.06-.12a6.23,6.23,0,0,1-.33-.85s0,0,0,0a5.83,5.83,0,0,1-.21-.92s0-.06,0-.08ZM25.34,294.16c0-.11,0-.21,0-.31a2.85,2.85,0,1,1,5.7,0,1,1,0,1,0,2,0,2.86,2.86,0,0,1,5.71,0c0,.11,0,.21,0,.35-.3,4-5,8.31-6.67,9.73C30.32,302.5,25.63,298.21,25.34,294.16Zm13.45,15.78,0,.22c0,.09,0,.19,0,.27s-.06.25-.1.37,0,.17-.07.26-.09.25-.14.37l-.09.23c-.06.14-.13.27-.2.41l-.08.16c-.1.18-.21.36-.32.54a1.47,1.47,0,0,0-.1.13c-.09.13-.18.25-.28.37l-.16.18a3.45,3.45,0,0,1-.26.28l-.19.19-.27.24-.21.17-.29.22-.23.15-.31.19-.24.13-.33.16-.25.11-.35.12-.25.09a2.62,2.62,0,0,1-.38.09l-.25.07a3.11,3.11,0,0,1-.44.06l-.21,0c-.22,0-.44,0-.67,0s-.45,0-.67,0l-.21,0a3.11,3.11,0,0,1-.44-.06l-.25-.07a2.62,2.62,0,0,1-.38-.09l-.25-.08-.35-.14-.25-.1-.33-.16-.24-.13-.31-.19-.23-.15-.29-.22-.21-.17c-.09-.07-.19-.17-.28-.25l-.18-.18-.27-.29-.15-.17c-.11-.13-.21-.27-.31-.41l-.07-.09c-.11-.18-.22-.36-.32-.54a1.51,1.51,0,0,1-.09-.18c-.07-.13-.13-.26-.19-.4a1.57,1.57,0,0,1-.09-.23c-.05-.12-.1-.24-.14-.37a2,2,0,0,1-.07-.26c0-.11-.07-.24-.1-.36s0-.18-.05-.28l0-.21Zm-20.86,5a5,5,0,0,1,5-5h.24s0,.06,0,.09a6.54,6.54,0,0,1-.2.9l0,.09a6.67,6.67,0,0,1-.31.78c0,.06-.05.11-.07.17a8.31,8.31,0,0,1-.44.76l-.11.15a6.66,6.66,0,0,1-.53.66l0,0a6.36,6.36,0,0,1-.66.61l-.15.12a6.34,6.34,0,0,1-.73.51l-.12.06a7.05,7.05,0,0,1-.73.36l-.15.06a6.59,6.59,0,0,1-.86.27l-.09,0Zm0,2.68a.7.7,0,0,1,.14,0c.26-.05.51-.11.77-.18l.3-.1.59-.22L20,317a6.36,6.36,0,0,0,.58-.3l.25-.13.77-.5.06-.06c.23-.17.44-.35.64-.53l.22-.21c.15-.15.29-.3.43-.46l.22-.25c.13-.16.25-.33.38-.5l.17-.24c.15-.24.3-.48.43-.73l0-.06,0,.06a8,8,0,0,0,.55.9,1.33,1.33,0,0,0,.14.19,6.66,6.66,0,0,0,.53.66l.2.22a8.39,8.39,0,0,0,.75.71l0,0a10.13,10.13,0,0,0,.85.61l.26.15a7.58,7.58,0,0,0,.74.4l.23.11a7.92,7.92,0,0,0,1,.37l.23.06a7.7,7.7,0,0,0,.86.18l.3.05a10.36,10.36,0,0,0,1.12.08,10.36,10.36,0,0,0,1.12-.08l.3-.05a7.7,7.7,0,0,0,.86-.18l.23-.06a7.92,7.92,0,0,0,1-.37l.23-.11a7.58,7.58,0,0,0,.74-.4l.26-.15a10.13,10.13,0,0,0,.85-.61l0-.05a8.94,8.94,0,0,0,.71-.67,2.62,2.62,0,0,0,.22-.25,7.37,7.37,0,0,0,.5-.61c0-.08.12-.15.17-.23a9.61,9.61,0,0,0,.53-.87.35.35,0,0,1,0-.08v0c.14.26.29.51.45.76l.17.24c.13.17.25.34.39.5l.21.25c.14.16.28.31.43.46l.22.21c.2.18.41.36.62.52l.09.07a8.49,8.49,0,0,0,.77.5,1.83,1.83,0,0,0,.24.13,6.54,6.54,0,0,0,.59.3,2.71,2.71,0,0,0,.3.13c.19.08.39.15.6.22l.3.1c.25.07.5.13.76.18a.7.7,0,0,1,.14,0v4.77H17.93Zm23.28,6.73a8.74,8.74,0,0,1-.14.87c0,.05,0,.1,0,.16-.05.23-.11.47-.18.69l-.1.3c-.06.18-.12.36-.19.53l-.15.32c-.07.15-.14.31-.22.46L40,328a4.78,4.78,0,0,1-.26.42c-.06.1-.14.21-.21.31s-.19.26-.29.38l-.25.3c-.1.11-.21.24-.32.35l-.27.27-.35.31-.3.26-.38.28-.32.22-.4.24-.35.2-.43.2-.35.16-.47.17-.35.13-.52.13-.34.08a5.58,5.58,0,0,1-.59.09l-.3,0a8.31,8.31,0,0,1-1.82,0l-.3,0a5.58,5.58,0,0,1-.59-.09l-.34-.08-.52-.13-.35-.13-.47-.17-.35-.16-.44-.2-.33-.2c-.14-.07-.28-.16-.41-.24l-.32-.22-.38-.28-.3-.26-.34-.31-.28-.27c-.11-.11-.21-.23-.32-.35l-.25-.3c-.1-.12-.19-.25-.28-.37s-.15-.22-.23-.32l-.24-.41c-.07-.11-.14-.22-.2-.33l-.21-.45c-.05-.11-.11-.22-.16-.34l-.18-.5c0-.11-.08-.21-.11-.32s-.12-.42-.17-.64,0-.14,0-.21a8.7,8.7,0,0,1-.13-.87Zm-29.55,5a5,5,0,0,1,5-5h4.15a8.74,8.74,0,0,1-.14.87c0,.08,0,.15-.05.23s-.1.42-.16.62l-.12.32c-.06.17-.11.34-.18.51s-.1.22-.16.33-.13.3-.21.45l-.19.33c-.08.14-.16.28-.25.41s-.15.21-.23.32l-.27.37-.26.31c-.1.11-.2.23-.31.34L18,330l-.35.31c-.09.08-.19.17-.3.25l-.37.28-.33.22-.4.25-.34.19-.43.21c-.12.05-.23.11-.35.15l-.47.18-.36.12-.51.13-.34.09-.63.09-.26,0a8.77,8.77,0,0,1-.9,0Zm0,5.21a8.43,8.43,0,0,0,1-.06,2.85,2.85,0,0,0,.29,0c.25,0,.51-.06.75-.11l.28-.06a7.77,7.77,0,0,0,.95-.24l.14-.05a7.15,7.15,0,0,0,.77-.29l.31-.12c.2-.09.41-.19.61-.3l.28-.14.77-.47c.1-.07.2-.15.3-.21l.45-.34.35-.3.34-.31a9.53,9.53,0,0,0,.83-.85s0,0,.06-.06.26-.33.38-.5a1.66,1.66,0,0,0,.16-.21c.13-.17.25-.36.37-.54l.07-.11a11.9,11.9,0,0,0,.71-1.32c.11.25.23.5.36.74l.06.09c.14.25.29.5.44.74l.17.24c.14.2.29.4.44.59s.1.13.16.19a8.54,8.54,0,0,0,.64.71l.14.14q.29.27.57.51l.23.19c.2.16.41.32.61.46l.18.12c.26.18.54.35.81.5l.22.12.67.32.28.12.79.29.14,0c.31.1.63.18.95.25l.27,0,.75.12.3,0c.33,0,.67.05,1,.05s.69,0,1-.05l.29,0,.75-.12.27,0c.32-.07.64-.15.95-.25l.15-.05c.26-.08.52-.18.78-.28l.28-.12.66-.32.23-.12c.28-.15.55-.32.81-.49l.18-.13.6-.45.24-.19c.2-.17.38-.35.57-.52l.14-.14c.23-.23.44-.46.64-.7l.16-.2c.15-.19.3-.39.44-.6a1.88,1.88,0,0,0,.16-.23c.17-.25.32-.5.47-.76a.25.25,0,0,1,0-.07c.13-.24.25-.48.36-.73.11.25.24.49.37.73l0,.1c.14.25.29.49.45.73l.16.24c.14.2.29.4.44.59l.16.2c.2.24.41.47.64.7l.14.14.57.52.23.18.62.47.17.11c.26.18.54.34.81.5l.22.12.68.32.26.11a8,8,0,0,0,.82.3l.11,0a9.63,9.63,0,0,0,1,.25l.27,0,.75.12.29,0c.33,0,.67.05,1,.05v2.25H11.66Zm29.55,4.2h0c0,.05,0,.11,0,.17,0,.24-.07.48-.11.71s-.06.21-.08.32-.09.36-.14.54l-.12.35c-.06.16-.11.32-.18.47a2.21,2.21,0,0,1-.16.35,3.55,3.55,0,0,1-.21.44c-.06.11-.12.23-.19.34s-.16.27-.25.4l-.22.33c-.09.12-.18.25-.28.37a3.73,3.73,0,0,1-.26.3c-.1.12-.2.24-.31.35l-.28.28-.34.31-.31.25-.37.28-.32.22-.41.25-.34.19c-.14.08-.29.14-.43.21l-.36.16-.46.17c-.12,0-.24.09-.36.12s-.34.09-.51.14l-.35.08c-.19,0-.39.06-.59.09l-.3,0a8.31,8.31,0,0,1-1.82,0l-.3,0c-.2,0-.4-.05-.59-.09l-.35-.08c-.17,0-.34-.08-.51-.14l-.36-.12-.47-.17-.35-.16c-.15-.07-.3-.13-.44-.21l-.34-.19-.4-.25-.33-.22-.37-.28-.3-.25-.35-.31-.28-.28c-.11-.11-.21-.23-.31-.35s-.17-.2-.26-.3l-.28-.37-.22-.32c-.09-.13-.17-.27-.25-.4s-.13-.23-.19-.34l-.21-.44c-.05-.11-.11-.23-.16-.35s-.12-.31-.17-.46-.09-.24-.12-.36-.09-.34-.14-.51-.06-.22-.08-.34-.06-.39-.09-.58,0-.2,0-.3v0Zm-35.9,5a5,5,0,0,1,5-5h10.5c0,.06,0,.12,0,.17,0,.24-.07.48-.11.72s-.06.22-.08.32-.09.36-.14.54l-.12.35c-.06.15-.11.32-.18.47a3.73,3.73,0,0,1-.16.35,3.55,3.55,0,0,1-.21.44l-.19.34-.24.4-.23.33c-.09.12-.18.25-.28.37a3.73,3.73,0,0,1-.26.3l-.3.35-.29.28-.34.31-.31.25-.37.28-.32.22-.41.25-.34.19c-.14.08-.29.14-.43.21l-.35.16-.47.17c-.12,0-.24.09-.36.12s-.34.09-.51.14l-.35.08c-.19,0-.39.06-.58.09l-.31,0a8.31,8.31,0,0,1-1.82,0l-.29,0-.6-.09-.34-.08a5.18,5.18,0,0,1-.53-.14l-.35-.12a3.94,3.94,0,0,1-.48-.18c-.12,0-.24-.1-.36-.15L7.33,346a3.79,3.79,0,0,1-.34-.2l-.43-.26-.32-.24c-.14-.1-.27-.19-.4-.3a4,4,0,0,1-.31-.27l-.22-.21Zm53.47,7.45H5.31V347l0,0,.09.06.77.47.26.14.67.32.26.12c.31.13.62.24.94.34l0,0c.3.09.61.16.92.23l.3.05c.24.05.48.09.73.12l.3,0c.34,0,.68.05,1,.05s.69,0,1-.05l.3,0a6.46,6.46,0,0,0,.75-.11l.27-.05c.32-.07.64-.15.95-.25l.15-.05c.26-.08.52-.18.78-.28l.27-.12c.23-.1.46-.21.68-.33l.21-.11c.28-.15.55-.32.82-.49L18,347l.61-.46.22-.19a7.23,7.23,0,0,0,.59-.53l.13-.12c.22-.23.44-.46.64-.71l.16-.2c.15-.19.3-.39.44-.59L21,344c.16-.25.32-.5.46-.76l.05-.07.36-.73c.11.25.23.49.36.74l.06.1c.14.25.29.49.44.73l.17.24c.14.2.29.4.44.59l.16.2c.2.24.41.47.64.7l.14.13c.19.19.38.36.57.52l.23.19a6.62,6.62,0,0,0,.62.46l.17.13c.26.17.54.34.82.49l.21.11c.22.12.45.23.68.33l.27.12.79.29.13,0c.32.1.64.18,1,.25l.27.05a6.46,6.46,0,0,0,.75.11l.3,0c.33,0,.67.05,1,.05s.69,0,1-.05l.29,0a6.46,6.46,0,0,0,.75-.11l.27-.05c.32-.07.64-.15,1-.25l.13,0,.79-.29.27-.12.69-.33.2-.1c.28-.16.56-.33.83-.51l.15-.1c.22-.16.43-.31.64-.48l.2-.17a8.37,8.37,0,0,0,.62-.57l.1-.09a9.24,9.24,0,0,0,.66-.73l.12-.15c.17-.21.33-.43.49-.65,0-.06.09-.12.13-.19a11.59,11.59,0,0,0,.88-1.58c.11.25.24.49.37.73a.41.41,0,0,0,0,.09c.14.26.29.5.45.74l.16.24c.14.2.29.4.44.59l.16.2c.2.24.42.48.64.7l.14.13c.19.19.38.36.58.53l.23.18a5.41,5.41,0,0,0,.61.46l.17.13c.26.17.54.34.82.49l.21.11c.22.12.45.23.68.33l.27.12.79.29.14,0c.31.1.63.18,1,.25l.27.05a6.46,6.46,0,0,0,.75.11l.3,0c.33,0,.67.05,1,.05s.68,0,1-.05l.3,0c.25,0,.49-.06.73-.1l.31-.06c.3-.07.59-.14.88-.23l.09,0c.31-.1.62-.21.92-.34L57,348c.22-.1.44-.2.65-.32a1.51,1.51,0,0,0,.28-.15c.26-.14.5-.29.75-.45a.41.41,0,0,1,.11-.07l0,0Zm0-6.71-.23.21a4,4,0,0,1-.31.27l-.39.3-.33.24-.43.26-.34.2-.45.21a2.83,2.83,0,0,1-.36.16,3.94,3.94,0,0,1-.48.18c-.12,0-.23.09-.35.12a5.18,5.18,0,0,1-.53.14l-.34.08-.6.09-.29,0a8.31,8.31,0,0,1-1.82,0l-.3,0-.59-.09a3.58,3.58,0,0,1-.35-.09,4.07,4.07,0,0,1-.5-.13l-.38-.12-.44-.16-.4-.18L48.2,346l-.41-.22-.32-.2a4.43,4.43,0,0,1-.42-.29l-.26-.19-.43-.36-.19-.17-.44-.44L45.6,344c-.15-.17-.3-.34-.44-.52l-.06-.09c-.16-.2-.3-.41-.44-.62v0a9.36,9.36,0,0,1-1.38-4H53.78a5,5,0,0,1,5,5Z"/>
      <path class="cls-1" d="M10.68,344.26a1.58,1.58,0,1,0-1.58-1.58A1.58,1.58,0,0,0,10.68,344.26Z"/>
      <path class="cls-1" d="M32,344.26a1.58,1.58,0,1,0-1.58-1.58A1.58,1.58,0,0,0,32,344.26Z"/>
      <path class="cls-1" d="M32,329.67a1.58,1.58,0,1,0-1.58-1.58A1.58,1.58,0,0,0,32,329.67Z"/>
      <path class="cls-1" d="M48.29,329.67a1.58,1.58,0,1,0-1.58-1.58A1.58,1.58,0,0,0,48.29,329.67Z"/>
      <path class="cls-1" d="M15.37,329.67a1.58,1.58,0,1,0-1.58-1.58A1.58,1.58,0,0,0,15.37,329.67Z"/>
      <path class="cls-1" d="M32,314.32a1.58,1.58,0,1,0-1.58-1.58A1.58,1.58,0,0,0,32,314.32Z"/>
      <path class="cls-1" d="M20.26,313.57a.83.83,0,1,0,0-1.66.83.83,0,1,0,0,1.66Z"/>
      <path class="cls-1" d="M44,313.57a.83.83,0,1,0,0-1.66.83.83,0,1,0,0,1.66Z"/>
      <path class="cls-1" d="M53.4,341.1A1.58,1.58,0,1,0,55,342.68,1.58,1.58,0,0,0,53.4,341.1Z"/>
    </g>
    <g>
      <path class="cls-1" d="M86.56,203.46h2.23V188.69H87.23a2.9,2.9,0,0,1-1,1.25,3.37,3.37,0,0,1-1.52.61v1.55h1.89Z"/>
      <path class="cls-1" d="M94.28,203.62a3.42,3.42,0,0,0,2.48-1,3.37,3.37,0,0,0,1-2.5V192a3.47,3.47,0,0,0-1-2.5,3.54,3.54,0,0,0-6,2.5v8.05a3.52,3.52,0,0,0,3.54,3.53ZM92.93,192a1.26,1.26,0,0,1,.37-.9,1.27,1.27,0,0,1,1.81,0,1.23,1.23,0,0,1,.38.9v8.07a1.27,1.27,0,0,1-.38.91,1.29,1.29,0,0,1-1.81,0,1.3,1.3,0,0,1-.37-.91Z"/>
      <path class="cls-1" d="M104.75,173.73v-.91a3.4,3.4,0,0,0-6.8,0v.89h-13v-.89a3.4,3.4,0,1,0-6.8,0v.91a4.58,4.58,0,0,0-4.18,4.56V206.9a4.59,4.59,0,0,0,4.58,4.58H98.13a.77.77,0,0,0,.3-.06l.11-.06a.74.74,0,0,0,.13-.08l10-8.86,0,0,.06-.06a1.63,1.63,0,0,0,.11-.17l0-.09a1.7,1.7,0,0,0,0-.22s0,0,0-.05V178.29A4.58,4.58,0,0,0,104.75,173.73Zm-5.16-.91a1.76,1.76,0,0,1,3.52,0v.89H99.59Zm-19.84,0a1.76,1.76,0,0,1,3.52,0v.89H79.75Zm19.2,36v-3.27a2.94,2.94,0,0,1,2.94-2.94H106ZM107.3,201h-5.41a4.59,4.59,0,0,0-4.58,4.58v4.27H78.51a2.94,2.94,0,0,1-2.94-2.94V186.14H107.3Zm0-16.49H75.57v-6.21a2.94,2.94,0,0,1,2.94-2.94h25.85a2.94,2.94,0,0,1,2.94,2.94Z"/>
    </g>
    <g>
      <path class="cls-1" d="M93.61,267.05a3.16,3.16,0,0,0-5.8.72,1.05,1.05,0,0,0-.06.24,3.16,3.16,0,0,0-3.83,4.54l.18.27c2,3.06,7.83,3.88,8.07,3.92h.1a.76.76,0,0,0,.71-.47c.09-.23,2.35-5.62.78-8.91A1.87,1.87,0,0,0,93.61,267.05Zm-1.82,8.08c-1.79-.34-5.2-1.32-6.44-3.19a.71.71,0,0,1-.1-.14,1.64,1.64,0,0,1,2.85-1.63.76.76,0,0,0,1.43-.37.75.75,0,0,0-.1-.38,1.62,1.62,0,0,1,.62-2.23,1.69,1.69,0,0,1,2.24.61l.08.19C93.4,270.16,92.28,273.75,91.79,275.13Z"/>
      <path class="cls-1" d="M102.66,262.88a3.13,3.13,0,0,0-1.49-1.91,3.17,3.17,0,0,0-4.31,1.19l-.15.29c-1.57,3.33.68,8.72.78,8.94a.76.76,0,0,0,.7.47h.1c.25,0,6-.86,8.06-3.9a2.08,2.08,0,0,0,.19-.29,3.16,3.16,0,0,0-1.19-4.31,3.2,3.2,0,0,0-2.63-.23Zm1.94,1.79a1.66,1.66,0,0,1,.62,2.24l-.12.18c-1.33,2-5,2.87-6.42,3.15-.5-1.38-1.61-5-.58-7.17l.08-.15a1.63,1.63,0,0,1,1.43-.83,1.63,1.63,0,0,1,1.58,1.2,1.62,1.62,0,0,1-.15,1.24.8.8,0,0,0-.1.38.78.78,0,0,0,.38.67.76.76,0,0,0,1-.29A1.69,1.69,0,0,1,104.6,264.67Z"/>
      <path class="cls-1" d="M113.09,256.63h-9.43v-15a.75.75,0,0,0-.05-.26.05.05,0,0,1,0,0,.57.57,0,0,0-.08-.13l-8.45-11.06v-5h3.79a.76.76,0,1,0,0-1.52H95.05v-3.8a.77.77,0,0,0-1.53,0v3.8h-3.8a.76.76,0,1,0,0,1.52h3.8v5L85.07,241.2a.47.47,0,0,0-.07.12l0,.05a.8.8,0,0,0,0,.26v15H75.48a.76.76,0,0,0-.76.76v22.53a.76.76,0,0,0,.76.76h37.61a.76.76,0,0,0,.76-.76V257.39A.76.76,0,0,0,113.09,256.63Zm-18.8-25,7.06,9.25H87.22Zm-7.86,10.77h15.7v14.21H86.43Zm25.9,36.73H76.24v-21h36.09Z"/>
      <path class="cls-1" d="M94.29,245.8A3.72,3.72,0,1,0,98,249.52,3.73,3.73,0,0,0,94.29,245.8Zm0,5.92a2.2,2.2,0,1,1,2.19-2.2A2.2,2.2,0,0,1,94.29,251.72Z"/>
    </g>
    <path class="cls-1" d="M80.33,156.67a11.74,11.74,0,0,0,9.41-4.75,12.84,12.84,0,1,0,11-20.9c1.59-1.33,5.76-5.19,6-9.09a3,3,0,0,0,0-.42,3.88,3.88,0,0,0-7.08-2.2,4.79,4.79,0,0,0-.46-.55,3.89,3.89,0,0,0-6.63,2.75,2.5,2.5,0,0,0,0,.4c.29,3.92,4.46,7.78,6,9.11a12.85,12.85,0,0,0-9.79,5.88,11.68,11.68,0,0,0-7.49-3.69c1.53-1.3,5.14-4.74,5.4-8.21,0-.13,0-.26,0-.4a3.59,3.59,0,0,0-6.5-2.1,3.86,3.86,0,0,0-.38-.44,3.54,3.54,0,0,0-2.54-1,3.59,3.59,0,0,0-3.59,3.59c0,.14,0,.27,0,.37.26,3.5,3.88,6.94,5.41,8.24a11.75,11.75,0,0,0,1.08,23.46ZM94,121.78a2.45,2.45,0,0,1,0-.27,2.53,2.53,0,1,1,5,0,.68.68,0,0,0,.67.68h0a.69.69,0,0,0,.68-.68,2.52,2.52,0,0,1,5,0c0,.1,0,.19,0,.31-.26,3.47-4.37,7.18-5.7,8.29C98.37,129,94.26,125.29,94,121.78Zm5.71,10.55a11.49,11.49,0,1,1-9.17,18.38,11.63,11.63,0,0,0,1.54-5.8A11.76,11.76,0,0,0,89.82,138,11.49,11.49,0,0,1,99.71,132.33Zm-10.6,7a10.28,10.28,0,0,1,.57,10,11.36,11.36,0,0,1-1.46-5.59A11.54,11.54,0,0,1,89.11,139.38ZM75.2,124.85a2,2,0,0,1,0-.25A2.23,2.23,0,0,1,79,123a2.26,2.26,0,0,1,.66,1.58.67.67,0,0,0,.68.68h0a.68.68,0,0,0,.68-.68,2.23,2.23,0,0,1,4.46,0,2.62,2.62,0,0,1,0,.27c-.23,3.11-3.88,6.43-5.13,7.48C79.08,131.3,75.43,128,75.2,124.85Zm5.13,9.67a10.39,10.39,0,0,1,7.87,3.62,12.74,12.74,0,0,0,.71,12.62,10.39,10.39,0,1,1-8.58-16.24Z"/>
    <g>
      <path class="cls-1" d="M41.07,250.06a.78.78,0,0,0,.41-.12.81.81,0,0,0,.36-.49,8.91,8.91,0,0,0-1-6.26,8,8,0,0,0-1.09-1.4,7.45,7.45,0,0,0,1.62.18h.16a8.89,8.89,0,0,0,5.83-2.47.83.83,0,0,0,.23-.58.85.85,0,0,0-.25-.56,8.93,8.93,0,0,0-5.77-2.23h-.16a8.77,8.77,0,0,0-1.75.24,7.65,7.65,0,0,0,1-1.45,8.92,8.92,0,0,0,.78-6.29.86.86,0,0,0-.38-.48.81.81,0,0,0-.61-.06,8.89,8.89,0,0,0-4.9,4,8.09,8.09,0,0,0-.67,1.63,7.59,7.59,0,0,0-.74-1.61,8.84,8.84,0,0,0-5.06-3.82.79.79,0,0,0-.6.09.81.81,0,0,0-.36.49,8.84,8.84,0,0,0,1,6.26,8,8,0,0,0,1.09,1.4,8.12,8.12,0,0,0-1.62-.18h-.16a9,9,0,0,0-5.84,2.47.87.87,0,0,0-.22.58.77.77,0,0,0,.25.56,8.93,8.93,0,0,0,5.77,2.23h.16a7.47,7.47,0,0,0,1.75-.25,8,8,0,0,0-1,1.46,8.86,8.86,0,0,0-.78,6.29.8.8,0,0,0,.77.58.85.85,0,0,0,.22,0,8.89,8.89,0,0,0,4.74-3.75V281a.8.8,0,1,0,1.59,0V246.26a9,9,0,0,0,5,3.77A.69.69,0,0,0,41.07,250.06Zm.34-12.33h.13A7.27,7.27,0,0,1,45.48,239a7.3,7.3,0,0,1-4,1.4h-.13a6.93,6.93,0,0,1-2.41-.45,3.83,3.83,0,0,0,0-1.65A6.87,6.87,0,0,1,41.41,237.73ZM37,232.88a7.26,7.26,0,0,1,3.11-2.9,7.2,7.2,0,0,1-.8,4.17,6.57,6.57,0,0,1-1.58,1.9,3.61,3.61,0,0,0-.72-.51,4.31,4.31,0,0,0-.77-.32A6.78,6.78,0,0,1,37,232.88Zm-7.39-2.7A7.2,7.2,0,0,1,32.77,233a6.81,6.81,0,0,1,.87,2.36,3.93,3.93,0,0,0-1.41.89,6.88,6.88,0,0,1-1.71-1.88A7.2,7.2,0,0,1,29.56,230.18Zm-1,10.43h-.13a7.24,7.24,0,0,1-3.94-1.24,7.21,7.21,0,0,1,4-1.4h.13a7,7,0,0,1,2.45.47,3.83,3.83,0,0,0,.06,1.58A7,7,0,0,1,28.55,240.61ZM33,245.46a7.26,7.26,0,0,1-3.11,2.9,7.27,7.27,0,0,1,.8-4.17,6.89,6.89,0,0,1,1.75-2.05,3.47,3.47,0,0,0,.64.44,4.12,4.12,0,0,0,.71.31A7,7,0,0,1,33,245.46Zm2-4.16a2.25,2.25,0,0,1-1.1-.28,2.28,2.28,0,0,1,1.11-4.28,2.36,2.36,0,0,1,1.1.28A2.28,2.28,0,0,1,35,241.3Zm5.36,6.86a7.26,7.26,0,0,1-3.22-2.77,7.11,7.11,0,0,1-.89-2.53,3.9,3.9,0,0,0,1.36-.77A6.93,6.93,0,0,1,39.44,244,7.22,7.22,0,0,1,40.4,248.16Z"/>
      <path class="cls-1" d="M28.9,257.18c1.51-1.05,1.5-2.18,1.35-2.76-.2-.84-.94-1.84-3.27-1.84a14,14,0,0,0-3.37.49,8,8,0,0,0-1.65.61,7.78,7.78,0,0,0,.68-1.64c1.4-4.86.17-6.32-1.11-6.68a2,2,0,0,0-.59-.09c-1.61,0-2.92,1.74-3.91,5.16a7.71,7.71,0,0,0-.28,1.74,8,8,0,0,0-1.08-1.41c-1.91-2-3.53-3-4.83-3a2.11,2.11,0,0,0-1.52.6c-.43.41-1,1.36-.31,3.05a11.91,11.91,0,0,0,2.46,3.38,7.52,7.52,0,0,0,1.37,1.12,7.79,7.79,0,0,0-1.77.23,12.14,12.14,0,0,0-3.89,1.55c-1.51,1.05-1.5,2.17-1.35,2.75.21.84,1,1.84,3.27,1.84h0a14.39,14.39,0,0,0,3.37-.48,8.54,8.54,0,0,0,1.66-.62,7.82,7.82,0,0,0-.69,1.64c-1.4,4.86-.17,6.32,1.11,6.69a2.33,2.33,0,0,0,.59.08c1.59,0,2.94-1.78,3.91-5.16a7.71,7.71,0,0,0,.28-1.74,8.86,8.86,0,0,0,1.08,1.42c1.91,2,3.54,3,4.84,3a2.13,2.13,0,0,0,1.51-.6,2.26,2.26,0,0,0,.6-2.12,21.39,21.39,0,0,1,1.05,8.08V281a.8.8,0,1,0,1.6,0v-8.41c0-.33.63-7.93-3.11-12a7.55,7.55,0,0,0-2.32-1.71,3.54,3.54,0,0,0,.45-.08A12.31,12.31,0,0,0,28.9,257.18Zm-10.33-6.31c.8-2.76,1.77-4,2.37-4l.15,0c.61.18.87,1.73,0,4.71A6.89,6.89,0,0,1,20,253.81a4,4,0,0,0-.82-.35,4.54,4.54,0,0,0-.82-.14A6.85,6.85,0,0,1,18.57,250.87Zm-6,2.83a10.8,10.8,0,0,1-2.15-2.9c-.26-.62-.28-1,0-1.27a.53.53,0,0,1,.41-.15c.3,0,1.45.18,3.68,2.49a6.68,6.68,0,0,1,1.36,2.1,4.14,4.14,0,0,0-1.18,1.18A6.8,6.8,0,0,1,12.62,253.7Zm-.53,6.57a12.9,12.9,0,0,1-3,.44h0c-.58,0-1.58-.09-1.72-.63-.08-.32.16-.67.71-1.05a10.76,10.76,0,0,1,3.36-1.32,6.27,6.27,0,0,1,1.58-.19,7.23,7.23,0,0,1,1,.07,4.11,4.11,0,0,0,.42,1.54A7,7,0,0,1,12.09,260.27ZM17.51,264c-.79,2.77-1.76,4-2.37,4a.39.39,0,0,1-.15,0c-.61-.17-.87-1.72,0-4.71a7.21,7.21,0,0,1,1.26-2.38,3.74,3.74,0,0,0,.72.29,4.06,4.06,0,0,0,.76.14A6.79,6.79,0,0,1,17.51,264Zm-.07-4.53a2.29,2.29,0,1,1,2.83-1.57A2.33,2.33,0,0,1,17.44,259.48Zm8.17,4.61c.26.62.28,1,0,1.27a.52.52,0,0,1-.4.15c-.3,0-1.46-.18-3.69-2.49a7,7,0,0,1-1.42-2.27,3.88,3.88,0,0,0,1.15-1.06,7,7,0,0,1,2.18,1.5A11,11,0,0,1,25.61,264.09Zm-3.55-6.79a3.93,3.93,0,0,0-.35-1.62A6.69,6.69,0,0,1,24,254.62a12.83,12.83,0,0,1,3-.44c.59,0,1.59.08,1.72.63.08.32-.16.67-.71,1.05a11,11,0,0,1-3.36,1.32A6.86,6.86,0,0,1,22.06,257.3Z"/>
      <path class="cls-1" d="M62.39,257.71a12,12,0,0,0-3.88-1.55,7.87,7.87,0,0,0-1.77-.23,7.87,7.87,0,0,0,1.37-1.12,12.11,12.11,0,0,0,2.46-3.38c.73-1.69.12-2.64-.31-3.05a2.11,2.11,0,0,0-1.52-.6c-1.3,0-2.92,1-4.83,3a8,8,0,0,0-1.08,1.41,7.72,7.72,0,0,0-.29-1.74c-1-3.42-2.3-5.16-3.91-5.16a2,2,0,0,0-.58.09c-1.29.36-2.52,1.82-1.12,6.68a7.82,7.82,0,0,0,.69,1.64,8,8,0,0,0-1.65-.61,14,14,0,0,0-3.37-.49c-2.33,0-3.07,1-3.28,1.84-.14.58-.16,1.71,1.36,2.76a12.21,12.21,0,0,0,3.88,1.55,3.39,3.39,0,0,0,.44.08,7.63,7.63,0,0,0-2.31,1.71c-3.75,4.09-3.14,11.69-3.12,12V281a.8.8,0,0,0,1.6,0V272.4a20.75,20.75,0,0,1,1-8,2.28,2.28,0,0,0,.59,2.13,2.16,2.16,0,0,0,1.52.6c1.3,0,2.93-1,4.83-3a8.31,8.31,0,0,0,1.08-1.42,8.32,8.32,0,0,0,.29,1.74c1,3.38,2.32,5.16,3.91,5.16h0a2.46,2.46,0,0,0,.59-.08c1.28-.37,2.51-1.83,1.11-6.69a7.82,7.82,0,0,0-.69-1.64,8.7,8.7,0,0,0,1.65.62,14.46,14.46,0,0,0,3.37.48c2.33,0,3.07-1,3.28-1.84C63.89,259.88,63.91,258.76,62.39,257.71Zm-7.33-5.84c2.23-2.31,3.38-2.49,3.68-2.49a.56.56,0,0,1,.41.15c.23.23.22.65,0,1.27A10.51,10.51,0,0,1,57,253.7a6.8,6.8,0,0,1-2.08,1.45A4.14,4.14,0,0,0,53.7,254,6.68,6.68,0,0,1,55.06,251.87Zm-6.57-5,.14,0c.61,0,1.58,1.24,2.38,4a7.08,7.08,0,0,1,.22,2.45,4.39,4.39,0,0,0-.82.14,4,4,0,0,0-.82.35,6.69,6.69,0,0,1-1.12-2.21C47.61,248.62,47.88,247.07,48.49,246.89Zm-3.55,10.29a11,11,0,0,1-3.35-1.32q-.83-.57-.72-1.05c.14-.55,1.14-.63,1.73-.63a12.83,12.83,0,0,1,3,.44,6.78,6.78,0,0,1,2.29,1.06,3.79,3.79,0,0,0-.36,1.62A6.87,6.87,0,0,1,44.94,257.18ZM48,263c-2.23,2.31-3.38,2.49-3.68,2.49a.54.54,0,0,1-.41-.15c-.23-.23-.22-.65,0-1.27a10.51,10.51,0,0,1,2.14-2.9,7.11,7.11,0,0,1,2.17-1.5,4,4,0,0,0,1.16,1.06A6.81,6.81,0,0,1,48,263Zm3.49-3.45a2.29,2.29,0,1,1,.63-.09,2.18,2.18,0,0,1-.63.09ZM54.58,268a.34.34,0,0,1-.14,0c-.61,0-1.58-1.23-2.37-4a6.79,6.79,0,0,1-.2-2.68,4.06,4.06,0,0,0,.76-.14,3.41,3.41,0,0,0,.71-.29,6.86,6.86,0,0,1,1.26,2.38C55.46,266.27,55.2,267.82,54.58,268Zm5.89-7.28a12.83,12.83,0,0,1-3-.44,7,7,0,0,1-2.39-1.14,3.92,3.92,0,0,0,.41-1.54,7.13,7.13,0,0,1,2.62.12A10.79,10.79,0,0,1,61.48,259c.56.38.79.73.72,1.05C62.06,260.62,61.06,260.71,60.47,260.71Z"/>
    </g>
    <g>
      <path class="cls-1" d="M53.79,168v-9.1a2.39,2.39,0,0,0,1.79-2.32v-.41a2.4,2.4,0,0,0-2.4-2.39H53v-1.3a2.14,2.14,0,0,0-2.14-2.14H48.51a2.14,2.14,0,0,0-2.14,2.14v1.3H46.2a2.4,2.4,0,0,0-2.4,2.39v.41a2.39,2.39,0,0,0,1.79,2.32V168a8.49,8.49,0,0,0-5.38,7.73v39.8a2.14,2.14,0,0,0,2.14,2.14H57a2.15,2.15,0,0,0,2.15-2.14v-39.8A8.49,8.49,0,0,0,53.79,168Zm-5.55-15.52a.27.27,0,0,1,.27-.27h2.36a.27.27,0,0,1,.27.27v1.28h-2.9Zm9.06,63.05a.28.28,0,0,1-.28.27H42.35a.27.27,0,0,1-.27-.27v-39.8a6.74,6.74,0,0,1,4.76-6.21.94.94,0,0,0,.62-.88V158a.94.94,0,0,0-.94-.94H46.2a.53.53,0,0,1-.53-.53v-.41a.52.52,0,0,1,.53-.52h7a.52.52,0,0,1,.52.52v.41a.52.52,0,0,1-.52.53h-.33a.94.94,0,0,0-.93.94V168.6a.93.93,0,0,0,.62.88,6.74,6.74,0,0,1,4.76,6.21Z"/>
      <path class="cls-1" d="M44.65,190.82a.93.93,0,0,0-.93.93v8.86a.93.93,0,0,0,.93.93H54.73a.93.93,0,0,0,.93-.93v-8.86a.93.93,0,0,0-.93-.93Zm9.14,8.85h-8.2v-7h8.2Z"/>
    </g>
    <g>
      <path class="cls-1" d="M94.14,330.9c.07-7,1.94-10.92,2-11a.74.74,0,0,0-.27-1,5.31,5.31,0,0,0-2.78-.84,5.77,5.77,0,0,0-4.14,2.05,5.73,5.73,0,0,0-4.13-2.05A5.31,5.31,0,0,0,82,319a.73.73,0,0,0-.27,1s1.89,3.89,2,11c-2.42,1.71-17.07,12.9-17.07,33.31,0,1.14,5.85,3.35,5.91,3.37a47.8,47.8,0,0,0,16.38,2.67,47.82,47.82,0,0,0,16.39-2.67c.06,0,5.91-2.23,5.91-3.37C111.21,343.8,96.56,332.61,94.14,330.9Zm-10.81-11a3.69,3.69,0,0,1,1.45-.32c2.09,0,3.5,2.13,3.51,2.16a.77.77,0,0,0,1.24,0s1.41-2.16,3.52-2.16a3.69,3.69,0,0,1,1.45.32,30.69,30.69,0,0,0-1.84,10.61h-7.5A30.77,30.77,0,0,0,83.33,319.94Zm5.58,48.84c-12.54,0-19.48-4.07-20.82-4.95.18-19.89,14.8-30.59,16.57-31.81h8.51c1.77,1.21,16.39,11.89,16.57,31.81C108.39,364.71,101.46,368.78,88.91,368.78Z"/>
      <path class="cls-1" d="M95.68,353.16a3.82,3.82,0,0,0,0,7.52,3.82,3.82,0,0,0,7.51,0,3.82,3.82,0,0,0,0-7.52,3.82,3.82,0,0,0-7.51,0Zm3.76-1.66a2.34,2.34,0,0,1,2.34,2.34.74.74,0,0,0,.74.74,2.34,2.34,0,0,1,0,4.68.74.74,0,0,0-.74.74,2.35,2.35,0,0,1-4.69,0,.73.73,0,0,0-.73-.74,2.34,2.34,0,1,1,0-4.68.73.73,0,0,0,.73-.74A2.35,2.35,0,0,1,99.44,351.5Z"/>
      <path class="cls-1" d="M95.82,356.9A2.18,2.18,0,0,0,97.36,359a2.17,2.17,0,0,0,4.16,0,2.17,2.17,0,0,0,0-4.16,2.17,2.17,0,0,0-4.16,0A2.18,2.18,0,0,0,95.82,356.9Zm2.18-.7a.74.74,0,0,0,.73-.74.7.7,0,0,1,.71-.7.7.7,0,0,1,.7.7.74.74,0,0,0,.74.74.7.7,0,0,1,.7.7.7.7,0,0,1-.7.71.74.74,0,0,0-.74.73.7.7,0,0,1-.7.71.71.71,0,0,1-.71-.71.73.73,0,0,0-.73-.73.71.71,0,0,1-.71-.71A.7.7,0,0,1,98,356.2Z"/>
    </g>
    <path class="cls-1" d="M53.41,420.5H30.49a.9.9,0,0,1-.9-.9c0-14.37-6.15-18.24-8.59-19.21l-1.44,19.28a.9.9,0,0,1-.9.83H17a.88.88,0,0,1-.88-.78l-2.7-20.8a15.72,15.72,0,0,1-1.15-1.64c-5.73-9.27,3.55-17,3.65-17.06a.89.89,0,0,1,1.36.3c3.89,7.77,14.1,8,14.2,8a.89.89,0,0,1,.87.74c0,.18,3.48,18.4,16.43,18.4a3.79,3.79,0,0,1,3.82,2.83,12.11,12.11,0,0,1,.46,3.6h.34a.89.89,0,0,1,.89.89v4.63A.89.89,0,0,1,53.41,420.5Zm-22-1.79H52.51v-2.84h-.33a.9.9,0,0,1-.9-.9v-.18a12.36,12.36,0,0,0-.37-3.74,2,2,0,0,0-2.12-1.61c-12.88,0-17.23-15.64-18-19.18-2.46-.17-10.47-1.25-14.49-7.91-2,1.95-6.47,7.5-2.46,14A14.57,14.57,0,0,0,15,398a.86.86,0,0,1,.19.46l2.66,20.27,1.47-19.57a.9.9,0,0,1,1-.82C20.79,398.4,31.05,400.38,31.38,418.71Z"/>
    <g>
      <path class="cls-1" d="M93.65,405.75a.53.53,0,0,0,0-.25l0-.2c-.52-3.68-.9-6.3-1.1-7.57,0-.13,0-.26-.05-.39l0-.12c-.18-1.27-.33-2.36-1.79-3.06a2.78,2.78,0,0,0-1.29-.25c-.32,0-.66,0-1,0h0a12.63,12.63,0,0,1-1.27.07,6.72,6.72,0,0,1-.92,0,7.44,7.44,0,0,1-.55-2.85,4.42,4.42,0,0,0,2.19-3.8,4.35,4.35,0,0,0-1-2.73,0,0,0,0,1,0,0c-.13-.24-3.45-5.88-19.78-5.88-1.13,0-2.32,0-3.53.09a.48.48,0,0,0-.2,0,5.35,5.35,0,0,0-2.91,2.95,3.72,3.72,0,0,0,.51,3,5.25,5.25,0,0,0-1.77,3.3,3.66,3.66,0,0,0,1.07,2.78,5.13,5.13,0,0,0,.25,3.78,2.91,2.91,0,0,0,2.24,1.32,1.72,1.72,0,0,0,.32,0c1.51,0,3.29-1.28,5.56-2.91,2.73-2,6.14-4.43,9.45-4.43a6.12,6.12,0,0,1,1.14.11,4.46,4.46,0,0,0,2,2.44,7.87,7.87,0,0,1-.54,2.82,7,7,0,0,1-.93,0,12.14,12.14,0,0,1-1.27-.07h0c-.36,0-.7,0-1,0a2.78,2.78,0,0,0-1.29.25c-1.46.7-1.61,1.79-1.79,3.06l0,.14c0,.12,0,.24,0,.37-.2,1.27-.58,3.89-1.1,7.57l0,.2a.53.53,0,0,0,0,.25l3,9.93L71.85,439.5A.59.59,0,0,0,72,440a.6.6,0,0,0,.45.21H94.34a.59.59,0,0,0,.45-.21.59.59,0,0,0,.13-.48l-4.27-23.82Zm-10.29-14a4.34,4.34,0,0,0,1.09-.15,7.73,7.73,0,0,0,.81,3.19.59.59,0,0,0,.4.29,8.08,8.08,0,0,0,1.42.12c.5,0,1,0,1.37-.08h0c.34,0,.64-.05.91-.05a1.83,1.83,0,0,1,.78.13c.85.41,1,.88,1.14,2.17v.05c0,.15,0,.32.07.49.31,2,1,6.76,1.1,7.61l-2.29,7.61L89.82,411l1.57-5.61a.65.65,0,0,0,0-.24l-1-6.85a.57.57,0,0,0-.31-.42.48.48,0,0,0-.09-.11,5,5,0,0,0-2.61-.78,5.51,5.51,0,0,0-4,2,5.51,5.51,0,0,0-4-2,5,5,0,0,0-2.62.78s0,.07-.09.11a.55.55,0,0,0-.3.42l-1,6.85a.65.65,0,0,0,0,.24L77,411l-.38,2.13-2.3-7.61c.12-.85.8-5.64,1.11-7.61,0-.17,0-.32.06-.47v-.07c.18-1.29.29-1.76,1.14-2.17a1.83,1.83,0,0,1,.78-.13c.27,0,.57,0,.92.05h0c.38,0,.86.08,1.37.08a8.08,8.08,0,0,0,1.42-.12.57.57,0,0,0,.4-.29,7.84,7.84,0,0,0,.81-3.17A4.42,4.42,0,0,0,83.36,391.76ZM87.6,403.9H79.17l-1.4-5.32a3.71,3.71,0,0,1,1.63-.41c2.09,0,3.48,2.12,3.49,2.14a.59.59,0,0,0,.5.25.57.57,0,0,0,.49-.25c.06-.09,1.42-2.14,3.5-2.14a3.67,3.67,0,0,1,1.62.41Zm1.05.6.94-3.56.63,4.27-.88,3.15Zm-12.1.71.63-4.27.94,3.57-.69,3.85Zm.75,10.54h0l.1-.56,1.81-10.12h8.35l1.08,6h0l.83,4.66h0L93.64,439H73.13ZM61.35,391.08l3.8-1.91a.58.58,0,0,0,.26-.78.57.57,0,0,0-.52-.33.66.66,0,0,0-.27.06L61,390a2.58,2.58,0,0,1-.69-1.82,4.41,4.41,0,0,1,1.61-2.71l3-.36a.6.6,0,0,0,.51-.66.58.58,0,0,0-.58-.51h-.07l-2.83.34a2.64,2.64,0,0,1-.46-2.14,4.13,4.13,0,0,1,2.14-2.15c1.14-.05,2.26-.07,3.33-.07,8.6,0,13.43,1.61,16,3.06a4.41,4.41,0,0,0-4.11,4.4c0,.06,0,.11,0,.16-.3,0-.61-.06-.92-.06-3.67,0-7.25,2.58-10.13,4.66l0,0c-1.9,1.37-3.7,2.67-4.83,2.67h-.18a1.74,1.74,0,0,1-1.38-.78A4.1,4.1,0,0,1,61.35,391.08Zm19.42-5.72c.23.16.53.37.89.59a2.93,2.93,0,0,1-1.56,1.34A3.24,3.24,0,0,1,80.77,385.36Zm.9-.81a3.23,3.23,0,0,1,1.69-.48,3.27,3.27,0,0,1,3.2,2.61A12.69,12.69,0,0,1,81.67,384.55Zm1,2a11.21,11.21,0,0,0,3.9,1.34,3.25,3.25,0,0,1-6.26.56A4,4,0,0,0,82.67,386.54Z"/>
      <path class="cls-1" d="M119.52,403.94l-1.62-10.37a.61.61,0,0,0-.38-.46l-6.26-2.25-.1-1.16a6.58,6.58,0,0,0,1.91-4.41v-4h0v-.21a.58.58,0,0,0-.59-.59H104a.59.59,0,0,0-.59.59v4.24a6.63,6.63,0,0,0,1.91,4.41l-.1,1.16L99,393.11a.58.58,0,0,0-.38.46L97,403.94v9a.58.58,0,0,0,.58.58h0v1a.58.58,0,0,0,.59.58h2a.59.59,0,0,0,.59-.58v-1h.09a.57.57,0,0,0,.41-.17.66.66,0,0,0,.12-.17.91.91,0,0,0,.11.16.59.59,0,0,0,.3.16l.08,24.66a.58.58,0,0,0,.58.58h.13v1a.58.58,0,0,0,.59.59h3.19a.58.58,0,0,0,.59-.59v-1h.26a.58.58,0,0,0,.59-.59s0-.07,0-.1l-.08-21.86h1l.08,22a.58.58,0,0,0,.58.58h.19v1a.58.58,0,0,0,.59.59h3.19a.58.58,0,0,0,.59-.59v-1h.19a.58.58,0,0,0,.59-.59l-.08-22.54v-2.11a.59.59,0,0,0,.3-.16.57.57,0,0,0,.11-.16.66.66,0,0,0,.12.17.58.58,0,0,0,.41.17h.07v1a.59.59,0,0,0,.59.58h2a.58.58,0,0,0,.59-.58v-1h0a.59.59,0,0,0,.59-.58V404S119.52,404,119.52,403.94Zm-6.13,33.66H110l-.08-22a.58.58,0,0,0-.58-.58h-2.2a.58.58,0,0,0-.59.59l.07,22h-3.57l-.08-22v-2.09h10.53l.08,24.05Zm-13.11-25.22H98.14v-8.3l1.56-10,2.43-.88,5.53,10.88v8.28h-5.11l.49-9.49a.37.37,0,0,0,0-.11l-.64-4.69a.58.58,0,0,0-.57-.51h0a.58.58,0,0,0-.56.5l-1,6.31s0,.06,0,.09Zm4.32-27.75,1.37-1h4.55l1.38,1v.66c0,2.07-1.69,4.62-3.65,4.62s-3.65-2.55-3.65-4.62Zm5.86-2.13H106l-.85-.86h6.13Zm-2.21,8.58a3.64,3.64,0,0,0,1.81-.51l.06.68,0,.19-1.76,1-1.93-1,0-.1.06-.68A3.64,3.64,0,0,0,108.25,391.08Zm-1.16,3.64,1.23-.93,1.14.85-1.21,6.25-1.2-6.16Zm2.53,5.25,1.54-7.9,2.09.75Zm-6.38-7.15,2.1-.75,1.53,7.9Zm11.44,4.76a.58.58,0,0,0-.58.5l-.64,4.44s0,.07,0,.12l.49,9.74h-5.11V404.1l5.53-10.88,2.43.88,1.57,10v8.31h-2.15l0-7.9a.28.28,0,0,0,0-.09l-1-6.31A.59.59,0,0,0,114.68,397.58Zm-15.93,16h.85v.38h-.85Zm5,25.22h2v.38h-2Zm7,0h2v.38h-2Zm6.08-25.22h.86v.38h-.86Zm-15.08-11.29.09.61-.42,8.14v-6.48ZM115,411l-.41-8.32.07-.48.36,2.36Z"/>
    </g>
    <g>
      <path class="cls-1" d="M64.27,491.2a1,1,0,0,1-.47-.11l-.22-.13c-1.7-1.06-7.19-4.81-6.92-8.78a5,5,0,0,1,5-5,4.37,4.37,0,0,1,2.59.9,4.32,4.32,0,0,1,2.57-.92,5.84,5.84,0,0,1,2.92.72l.08-18a1.05,1.05,0,0,1,.75-1l24.28-7.26a1.07,1.07,0,0,1,.93.17,1,1,0,0,1,.42.84v4.91h0v4.69c.09,14.09.06,14.27,0,14.36-.73,5.66-6.86,8.61-7.12,8.73a1,1,0,0,1-.88,0l-.13-.07-.12-.07c-1.7-1.06-7.19-4.8-6.93-8.78a5.08,5.08,0,0,1,5-5h0a4.3,4.3,0,0,1,2.57.91,4.32,4.32,0,0,1,2.57-.92,9,9,0,0,1,2.83.45l0-9.63c0-1.13,0-2.24,0-3.3l-22.12,6.41c0,2.82,0,9.59-.1,13.95v2.11a1.11,1.11,0,0,1,0,.19c0,.9,0,1.49,0,1.62-.51,4.7-6.79,7.72-7,7.85A1.22,1.22,0,0,1,64.27,491.2Zm-2.59-11.88h0a3,3,0,0,0-2.91,3c-.15,2.26,3.26,5.11,5.56,6.61,1.76-.95,5.07-3.26,5.35-5.91,0-.14,0-.79,0-1.78s-1-1.93-2.89-1.93a2.25,2.25,0,0,0-1.71.91,1.1,1.1,0,0,1-.52.38,1.09,1.09,0,0,1-1.2-.38A2.24,2.24,0,0,0,61.68,479.32Zm24.4-5.75h0a3,3,0,0,0-2.91,3c-.15,2.26,3.25,5.1,5.55,6.6,1.33-.76,5-3.15,5.43-6.83v-2a5.14,5.14,0,0,0-2.91-.74h0a2.24,2.24,0,0,0-1.72.91,1,1,0,0,1-.85.44h0a1.07,1.07,0,0,1-.85-.43A2.21,2.21,0,0,0,86.08,473.57ZM71.92,460.7v2.5l22.18-6.43v-2.7Z"/>
      <path class="cls-1" d="M95.59,515a1.07,1.07,0,0,1-.52-.14l-.22-.13c-2.25-1.41-9.54-6.37-9.19-11.54a6.49,6.49,0,0,1,6.4-6.38h0a5.47,5.47,0,0,1,3.49,1.34A5.88,5.88,0,0,1,99,496.76a6.31,6.31,0,0,1,4.54,1.4l-.08-30.64.11-1.1a1.08,1.08,0,0,1,1.1-.95,1.05,1.05,0,0,1,1,1v1.41a12.35,12.35,0,0,0,5.37,3.44c2.55,1,5.18,2.12,6.38,5.49a1,1,0,0,1,.06.35v12a1,1,0,0,1-1,1,1,1,0,0,1-1.12-.89c-.94-5.88-3.92-7.55-6.81-9.17a19.16,19.16,0,0,1-2.92-1.89v18.82c0,.44,0,.88,0,1.33,0,.88,0,1.77,0,2.66v.29a.88.88,0,0,1,0,.17c0,.31,0,.59,0,.84,0,2.06-.07,2.91-1.08,4.5a23.31,23.31,0,0,1-5.5,5.91,29,29,0,0,1-2.89,2A1.06,1.06,0,0,1,95.59,515Zm-3.51-16.08h0a4.39,4.39,0,0,0-4.31,4.41c-.2,3.08,4,6.91,7.83,9.37.65-.42,1.34-.92,2.14-1.54a21.24,21.24,0,0,0,5-5.38c.7-1.1.71-1.45.75-3.42,0-.24,0-.5,0-.78a4.44,4.44,0,0,0-4.4-2.68,3.66,3.66,0,0,0-2.7,1.4,1.09,1.09,0,0,1-1.71,0A3.36,3.36,0,0,0,92.08,498.88Zm13.5-24.14c.68,1.7,2.15,2.53,4,3.57a14.68,14.68,0,0,1,5.75,4.84V477.4c-.9-2.35-2.78-3.12-5.13-4.08a17.39,17.39,0,0,1-4.67-2.52Z"/>
    </g>
    <path class="cls-1" d="M94.19,95.12a3.73,3.73,0,0,0,0-.59A5.21,5.21,0,0,0,85,91.24a5.2,5.2,0,0,0-9.23,3.29,3.89,3.89,0,0,0,0,.53c.45,6.11,8.16,12.08,8.49,12.33a1.17,1.17,0,0,0,1.42,0C86,107.14,93.75,101.17,94.19,95.12ZM85,104.94c-1.83-1.56-6.57-6-6.87-10.12a2.83,2.83,0,0,1,0-.29,2.86,2.86,0,1,1,5.72,0,1.17,1.17,0,1,0,2.34,0,2.86,2.86,0,0,1,5.72,0,2.7,2.7,0,0,1,0,.37C91.56,99,86.82,103.38,85,104.94Z"/>
    <path class="cls-1" d="M79.53,299.69a5.74,5.74,0,0,0,0-.6,5.2,5.2,0,0,0-9.23-3.28,5.2,5.2,0,0,0-9.24,3.29,3.89,3.89,0,0,0,0,.53c.45,6.11,8.17,12.07,8.5,12.32A1.13,1.13,0,0,0,71,312C71.37,311.7,79.08,305.74,79.53,299.69Zm-9.2,9.81c-1.83-1.55-6.57-6-6.88-10.11a2.81,2.81,0,0,1,0-.29,2.86,2.86,0,1,1,5.71,0,1.18,1.18,0,0,0,2.35,0,2.86,2.86,0,0,1,5.72,0,3.15,3.15,0,0,1,0,.37C76.89,303.55,72.16,308,70.33,309.5Z"/>
    <path class="cls-1" d="M49.42,369.66a5.54,5.54,0,0,0,0-.59,5.21,5.21,0,0,0-9.24-3.29A5.2,5.2,0,0,0,31,369.07a3.89,3.89,0,0,0,0,.53c.45,6.11,8.16,12.08,8.49,12.33a1.19,1.19,0,0,0,1.43,0C41.26,381.68,49,375.71,49.42,369.66Zm-9.21,9.82c-1.82-1.56-6.56-6-6.87-10.11,0-.1,0-.2,0-.3a2.86,2.86,0,1,1,5.71,0,1.18,1.18,0,1,0,2.35,0,2.86,2.86,0,1,1,5.71,0,2.62,2.62,0,0,1,0,.37C46.78,373.53,42.05,377.93,40.21,379.48Z"/>
    <path class="cls-1" d="M75.93,230.51a3,3,0,0,0,0-.43,3.74,3.74,0,0,0-6.64-2.36,3.73,3.73,0,0,0-6.63,2.36,3.63,3.63,0,0,0,0,.38c.33,4.39,5.87,8.68,6.1,8.86a.87.87,0,0,0,.51.17.9.9,0,0,0,.52-.17C70.07,239.14,75.61,234.85,75.93,230.51Zm-6.61,7.05c-1.31-1.12-4.71-4.29-4.93-7.27a1.48,1.48,0,0,1,0-.21,2,2,0,1,1,4.1,0,.85.85,0,1,0,1.69,0,2.05,2.05,0,0,1,4.1,0c0,.08,0,.15,0,.27C74,233.28,70.64,236.44,69.32,237.56Z"/>
    <path class="cls-1" d="M36.61,147.88a2.82,2.82,0,0,0,0-.42A3.73,3.73,0,0,0,30,145.1a3.73,3.73,0,0,0-6.63,2.36,3.63,3.63,0,0,0,0,.38c.32,4.39,5.86,8.68,6.1,8.86a.85.85,0,0,0,1,0C30.75,156.52,36.29,152.23,36.61,147.88ZM30,154.94c-1.31-1.12-4.71-4.29-4.94-7.27,0-.07,0-.14,0-.21a2.06,2.06,0,0,1,4.11,0,.84.84,0,0,0,1.68,0,2.06,2.06,0,0,1,4.11,0,1.42,1.42,0,0,1,0,.27C34.72,150.66,31.32,153.82,30,154.94Z"/>
    <path class="cls-1" d="M27.09,37.88a3,3,0,0,0,0-.43,3.74,3.74,0,0,0-6.64-2.36,3.73,3.73,0,0,0-6.63,2.36,3.63,3.63,0,0,0,0,.38c.32,4.39,5.87,8.68,6.1,8.86a.87.87,0,0,0,.51.17.92.92,0,0,0,.52-.17C21.23,46.51,26.77,42.22,27.09,37.88Zm-6.61,7c-1.31-1.12-4.71-4.29-4.93-7.27a1.48,1.48,0,0,1,0-.21,2,2,0,1,1,4.1,0,.85.85,0,1,0,1.69,0,2,2,0,1,1,4.1,0c0,.07,0,.14,0,.26C25.2,40.65,21.8,43.81,20.48,44.93Z"/>
    <path class="cls-1" d="M107.28,300.63a2.82,2.82,0,0,0,0-.42,3.73,3.73,0,0,0-6.63-2.36A3.73,3.73,0,0,0,94,300.21a2.12,2.12,0,0,0,0,.38c.32,4.39,5.86,8.67,6.1,8.85a.81.81,0,0,0,1,0C101.42,309.26,107,305,107.28,300.63Zm-6.61,7.05c-1.31-1.11-4.72-4.28-4.94-7.26a1.48,1.48,0,0,1,0-.21,2.06,2.06,0,0,1,4.11,0,.84.84,0,1,0,1.68,0,2.06,2.06,0,0,1,4.11,0,1.42,1.42,0,0,1,0,.27C105.39,303.41,102,306.57,100.67,307.68Z"/>
    <path class="cls-1" d="M39.41,482.12a2.82,2.82,0,0,0,0-.42,3.73,3.73,0,0,0-6.63-2.36,3.73,3.73,0,0,0-6.63,2.36,3.79,3.79,0,0,0,0,.38c.32,4.39,5.86,8.67,6.1,8.85a.81.81,0,0,0,1,0C33.55,490.75,39.09,486.47,39.41,482.12Zm-6.61,7.05c-1.31-1.11-4.71-4.28-4.94-7.26,0-.07,0-.14,0-.21a2.06,2.06,0,0,1,4.11,0,.84.84,0,0,0,1.68,0,2.06,2.06,0,0,1,4.11,0,1.42,1.42,0,0,1,0,.27C37.52,484.9,34.12,488.06,32.8,489.17Z"/>
    <path class="cls-1" d="M24.13,188.16a.75.75,0,0,0,.41-.12.83.83,0,0,0,.37-.49,8.94,8.94,0,0,0-1-6.26,8,8,0,0,0-1.09-1.4,8.29,8.29,0,0,0,1.62.18h.16a8.91,8.91,0,0,0,5.84-2.48.85.85,0,0,0,.22-.57.77.77,0,0,0-.25-.56,8.93,8.93,0,0,0-5.77-2.23h-.16a8,8,0,0,0-1.74.24,7.59,7.59,0,0,0,1-1.45,8.86,8.86,0,0,0,.78-6.29.79.79,0,0,0-.38-.48.86.86,0,0,0-.61-.07,8.93,8.93,0,0,0-4.9,4,8.09,8.09,0,0,0-.67,1.63,8.45,8.45,0,0,0-.73-1.62,9,9,0,0,0-5.06-3.82.81.81,0,0,0-1,.59,8.91,8.91,0,0,0,1,6.26,8.44,8.44,0,0,0,1.09,1.39,8.9,8.9,0,0,0-1.61-.17h-.17a8.89,8.89,0,0,0-5.83,2.47.79.79,0,0,0,0,1.13,8.86,8.86,0,0,0,5.77,2.24h.16a8.21,8.21,0,0,0,1.76-.25,8,8,0,0,0-1,1.45,9,9,0,0,0-.78,6.3.81.81,0,0,0,.38.47.76.76,0,0,0,.39.1.83.83,0,0,0,.22,0,9,9,0,0,0,4.74-3.75V219a.8.8,0,0,0,1.6,0V184.36a8.94,8.94,0,0,0,5,3.77A.58.58,0,0,0,24.13,188.16Zm.34-12.33h.13a7.24,7.24,0,0,1,3.94,1.24,7.3,7.3,0,0,1-4,1.4H24.4A6.84,6.84,0,0,1,22,178a4,4,0,0,0,0-1.66A7.07,7.07,0,0,1,24.47,175.83ZM20,171a7.14,7.14,0,0,1,3.11-2.9,7.13,7.13,0,0,1-.8,4.17,6.69,6.69,0,0,1-1.57,1.9,4,4,0,0,0-.73-.51,4.06,4.06,0,0,0-.77-.33A6.8,6.8,0,0,1,20,171Zm-7.39-2.7a7.2,7.2,0,0,1,3.22,2.77,6.67,6.67,0,0,1,.86,2.35,4,4,0,0,0-1.41.9,7,7,0,0,1-1.71-1.88A7.22,7.22,0,0,1,12.62,168.28Zm-1,10.43h-.13a7.33,7.33,0,0,1-3.94-1.24,7.25,7.25,0,0,1,4-1.4h.13a6.68,6.68,0,0,1,2.44.47,3.83,3.83,0,0,0,.07,1.58A7,7,0,0,1,11.61,178.71Zm4.46,4.85a7.3,7.3,0,0,1-3.1,2.9,7.2,7.2,0,0,1,.79-4.18,7,7,0,0,1,1.75-2,4,4,0,0,0,.64.44,4.45,4.45,0,0,0,.71.3A7,7,0,0,1,16.07,183.56Zm2-4.16a2.3,2.3,0,0,1-1.1-.28,2.29,2.29,0,1,1,1.1.28Zm5.35,6.86a7.16,7.16,0,0,1-3.21-2.78,6.89,6.89,0,0,1-.9-2.52,4,4,0,0,0,1.37-.78,6.94,6.94,0,0,1,1.78,1.94A7.22,7.22,0,0,1,23.46,186.26Z"/>
    <path class="cls-1" d="M103.05,23.63a.79.79,0,0,0,.42-.12.81.81,0,0,0,.36-.49,8.94,8.94,0,0,0-1-6.26,7.53,7.53,0,0,0-1.08-1.39,8.1,8.1,0,0,0,1.62.17h.16a8.89,8.89,0,0,0,5.83-2.47.78.78,0,0,0,.22-.58.8.8,0,0,0-.24-.56,9,9,0,0,0-5.77-2.23h-.17a8.67,8.67,0,0,0-1.74.24,7.65,7.65,0,0,0,1-1.45,9,9,0,0,0,.78-6.29.86.86,0,0,0-.38-.48.83.83,0,0,0-.62-.06,8.92,8.92,0,0,0-4.9,4,8.69,8.69,0,0,0-.66,1.63,7.59,7.59,0,0,0-.74-1.61,8.84,8.84,0,0,0-5.06-3.82.8.8,0,0,0-1,.59,8.91,8.91,0,0,0,1,6.25,8.44,8.44,0,0,0,1.08,1.4,8.1,8.1,0,0,0-1.61-.18h-.16a9,9,0,0,0-5.84,2.47.78.78,0,0,0-.22.58.8.8,0,0,0,.24.56,9,9,0,0,0,5.78,2.23h.16a7.54,7.54,0,0,0,1.75-.25,8.63,8.63,0,0,0-1,1.46,9,9,0,0,0-.78,6.29.81.81,0,0,0,.39.48.86.86,0,0,0,.38.1.93.93,0,0,0,.23,0,8.92,8.92,0,0,0,4.73-3.75V54.52a.8.8,0,0,0,1.6,0V19.83a9,9,0,0,0,5,3.78Zm.35-12.33h.13a7.23,7.23,0,0,1,3.93,1.24,7.24,7.24,0,0,1-4,1.4h-.12a6.89,6.89,0,0,1-2.41-.45,3.83,3.83,0,0,0,0-1.65A6.92,6.92,0,0,1,103.4,11.3ZM98.94,6.45a7.25,7.25,0,0,1,3.1-2.9,7.18,7.18,0,0,1-.79,4.17,6.9,6.9,0,0,1-1.58,1.9A3.61,3.61,0,0,0,99,9.11a4.64,4.64,0,0,0-.77-.32A6.64,6.64,0,0,1,98.94,6.45Zm-7.4-2.7a7.28,7.28,0,0,1,3.22,2.77,7,7,0,0,1,.87,2.36,3.93,3.93,0,0,0-1.41.89,6.72,6.72,0,0,1-1.71-1.88A7.14,7.14,0,0,1,91.54,3.75Zm-1,10.43h-.12a7.21,7.21,0,0,1-3.94-1.24,7.21,7.21,0,0,1,4-1.4h.13a6.9,6.9,0,0,1,2.44.47,4,4,0,0,0,.07,1.58A7,7,0,0,1,90.53,14.18ZM95,19a7.2,7.2,0,0,1-3.1,2.9,7.25,7.25,0,0,1,.79-4.17,6.92,6.92,0,0,1,1.76-2.05,3.16,3.16,0,0,0,.64.44,4.12,4.12,0,0,0,.71.31A7,7,0,0,1,95,19Zm2-4.16a2.25,2.25,0,0,1-1.1-.28,2.28,2.28,0,1,1,3.1-.9A2.27,2.27,0,0,1,97,14.87Zm5.36,6.86A7.19,7.19,0,0,1,99.17,19a6.75,6.75,0,0,1-.89-2.53,4,4,0,0,0,1.36-.77,6.93,6.93,0,0,1,1.79,1.93A7.23,7.23,0,0,1,102.39,21.73Z"/>
    <path class="cls-1" d="M112.42,542.12a.88.88,0,0,0,.42-.11.8.8,0,0,0,.36-.5,8.91,8.91,0,0,0-1-6.25,8.44,8.44,0,0,0-1.08-1.4,8.12,8.12,0,0,0,1.62.18h.15a8.89,8.89,0,0,0,5.84-2.47.76.76,0,0,0,.22-.57.8.8,0,0,0-.24-.56,9,9,0,0,0-5.77-2.23h-.17a8,8,0,0,0-1.74.24,8.34,8.34,0,0,0,1-1.45,9,9,0,0,0,.78-6.29.82.82,0,0,0-1-.55,8.94,8.94,0,0,0-4.9,4,8.3,8.3,0,0,0-.66,1.63,8.13,8.13,0,0,0-.74-1.61,9,9,0,0,0-5.06-3.82.82.82,0,0,0-.61.09.83.83,0,0,0-.36.5,8.91,8.91,0,0,0,1,6.25,7.59,7.59,0,0,0,1.08,1.4,8.08,8.08,0,0,0-1.61-.17h-.16A8.89,8.89,0,0,0,94,530.91a.76.76,0,0,0-.22.57A.8.8,0,0,0,94,532a9,9,0,0,0,5.77,2.24h.17a8.1,8.1,0,0,0,1.75-.24,8.18,8.18,0,0,0-1,1.45,8.92,8.92,0,0,0-.78,6.29.78.78,0,0,0,.39.48.75.75,0,0,0,.38.1.91.91,0,0,0,.23,0,9,9,0,0,0,4.73-3.75V573a.8.8,0,0,0,1.6,0V538.33a8.94,8.94,0,0,0,5,3.77Zm.35-12.32h.13a7.32,7.32,0,0,1,3.93,1.24,7.27,7.27,0,0,1-4,1.41h-.12a6.89,6.89,0,0,1-2.41-.45,3.87,3.87,0,0,0,0-1.66A6.9,6.9,0,0,1,112.77,529.8ZM108.3,525a7.29,7.29,0,0,1,3.11-2.91,7.22,7.22,0,0,1-.79,4.18,7.05,7.05,0,0,1-1.58,1.9,4.12,4.12,0,0,0-.72-.52,4.64,4.64,0,0,0-.77-.32A6.72,6.72,0,0,1,108.3,525Zm-7.39-2.7a7.15,7.15,0,0,1,3.22,2.77,6.89,6.89,0,0,1,.87,2.35,4.21,4.21,0,0,0-1.42.89,6.66,6.66,0,0,1-1.7-1.87A7.17,7.17,0,0,1,100.91,522.25Zm-1,10.42h-.13a7.36,7.36,0,0,1-3.94-1.24,7.13,7.13,0,0,1,4-1.4H100a6.88,6.88,0,0,1,2.44.46,4.06,4.06,0,0,0,.07,1.59A6.79,6.79,0,0,1,99.9,532.67Zm4.46,4.85a7.17,7.17,0,0,1-3.1,2.91,7.28,7.28,0,0,1,.79-4.18,7,7,0,0,1,1.75-2,5.58,5.58,0,0,0,.64.44,4.55,4.55,0,0,0,.72.3A6.91,6.91,0,0,1,104.36,537.52Zm2-4.15a2.36,2.36,0,0,1-1.1-.28,2.29,2.29,0,0,1,1.1-4.29,2.33,2.33,0,0,1,1.1.28,2.29,2.29,0,0,1-1.1,4.29Zm5.36,6.86a7.22,7.22,0,0,1-3.22-2.78,6.7,6.7,0,0,1-.89-2.52,4,4,0,0,0,1.36-.78,6.65,6.65,0,0,1,1.78,1.94A7.14,7.14,0,0,1,111.76,540.23Z"/>
  </g>
</svg>
