<svg id="Calque_1" data-name="Calque 1" xmlns="http://www.w3.org/2000/svg" viewBox="0 0 212.04 209.33">
  <defs>
    <style>
      .cls-1 {
        fill: #fff;
      }
    </style>
  </defs>
  <g>
    <path class="cls-1" d="M141.85,69c-.8-.8,12.17-15.07,29-31.87s31.08-29.77,31.88-29-12.18,15.07-29,31.87S142.65,69.82,141.85,69Z"/>
    <path class="cls-1" d="M146.55,73.15c-.32-.78,12.61-7,28.9-13.84s29.75-11.81,30.07-11-12.61,7-28.89,13.84S146.88,73.92,146.55,73.15Z"/>
    <path class="cls-1" d="M139,65.51c-.78-.29,3.59-14,9.78-30.51S160.62,5.27,161.41,5.56s-3.59,14-9.78,30.51S139.78,65.8,139,65.51Z"/>
    <path class="cls-1" d="M136.21,77.46A2.74,2.74,0,1,1,139,74.72,2.74,2.74,0,0,1,136.21,77.46Z"/>
    <path class="cls-1" d="M149.52,81.71c7.27-.79,14.77,1.33,21.42,4.81a45.18,45.18,0,0,1,16.64,15.56c.55.81,1,1.68,1.47,2.52a28.53,28.53,0,0,1,1.38,2.64,35.74,35.74,0,0,1,2,5.7,38,38,0,0,1,1.11,12,37.53,37.53,0,0,1-8.94,22.41,26.83,26.83,0,0,1-4.92,4.29,20.93,20.93,0,0,1-6.13,2.87,21.48,21.48,0,0,1-13.42-.23,18.63,18.63,0,0,1-10.26-9A19.18,19.18,0,0,1,147.8,139a21.91,21.91,0,0,1,0-6.52,15.48,15.48,0,0,1,7.14-11.19,17.52,17.52,0,0,1,12.36-2,11.79,11.79,0,0,1,5.76,3,8.73,8.73,0,0,1,2.75,5.79,7.14,7.14,0,0,1-2.25,5.67,8,8,0,0,1-5.24,1.9,7.7,7.7,0,0,0,4.16-2.87,5.11,5.11,0,0,0,.71-4.32,6.57,6.57,0,0,0-6.53-4.47,12.22,12.22,0,0,0-8.19,2.54,9,9,0,0,0-3.26,6.83,13.92,13.92,0,0,0,.5,4.18,11.73,11.73,0,0,0,1.56,3.73,10.19,10.19,0,0,0,2.56,2.82,9.51,9.51,0,0,0,3.3,1.7,12.55,12.55,0,0,0,7.72-.23,14.46,14.46,0,0,0,6.68-4.51,30.54,30.54,0,0,0,7-16.77,32.76,32.76,0,0,0-.29-9.38,34.73,34.73,0,0,0-3.12-9,45,45,0,0,0-12.72-15.33A44,44,0,0,0,149.52,81.71Z"/>
    <path class="cls-1" d="M128.14,57.26a44,44,0,0,0-8.73-18.89,45,45,0,0,0-15.33-12.72,34.79,34.79,0,0,0-9-3.12,32.83,32.83,0,0,0-9.39-.29,30.6,30.6,0,0,0-16.77,7A14.49,14.49,0,0,0,64.39,36a12.62,12.62,0,0,0-.23,7.72,9.51,9.51,0,0,0,1.7,3.3,10.19,10.19,0,0,0,2.82,2.56,11.73,11.73,0,0,0,3.73,1.56,14,14,0,0,0,4.18.5,9,9,0,0,0,6.83-3.26A12.23,12.23,0,0,0,86,40.16a6.57,6.57,0,0,0-4.47-6.53,5.14,5.14,0,0,0-4.32.7A7.77,7.77,0,0,0,74.3,38.5a8,8,0,0,1,1.91-5.24A7.11,7.11,0,0,1,81.87,31a8.69,8.69,0,0,1,5.79,2.75,11.79,11.79,0,0,1,3,5.76,17.47,17.47,0,0,1-2,12.36A15.48,15.48,0,0,1,77.39,59a21.91,21.91,0,0,1-6.52,0,19.18,19.18,0,0,1-6.33-2.09,18.63,18.63,0,0,1-9-10.26,21.48,21.48,0,0,1-.23-13.42,21.18,21.18,0,0,1,2.87-6.13,26.5,26.5,0,0,1,4.3-4.92,37.47,37.47,0,0,1,22.4-8.94,37.92,37.92,0,0,1,12,1.11,35.74,35.74,0,0,1,5.7,2,28.48,28.48,0,0,1,2.64,1.37c.84.5,1.71.93,2.52,1.48a45.1,45.1,0,0,1,15.56,16.64C126.82,42.49,128.93,50,128.14,57.26Z"/>
    <path class="cls-1" d="M133.38,80.92c-3.49,5.48-7,10.75-10.08,16.17a126.23,126.23,0,0,0-8.06,16.7,119.6,119.6,0,0,0-5.38,17.71c-1.36,6.08-2.28,12.31-3.28,18.74a62.42,62.42,0,0,1-1.34-19.44,67.19,67.19,0,0,1,4.43-19.2,69.11,69.11,0,0,1,9.77-17.1A66.94,66.94,0,0,1,133.38,80.92Z"/>
    <path class="cls-1" d="M138.65,84.55a99.35,99.35,0,0,0-10.24,26,73.19,73.19,0,0,0-1.8,13.51,52.47,52.47,0,0,0,1.08,13.33,36.53,36.53,0,0,0,13.24,22.1c7,5.51,16.14,8.2,25.55,9.58-9.41,1.1-19.67-.25-28.23-5.76a35.94,35.94,0,0,1-10.76-10.65,42.81,42.81,0,0,1-5.65-14,57.44,57.44,0,0,1,2.09-29.33A64.51,64.51,0,0,1,138.65,84.55Z"/>
    <path class="cls-1" d="M129.66,76.77a66.23,66.23,0,0,1-14.82,12.62,69,69,0,0,1-17.93,8.13,67.47,67.47,0,0,1-19.54,2.63A62.49,62.49,0,0,1,58.14,97c6.5-.39,12.79-.73,19-1.51a120,120,0,0,0,18.14-3.71,125.85,125.85,0,0,0,17.37-6.46C118.31,82.72,123.88,79.74,129.66,76.77Z"/>
    <path class="cls-1" d="M126.54,71.19a64.62,64.62,0,0,1-26,12.36,57.38,57.38,0,0,1-29.39-.66A42.67,42.67,0,0,1,57.74,76a36,36,0,0,1-9.61-11.7c-4.68-9-5.07-19.38-3.1-28.64.5,9.49,2.33,18.83,7.16,26.32A36.49,36.49,0,0,0,73,77.18,52.5,52.5,0,0,0,86.13,79.5,73.2,73.2,0,0,0,99.75,79,99.16,99.16,0,0,0,126.54,71.19Z"/>
    <path class="cls-1" d="M185.24,157.33a9.89,9.89,0,0,1-4.44,3.18v44.8h4.44Z"/>
    <path class="cls-1" d="M54.08,25.14a9.89,9.89,0,0,0-3.18,4.44H6.1V25.14Z"/>
  </g>
</svg>
