<svg id="Calque_1" data-name="Calque 1" xmlns="http://www.w3.org/2000/svg" viewBox="0 0 215.82 216.19">
  <defs>
    <style>
      .cls-1 {
        fill: #19af97;
        opacity: 0.67;
      }

      .cls-2 {
        fill: #fff;
      }

      .cls-3 {
        fill: #072620;
      }
    </style>
  </defs>
  <circle class="cls-1" cx="108.02" cy="107.77" r="106.17"/>
  <g>
    <path class="cls-2" d="M125.8,123.33A143.89,143.89,0,0,1,109,135.71c-1.1-.71-3-1.92-5.38-3.56l-2.51-1.77c-1.33-1-2.74-2-4.18-3.13-.76-.6-1.52-1.22-2.28-1.84a92.4,92.4,0,0,1-12.16-11.7c-.68-.79-1.3-1.61-1.89-2.43s-1.1-1.49-1.61-2.22c-.67-1.08-1.29-2.12-1.86-3.16a23.75,23.75,0,0,1-1.46-3.25,18.44,18.44,0,0,1-1.19-7.3v-.26c.82-11.22,9.11-19.4,19.74-19.43h0A16,16,0,0,1,106.67,82,2.84,2.84,0,0,0,109,83.16,2.71,2.71,0,0,0,111.21,82a16.28,16.28,0,0,1,12.41-6.4h0c10.66,0,19,8.17,19.77,19.48.62,8.75-6.57,18-14.69,25.59C127.77,121.58,126.78,122.45,125.8,123.33Z"/>
    <g>
      <path class="cls-3" d="M185.17,97.45a2.78,2.78,0,0,0,1.47-2,3.91,3.91,0,0,0,.05-.48v96.2a3,3,0,0,0-1.29-2.34L181.05,186V100.16Z"/>
      <path class="cls-3" d="M186.64,191.71a4.4,4.4,0,0,0,.05-.51A1.77,1.77,0,0,1,186.64,191.71Z"/>
      <path class="cls-3" d="M186.64,94.49l-.09-.34A.72.72,0,0,1,186.64,94.49Z"/>
      <path class="cls-3" d="M186.64,191.71a.76.76,0,0,1-.06.25,1,1,0,0,1-.11.28A1.93,1.93,0,0,0,186.64,191.71Z"/>
      <path class="cls-3" d="M186.33,93.56a4,4,0,0,0-.26-.37A1,1,0,0,1,186.33,93.56Z"/>
      <path class="cls-3" d="M185.88,193.14c.11-.11.19-.25.31-.36A2.37,2.37,0,0,1,185.88,193.14Z"/>
      <path class="cls-3" d="M186.07,93.19a4,4,0,0,0-.34-.37A2,2,0,0,1,186.07,93.19Z"/>
      <path class="cls-3" d="M185.45,193.48l.43-.34A2.06,2.06,0,0,1,185.45,193.48Z"/>
      <path class="cls-3" d="M185.73,92.82a2.28,2.28,0,0,0-.39-.28A1.33,1.33,0,0,1,185.73,92.82Z"/>
      <path class="cls-3" d="M183.87,194a2.73,2.73,0,0,0,1.58-.48,2.62,2.62,0,0,1-1.58.51H33.43a2.6,2.6,0,0,1-1.58-.51,2.78,2.78,0,0,0,1.58.48Z"/>
      <path class="cls-3" d="M185.73,92.82a4,4,0,0,1,.34.37,4,4,0,0,1,.26.37,4.25,4.25,0,0,1,.22.5v.09l.09.34a2.94,2.94,0,0,1,.05.45,3.91,3.91,0,0,1-.05.48,2.78,2.78,0,0,1-1.47,2l-4.12,2.71v-2.4H174.4l4.42-2.91-3.94-2.73h9a2.54,2.54,0,0,1,1.44.42h0A2.28,2.28,0,0,1,185.73,92.82Z"/>
      <path class="cls-3" d="M178.82,94.85l-4.42,2.91h-26a21.84,21.84,0,0,0-.25-5.64h26.71Z"/>
      <polygon class="cls-3" points="174.25 188.35 43.22 188.35 43.28 188.32 174.2 188.32 174.25 188.35"/>
      <path class="cls-3" d="M148.39,97.76h0c-.08.68-.17,1.35-.31,2C148.22,99.11,148.34,98.44,148.39,97.76Z"/>
      <path class="cls-3" d="M147.74,101.48c.14-.56.26-1.13.37-1.69A17,17,0,0,1,147.74,101.48Z"/>
      <path class="cls-3" d="M146.22,105.8A29.14,29.14,0,0,0,147.6,102,29.14,29.14,0,0,1,146.22,105.8Z"/>
      <path class="cls-3" d="M145.29,107.77c.34-.65.65-1.3.93-2A14.59,14.59,0,0,1,145.29,107.77Z"/>
      <path class="cls-3" d="M144.5,109.27c.28-.51.54-1,.79-1.5A16.47,16.47,0,0,1,144.5,109.27Z"/>
      <path class="cls-3" d="M144.05,110.06a1,1,0,0,1,.2-.31A1,1,0,0,0,144.05,110.06Z"/>
      <path class="cls-3" d="M140.35,115.42c.48-.63,1-1.25,1.41-1.87C141.31,114.2,140.86,114.79,140.35,115.42Z"/>
      <path class="cls-3" d="M138.89,117.25c.45-.54.87-1.07,1.3-1.61C139.79,116.18,139.34,116.71,138.89,117.25Z"/>
      <path class="cls-3" d="M138.89,117.25c-1.24,1.49-2.57,3-3.92,4.34C136.32,120.18,137.65,118.74,138.89,117.25Z"/>
      <path class="cls-3" d="M132.4,124.13c.54-.54,1.1-1,1.64-1.58C133.5,123.09,132.94,123.62,132.4,124.13Z"/>
      <path class="cls-3" d="M127.35,128.67,174.4,97.76h6.65v2.4l-66.11,43.37L111,141a3.11,3.11,0,0,0-.45-.22A144.5,144.5,0,0,0,129,127.26C128.42,127.77,127.89,128.22,127.35,128.67Z"/>
      <path class="cls-3" d="M125.18,123.09c1-.88,2-1.75,2.93-2.65C127.16,121.34,126.17,122.21,125.18,123.09Z"/>
      <path class="cls-3" d="M110.57,140.8l-.68.39a2.82,2.82,0,0,1-2.51.2L108,141A2.76,2.76,0,0,1,110.57,140.8Z"/>
      <path class="cls-3" d="M111.05,146.1l3.89-2.57L181.05,186v2.31H174.2l-64.73-41.6v-.14h0A2.85,2.85,0,0,0,111.05,146.1Z"/>
      <path class="cls-3" d="M111.11,40.9l74.2,51.64a2.54,2.54,0,0,0-1.44-.42h-9L109.47,46.65,42.6,92.12H33.43a2.85,2.85,0,0,0-1.52.45.55.55,0,0,1,.17-.11L107.92,40.9A2.75,2.75,0,0,1,111.11,40.9Z"/>
      <path class="cls-3" d="M111,141l3.92,2.51-3.89,2.57a2.85,2.85,0,0,1-1.55.48h0a2.58,2.58,0,0,1-1.49-.45l-4-2.6,3.44-2.14a2.82,2.82,0,0,0,2.51-.2l.68-.39A3.11,3.11,0,0,1,111,141Z"/>
      <path class="cls-3" d="M100.53,130.14l2.51,1.77C102.25,131.38,101.41,130.76,100.53,130.14Z"/>
      <path class="cls-3" d="M94.07,125.17c.76.62,1.53,1.24,2.29,1.84C95.6,126.41,94.83,125.79,94.07,125.17Z"/>
      <path class="cls-3" d="M80,111c.59.82,1.21,1.64,1.89,2.43C81.24,112.68,80.62,111.86,80,111Z"/>
      <path class="cls-3" d="M76.56,105.66c.56,1,1.18,2.08,1.86,3.16A29.88,29.88,0,0,1,76.56,105.66Z"/>
      <path class="cls-3" d="M142.81,94.85C142,83.54,133.7,75.37,123,75.37h0a16.27,16.27,0,0,0-12.41,6.4,2.73,2.73,0,0,1-2.26,1.15,2.81,2.81,0,0,1-2.28-1.15,16.06,16.06,0,0,0-12.38-6.35h0c-10.63,0-18.93,8.21-19.74,19.43A3,3,0,0,0,73.14,93a2.84,2.84,0,0,0-2-.87H68.55c2-13,12.15-22.28,25.07-22.34h.09a21.7,21.7,0,0,1,14.63,6.07A21.78,21.78,0,0,1,123,69.73H123c13,0,23.18,9.27,25.13,22.39h-2.54a2.8,2.8,0,0,0-2,.87A2.88,2.88,0,0,0,142.81,94.85Z"/>
      <path class="cls-3" d="M73.91,95.11a18.61,18.61,0,0,0,1.18,7.3A17.58,17.58,0,0,1,73.88,95a.27.27,0,0,1,0-.15Z"/>
      <path class="cls-3" d="M129,127.26a144.5,144.5,0,0,1-18.39,13.54,2.76,2.76,0,0,0-2.57.2l-.62.39s0,0-.08,0l-.4-.19-.67-.43c-5.87-3.58-32.55-20.73-37.29-39.26a25.43,25.43,0,0,1-.65-3.72,19.61,19.61,0,0,1,0-3.16,22.39,22.39,0,0,1,.28-2.48h2.54a2.84,2.84,0,0,1,2,.87,3,3,0,0,1,.77,1.86.27.27,0,0,0,0,.15,17.58,17.58,0,0,0,1.21,7.41,25.12,25.12,0,0,0,1.47,3.25,29.88,29.88,0,0,0,1.86,3.16c.51.73,1,1.49,1.61,2.22s1.21,1.64,1.89,2.43a93,93,0,0,0,12.15,11.7c.76.62,1.53,1.24,2.29,1.84,1.43,1.12,2.85,2.17,4.17,3.13.88.62,1.72,1.24,2.51,1.77,2.37,1.64,4.29,2.85,5.39,3.56a144,144,0,0,0,16.75-12.38c1-.88,2-1.75,2.93-2.65,8.13-7.56,15.32-16.84,14.7-25.59A2.88,2.88,0,0,1,143.6,93a2.8,2.8,0,0,1,2-.87h2.54a21.84,21.84,0,0,1,.25,5.64h0c0,.68-.17,1.35-.28,2s-.23,1.13-.37,1.69c-.05.17-.08.34-.14.51a29.14,29.14,0,0,1-1.38,3.81c-.28.67-.59,1.32-.93,2s-.51,1-.79,1.5c-.08.17-.17.34-.25.48a1,1,0,0,0-.2.31c-.71,1.18-1.47,2.34-2.29,3.49-.45.62-.93,1.24-1.41,1.87a.42.42,0,0,1-.16.22c-.43.54-.85,1.07-1.3,1.61-1.24,1.49-2.57,2.93-3.92,4.34l-.93,1c-.54.54-1.1,1-1.64,1.58Q130.71,125.78,129,127.26Z"/>
      <path class="cls-3" d="M68.94,101.48c4.74,18.53,31.42,35.68,37.29,39.26l.67.43.4.19s.06,0,.08,0l-3.44,2.14L36.25,100.1V97.76h6.83l41.21,26.45C77.29,117.62,71,109.72,68.94,101.48Z"/>
      <path class="cls-3" d="M68.29,97.76a25.43,25.43,0,0,0,.65,3.72A18.57,18.57,0,0,1,68.29,97.76Z"/>
      <path class="cls-3" d="M68.55,92.12a22.39,22.39,0,0,0-.28,2.48,19.61,19.61,0,0,0,0,3.16H43.08l-4.51-2.91,4-2.73Z"/>
      <path class="cls-3" d="M109.47,146.72l-66.19,41.6h-7v-2.25l67.69-42.54,4,2.6a2.58,2.58,0,0,0,1.49.45Z"/>
      <path class="cls-3" d="M185.45,193.48a2.73,2.73,0,0,1-1.58.48H33.43a2.78,2.78,0,0,1-1.58-.48l-.42-.34c-.11-.11-.2-.25-.31-.36a1.72,1.72,0,0,1-.28-.54,3.39,3.39,0,0,1-.17-.51,1.94,1.94,0,0,1-.06-.59,2.78,2.78,0,0,1,1.33-2.37l4.31-2.7v2.25h7l-.06,0h131l-.06,0h6.85V186l4.35,2.79a3,3,0,0,1,1.29,2.34v.06a4.4,4.4,0,0,1-.05.51,1.93,1.93,0,0,1-.17.53,2.72,2.72,0,0,1-.28.54c-.12.11-.2.25-.31.36Z"/>
      <path class="cls-3" d="M30.61,94.94a3.1,3.1,0,0,1,.06-.56c0-.12.06-.2.08-.32a2.69,2.69,0,0,1,.57-1,1,1,0,0,1,.25-.26,1.15,1.15,0,0,1,.34-.25,2.85,2.85,0,0,1,1.52-.45H42.6l-4,2.73,4.51,2.91H36.25v2.34L32,97.39a1,1,0,0,1-.22-.17h0a3.65,3.65,0,0,1-.71-.76s-.08-.14-.11-.2v0A2.71,2.71,0,0,1,30.61,94.94Z"/>
      <path class="cls-3" d="M31.43,193.14l.42.34A1.15,1.15,0,0,1,31.43,193.14Z"/>
      <path class="cls-3" d="M31.57,92.82a1,1,0,0,0-.25.26A1,1,0,0,1,31.57,92.82Z"/>
      <path class="cls-3" d="M31.12,192.78c.11.11.2.25.31.36A1.39,1.39,0,0,1,31.12,192.78Z"/>
      <path class="cls-3" d="M30.61,191.14V94.94a2.71,2.71,0,0,0,.34,1.3v0c0,.06.09.15.11.2a3.65,3.65,0,0,0,.71.76h0a1,1,0,0,0,.22.17l4.23,2.71v86l-4.31,2.7A2.78,2.78,0,0,0,30.61,191.14Z"/>
      <path class="cls-3" d="M30.67,191.73a3.39,3.39,0,0,0,.17.51.63.63,0,0,1-.11-.28A.6.6,0,0,1,30.67,191.73Z"/>
      <path class="cls-3" d="M30.61,94.94a3.43,3.43,0,0,1,.06-.56A3.1,3.1,0,0,0,30.61,94.94Z"/>
    </g>
  </g>
</svg>
