<svg id="Calque_1" data-name="Calque 1" xmlns="http://www.w3.org/2000/svg" viewBox="0 0 215.82 216.19">
  <defs>
    <style>
      .cls-1 {
        fill: #19af97;
        opacity: 0.67;
      }

      .cls-2 {
        fill: #fff;
      }

      .cls-3 {
        fill: #072620;
      }
    </style>
  </defs>
  <circle class="cls-1" cx="108.04" cy="107.89" r="106.17"/>
  <g>
    <g>
      <path class="cls-2" d="M167.57,145.18a32.64,32.64,0,1,1-32.64-32.64A32.67,32.67,0,0,1,167.57,145.18Z"/>
      <path class="cls-2" d="M81.7,83.64v9.19H54.42V83.64a.62.62,0,0,1,.63-.59H81.11A.6.6,0,0,1,81.7,83.64Z"/>
    </g>
    <g>
      <path class="cls-3" d="M130.86,121.83A21.88,21.88,0,1,1,109,143.71,21.91,21.91,0,0,1,130.86,121.83Zm0,37.73A15.87,15.87,0,1,0,115,143.71,15.87,15.87,0,0,0,130.86,159.56Z"/>
      <path class="cls-3" d="M131.44,59.65c.08,0,.16,0,.24,0a.41.41,0,0,1,.27.15,2.37,2.37,0,0,1,.55.28,1.19,1.19,0,0,1,.43.35,1.83,1.83,0,0,1,.35.43,2.48,2.48,0,0,1,.32.55,1,1,0,0,1,.11.27c2.7,9.47,14.68,9.32,14.76,9.36a2.94,2.94,0,0,1,2.77,1.68,3,3,0,0,1-.39,3.21l-9,10.88a2.9,2.9,0,0,1-2.31,1.09,3.23,3.23,0,0,1-1.91-.66,3,3,0,0,1-.4-4.23l5.52-6.65a20.8,20.8,0,0,1-11.89-7.28A20.83,20.83,0,0,1,119,76.4l5.52,6.65a3,3,0,0,1-.43,4.23,3.1,3.1,0,0,1-1.92.66,2.92,2.92,0,0,1-2.31-1.09l-9-10.88a3,3,0,0,1,2.39-4.89c.47,0,12.09,0,14.71-9.36,0-.08.12-.19.16-.27a2,2,0,0,1,.27-.55c.12-.16.24-.31.35-.43a4.9,4.9,0,0,1,.43-.39l.55-.24c.12-.07.2-.15.31-.15s.16,0,.24,0a2.88,2.88,0,0,1,.59,0A2.83,2.83,0,0,1,131.44,59.65Z"/>
      <path class="cls-3" d="M169.48,143.71A38.65,38.65,0,1,1,130.86,105,38.68,38.68,0,0,1,169.48,143.71Zm-38.62,32.64a32.64,32.64,0,1,0-32.64-32.64A32.67,32.67,0,0,0,130.86,176.35Z"/>
      <path class="cls-3" d="M52.31,106.77H69a5.27,5.27,0,0,1,5.2,4.69h.08v11h-.08a5.27,5.27,0,0,1-5.2,4.69H52.31a5.23,5.23,0,0,1-5.2-4.54H47v-11.3h.08A5.26,5.26,0,0,1,52.31,106.77Zm15.93,6H53v8.42H68.24Z"/>
      <path class="cls-3" d="M78.3,75.81a6.56,6.56,0,0,1,6.57,6.58v9.19h83.87a19.89,19.89,0,0,1,19.84,19.84V176a19.87,19.87,0,0,1-19.84,19.85H46.41A19.85,19.85,0,0,1,26.56,176V111.42a19.84,19.84,0,0,1,19.06-19.8V82.39a6.61,6.61,0,0,1,6.62-6.58Zm52.56,21.76H46.41a13.86,13.86,0,0,0-13.86,13.85V176a13.87,13.87,0,0,0,13.86,13.86H168.74A13.88,13.88,0,0,0,182.59,176V111.42a13.87,13.87,0,0,0-13.85-13.85ZM78.3,81.8H52.24a.61.61,0,0,0-.63.59v9.19H78.89V82.39A.6.6,0,0,0,78.3,81.8Z"/>
    </g>
  </g>
</svg>
