<svg id="Calque_1" data-name="Calque 1" xmlns="http://www.w3.org/2000/svg" viewBox="0 0 1649.76 121.32">
  <defs>
    <style>
      .cls-1 {
        fill: none;
        stroke: #fff;
        stroke-miterlimit: 10;
        stroke-width: 1.31px;
      }

      .cls-2 {
        fill: #fff;
      }
    </style>
  </defs>
  <g>
    <g>
      <path class="cls-1" d="M269.26,98.84s-52.52,2.31-71.49,2-74.12-1.56-74.12-1.56l-.87.14s-1.28-22.47-8-28.57-11.12-7.46-13.87-7.73-9.26-1.53-15.72.66S72.62,68.85,69.92,72s-6.07,10.83-6.51,13.4S63,88.52,63,88.52s-22.4-.78-26.33-1.78-4.79-1.2-5.69,0-.26,2.41-1.8,2.18-7.37-1.46-8.86-3.24-4.36-3.6-4.65-5.17S14.51,78,15,77.87s2.72,1.31,2.43-.26S14.72,67,13.53,66.44s-.54.67-1.18-.56-2.21-5.94-2.21-5.94,1.78-1.5,2.31-2-.88-4.35,2.29-6.13,7.3-6.48,8.53-7.3S62,28.8,68.78,25.76s30.34-14.29,31-14.44,3-2.48,12.71-3.35,29.22-2.08,42.16-2,36.55.41,42.76.46,13.6.82,16,1.76,18.47,9.62,28.6,16,22.71,16.32,22.71,16.32,7.25-.09,12.41.43,16.34,1.44,22.56,1.14,12.26-.43,15.71-.31S329.87,43,330.55,43.2s2.34,2.15,2.34,2.15,28.08,6,30.12,6.92,4.47.5,4.95,1.55a10.4,10.4,0,0,1,.58,3,9.47,9.47,0,0,0-2.6.43c-.53.33-2.47,6.64-2.05,9.24s3.69,3.07,4.34,4.3a12.6,12.6,0,0,1-.11,8.1c-1.13,2.72-3.18,2-5.44,2.4s-3.81.55-4.73,2.08a17.58,17.58,0,0,1-9.07,8c-5.59,2-11.35,3.74-14.29,4s-9.16.72-9.68.53-1.13-2.11-1.07-3.84-1.57-14.2-6.89-19.9-9.94-6.9-9.94-6.9a34.58,34.58,0,0,0-13.21-2,32.34,32.34,0,0,0-14.13,4.34c-1.41,1-5.11,3.27-6.63,7.18s-2.54,7.43-3.48,10.75S268.52,98.82,269.26,98.84Z"/>
      <circle class="cls-1" cx="295.89" cy="89.31" r="24.67"/>
      <circle class="cls-1" cx="295.89" cy="89.31" r="16.7"/>
      <circle class="cls-1" cx="295.89" cy="89.31" r="15.56"/>
      <circle class="cls-1" cx="295.75" cy="89.3" r="13.09"/>
      <path class="cls-1" d="M288.26,90.6A7.66,7.66,0,0,0,295.53,97a7.89,7.89,0,0,0,2-.2L295.91,94,299,92.16l1.75,3a7.64,7.64,0,0,0,.09-11.57l-1.91,3-3-1.89,1.76-2.83A7.67,7.67,0,0,0,288.5,87l3.3.11-.13,3.57Z"/>
      <path class="cls-1" d="M300.74,95.13l.68,1.16a9,9,0,0,0,.12-13.87l-.71,1.14a7.64,7.64,0,0,1-.09,11.57Z"/>
      <path class="cls-1" d="M287.13,87l1.37.05a7.67,7.67,0,0,1,9.16-5.15l.74-1.17a9.14,9.14,0,0,0-2.29-.38A9,9,0,0,0,287.13,87Z"/>
      <path class="cls-1" d="M286.91,90.55a9,9,0,0,0,11.33,7.39l-.7-1.19a7.89,7.89,0,0,1-2,.2,7.66,7.66,0,0,1-7.27-6.35Z"/>
      <circle class="cls-1" cx="92.47" cy="88.35" r="25.34"/>
      <path class="cls-1" d="M250.7,42.47s-33.06-26.34-40.79-27.3-49.8-1.39-64.65-1.05-21.43,1.15-21.43,1.15-3.45-.12-2.48,2,10.56,13.48,12.71,16.14,5.83,6.07,7.52,7,5.8,1.93,13,2.18,95.88.77,95.88.77S251.53,43.54,250.7,42.47Z"/>
      <path class="cls-1" d="M210.62,13.22c-8.05-1.09-51.91-1.42-67.39-1s-22.34,1.42-22.34,1.42-3.59-.12-2.6,2.32,11,15.61,13.19,18.7,6.05,7,7.81,8.08,6,2.22,13.58,2.48c6.93.25,91.42.87,105,1,1.19,0,1.25-.44.21-1.25C250.39,39.06,217.71,14.17,210.62,13.22Z"/>
      <path class="cls-1" d="M264.74,40.55s2.9,1.14-.58,2.05l-3.49.91s.48,1.23-1.87-.58-21-15.23-24.41-17.41-14.32-9.65-14.32-9.65-2.2-1.28-2-2.31a18.06,18.06,0,0,1,1-2.73"/>
      <path class="cls-1" d="M46.73,40.32l58-24.6a1,1,0,0,1,1.35.55l10.62,25.1a1,1,0,0,1-1,1.43l-68.66-.51A1,1,0,0,1,46.73,40.32Z"/>
      <polyline class="cls-1" points="158.06 42.86 158.19 46.42 160.2 99.86"/>
      <polyline class="cls-1" points="353.08 60.03 14.08 55.76 12.36 55.7"/>
      <path class="cls-1" d="M68.75,97.23,34.52,92.82a4.7,4.7,0,0,1-3-1.26c-1.56-1.32-6.4-.91-6.4-.91s-2.56.71-2.77.25a21.08,21.08,0,0,1-.23-3.46l0-.69"/>
      <path class="cls-1" d="M34.29,86.37s.27,5.18-2.49,5.43"/>
      <path class="cls-1" d="M36.69,86.8s.25,5.83-2.52,6.12"/>
      <polyline class="cls-1" points="32.7 85.74 27.39 59.79 11.08 59.34"/>
      <circle class="cls-1" cx="66.22" cy="49.59" r="4.65"/>
      <circle class="cls-1" cx="66.34" cy="49.6" r="3.16"/>
      <path class="cls-1" d="M57.93,41.65s-28.1,1.09-30.88,1.8a12.91,12.91,0,0,0-5.5,2.68"/>
      <path class="cls-1" d="M66.64,42.53S32.2,44.09,29.41,44.8a12.73,12.73,0,0,0-5.49,2.68s-3.33,3-3.84,4.47-2.39,5.89-2.42,6.7l0,.8"/>
      <path class="cls-1" d="M13.84,59.32s7.71,22.92,7.58,23.26a14,14,0,0,1-2.24,1.76"/>
      <line class="cls-1" x1="163.2" y1="14.06" x2="162.71" y2="42.85"/>
      <line class="cls-1" x1="160.79" y1="13.97" x2="160.3" y2="42.76"/>
      <path class="cls-1" d="M157.93,46.42s-1.26-.1-1.63.57-1,.89-.86,1.76a14.15,14.15,0,0,0,1.49,3.32c.33.53,1.37,1.78,1.37,1.78"/>
      <circle class="cls-1" cx="162.71" cy="50.35" r="2.33"/>
      <circle class="cls-2" cx="162.77" cy="50.35" r="1.29"/>
      <path class="cls-1" d="M258.93,45.7s8.05,6.49-1.09,50.79"/>
      <path class="cls-1" d="M268.67,96s-58.29,2.56-140,1.89h-6.17"/>
      <path class="cls-1" d="M126.13,92.33c0,1.18,140,1.73,140,.55V91c0,1.12-140,.57-140-.55Z"/>
      <path class="cls-1" d="M259.72,46.24s52.47-.92,94.07,8.29"/>
      <path class="cls-1" d="M266.87,43.9s50-1.47,89.54,9.69"/>
      <path class="cls-1" d="M271.47,40.61a8.82,8.82,0,0,1-6.25,3.49c-4.06.29-3.47.66-4.06.29l-.59-.36"/>
      <path class="cls-1" d="M332.89,45.35S303.15,42.41,297,42.28"/>
      <rect class="cls-1" x="285.6" y="84.44" width="3.57" height="8.7" transform="translate(188.61 372.89) rotate(-88)"/>
      <polygon class="cls-1" points="295.91 93.97 297.54 96.75 298.24 97.94 300.32 101.47 303.4 99.65 301.42 96.29 300.74 95.13 298.99 92.16 295.91 93.97"/>
      <polygon class="cls-1" points="295.9 84.72 298.93 86.61 300.83 83.56 301.54 82.42 303.53 79.24 300.51 77.34 298.4 80.72 297.67 81.89 295.9 84.72"/>
      <circle class="cls-2" cx="295.79" cy="89.44" r="1.14"/>
      <circle class="cls-2" cx="293.01" cy="84.4" r="1.14"/>
      <circle class="cls-2" cx="292.8" cy="93.83" r="1.14"/>
      <circle class="cls-2" cx="301.29" cy="89.27" r="1.14"/>
      <path class="cls-2" d="M285.85,80.78s1.38.72,1.24,1.26-1.21,1.55-1.42,2.15-.11,1.52-.48,1.63a1.88,1.88,0,0,1-1.41,0l-.54-.26A15.91,15.91,0,0,1,285.85,80.78Z"/>
      <path class="cls-2" d="M293.39,76.45s.61,1.43.15,1.76-1.92.42-2.46.75-1.06,1.1-1.42,1a1.8,1.8,0,0,1-1-.93l-.25-.55A15.89,15.89,0,0,1,293.39,76.45Z"/>
      <path class="cls-2" d="M308,85s-1.3.85-1.71.46-.74-1.82-1.17-2.3-1.26-.85-1.18-1.22a1.84,1.84,0,0,1,.74-1.2l.49-.34A15.72,15.72,0,0,1,308,85Z"/>
      <path class="cls-2" d="M308.06,93.65s-1.55-.18-1.61-.74S307,91,307,90.39s-.43-1.46-.13-1.69a1.84,1.84,0,0,1,1.33-.46l.6.06A16,16,0,0,1,308.06,93.65Z"/>
      <path class="cls-2" d="M293.54,102.12s-.08-1.55.46-1.71,1.95.26,2.57.12,1.37-.68,1.65-.42a1.89,1.89,0,0,1,.67,1.23l.05.6A15.94,15.94,0,0,1,293.54,102.12Z"/>
      <path class="cls-2" d="M286,97.86s.92-1.25,1.44-1,1.34,1.44,1.9,1.73,1.49.35,1.54.73a1.87,1.87,0,0,1-.26,1.38l-.35.49A15.79,15.79,0,0,1,286,97.86Z"/>
      <path class="cls-2" d="M300.51,77.35s-.48,1.59-1,1.58-.71-.35-1.35-.41-1.5.26-1.7-.07a1.83,1.83,0,0,1-.29-1.37l.12-.59A8.11,8.11,0,0,1,300.51,77.35Z"/>
      <path class="cls-2" d="M303.51,99.61s-1.11-1.23-.82-1.71.68-.42,1.05-.94.56-1.42.94-1.42A1.88,1.88,0,0,1,306,96l.44.41A8.08,8.08,0,0,1,303.51,99.61Z"/>
      <path class="cls-2" d="M282.9,90.58s1.63-.32,1.88.18,0,.8.26,1.39.92,1.21.72,1.54a1.85,1.85,0,0,1-1.08.9l-.58.16A8.13,8.13,0,0,1,282.9,90.58Z"/>
      <circle class="cls-1" cx="92.56" cy="88.22" r="17.05"/>
      <circle class="cls-1" cx="92.56" cy="88.22" r="15.89"/>
      <circle class="cls-1" cx="92.42" cy="88.21" r="13.36"/>
      <path class="cls-1" d="M84.77,89.54a7.78,7.78,0,0,0,9.48,6.27L92.58,93l3.14-1.85,1.79,3a7.8,7.8,0,0,0,.1-11.81l-2,3.12-3.09-1.94,1.8-2.88a7.91,7.91,0,0,0-1.64-.23A7.8,7.8,0,0,0,85,85.9l3.37.12-.13,3.64Z"/>
      <path class="cls-1" d="M97.51,94.16l.69,1.19a9.16,9.16,0,0,0,.13-14.16l-.72,1.16a7.8,7.8,0,0,1-.1,11.81Z"/>
      <path class="cls-1" d="M83.62,85.85,85,85.9a7.8,7.8,0,0,1,7.72-5.48,7.91,7.91,0,0,1,1.64.23l.75-1.2a9.47,9.47,0,0,0-2.34-.39A9.15,9.15,0,0,0,83.62,85.85Z"/>
      <path class="cls-1" d="M83.39,89.49a9.17,9.17,0,0,0,8.75,7.88A9.37,9.37,0,0,0,95,97l-.71-1.22a7.78,7.78,0,0,1-9.48-6.27Z"/>
      <rect class="cls-1" x="82.06" y="83.24" width="3.64" height="8.88" transform="translate(-6.68 168.45) rotate(-88)"/>
      <polygon class="cls-1" points="92.58 92.98 94.25 95.81 94.96 97.03 97.08 100.63 100.23 98.78 98.2 95.35 97.51 94.16 95.72 91.13 92.58 92.98"/>
      <polygon class="cls-1" points="92.57 83.53 95.66 85.47 97.61 82.35 98.33 81.19 100.36 77.94 97.27 76 95.12 79.45 94.37 80.65 92.57 83.53"/>
      <circle class="cls-2" cx="92.46" cy="88.36" r="1.17"/>
      <circle class="cls-2" cx="89.62" cy="83.21" r="1.17"/>
      <circle class="cls-2" cx="89.4" cy="92.83" r="1.17"/>
      <circle class="cls-2" cx="98.07" cy="88.18" r="1.17"/>
      <path class="cls-2" d="M82.31,79.51s1.41.73,1.27,1.29S82.34,82.38,82.13,83s-.12,1.56-.5,1.67a1.88,1.88,0,0,1-1.43,0l-.55-.27A16.31,16.31,0,0,1,82.31,79.51Z"/>
      <path class="cls-2" d="M90,75.09s.62,1.46.15,1.8-2,.43-2.51.77-1.08,1.12-1.45,1a1.94,1.94,0,0,1-1.07-1l-.25-.55A16.27,16.27,0,0,1,90,75.09Z"/>
      <path class="cls-2" d="M104.94,83.77s-1.34.87-1.75.47-.76-1.86-1.19-2.35-1.3-.86-1.21-1.25a1.88,1.88,0,0,1,.75-1.22l.51-.35A16.54,16.54,0,0,1,104.94,83.77Z"/>
      <path class="cls-2" d="M105,92.65s-1.58-.19-1.64-.76.6-1.91.57-2.56-.44-1.5-.13-1.74a2,2,0,0,1,1.36-.46l.61.06A16.31,16.31,0,0,1,105,92.65Z"/>
      <path class="cls-2" d="M90.17,101.3s-.09-1.58.46-1.74,2,.25,2.62.12,1.4-.7,1.69-.43a1.87,1.87,0,0,1,.69,1.26l.05.61A16.31,16.31,0,0,1,90.17,101.3Z"/>
      <path class="cls-2" d="M82.43,97s.94-1.28,1.47-1,1.37,1.46,1.95,1.76,1.51.36,1.57.75a1.91,1.91,0,0,1-.27,1.41l-.35.5A16.3,16.3,0,0,1,82.43,97Z"/>
      <path class="cls-2" d="M97.27,76s-.48,1.62-1,1.62-.73-.37-1.38-.42-1.54.26-1.74-.07a1.94,1.94,0,0,1-.3-1.41l.13-.6A8.3,8.3,0,0,1,97.27,76Z"/>
      <path class="cls-2" d="M100.34,98.74S99.2,97.48,99.5,97s.69-.43,1.07-1,.57-1.45,1-1.45a1.91,1.91,0,0,1,1.36.47l.45.42A8.32,8.32,0,0,1,100.34,98.74Z"/>
      <path class="cls-2" d="M79.29,89.51s1.67-.32,1.93.19,0,.82.26,1.42,1,1.24.74,1.57a1.91,1.91,0,0,1-1.11.92l-.59.16A8.29,8.29,0,0,1,79.29,89.51Z"/>
      <line class="cls-1" x1="209.91" y1="15.17" x2="225.71" y2="42.94"/>
      <line class="cls-1" x1="207.38" y1="15.31" x2="222.78" y2="42.94"/>
      <path class="cls-1" d="M360.51,51.32s-5.93,1.75-6.69,4A51.48,51.48,0,0,0,352.28,63c-.43,2.63-2,8.33-1.69,15.47a113.29,113.29,0,0,0,1,11.3"/>
      <path class="cls-1" d="M352.1,61.72l-2.17-.42s-2,7.86-2,10.51-.74,4.69-.07,5.29a2.39,2.39,0,0,0,1.93.75,5.59,5.59,0,0,1,.92-.08"/>
      <path class="cls-1" d="M350.8,72.48s0,4,1.1,4.76,2.05.53,1.9,1.67a4.16,4.16,0,0,0,.35,3,19.66,19.66,0,0,0,3.14,2.29"/>
      <line class="cls-1" x1="118.82" y1="7.33" x2="120.89" y2="13.68"/>
      <line class="cls-1" x1="117.08" y1="7.61" x2="119.16" y2="13.97"/>
      <path class="cls-2" d="M102.21,18.59c2.2-.83,10.73,21.78,8.52,22.61Z"/>
      <polygon class="cls-2" points="100.89 20.04 98.82 20.08 106.84 40.72 108.37 39.74 100.89 20.04"/>
      <polygon class="cls-2" points="97.41 21.07 96.13 21.37 103.39 40.71 104.58 39.49 97.41 21.07"/>
      <polygon class="cls-2" points="94.49 22.35 93.09 22.87 100.15 41.18 101.35 39.72 94.49 22.35"/>
      <polygon class="cls-2" points="91.56 23.97 90.29 24.04 96.49 40.7 97.67 39.82 91.56 23.97"/>
      <polygon class="cls-2" points="88.97 25.49 87.59 25.44 93.16 40.47 94.33 40.05 88.97 25.49"/>
      <polygon class="cls-2" points="85.83 26.41 84.33 26.59 89.36 40.68 90.53 40.03 85.83 26.41"/>
      <polygon class="cls-2" points="82.24 27.32 81.18 27.86 85.8 40.67 86.87 39.68 82.24 27.32"/>
      <polygon class="cls-2" points="79.53 29.18 77.8 29.35 82.12 40.55 83.52 39.9 79.53 29.18"/>
      <polygon class="cls-2" points="76.26 30.45 74.53 30.73 78.33 40.3 79.38 39.99 76.26 30.45"/>
      <polygon class="cls-2" points="73 31.83 71.94 32.25 74.87 40.64 75.81 39.98 73 31.83"/>
      <polygon class="cls-2" points="69.96 33.22 68.8 33.41 71.31 40.51 72.48 39.98 69.96 33.22"/>
      <polygon class="cls-2" points="67.03 34.73 65.65 34.79 67.75 40.39 68.68 40.08 67.03 34.73"/>
      <polygon class="cls-2" points="63.67 35.97 62.41 35.95 63.9 40.39 65.26 39.49 63.67 35.97"/>
      <polygon class="cls-2" points="60.27 37.25 59.47 37.22 60.26 40.82 61.2 40.16 60.27 37.25"/>
    </g>
    <g>
      <path class="cls-1" d="M693.59,98.84s-52.52,2.31-71.49,2S548,99.27,548,99.27l-.87.14s-1.28-22.47-8-28.57S528,63.38,525.27,63.11s-9.27-1.53-15.72.66S497,68.85,494.25,72s-6.07,10.83-6.51,13.4-.45,3.09-.45,3.09-22.4-.78-26.33-1.78-4.79-1.2-5.69,0-.26,2.41-1.8,2.18-7.37-1.46-8.86-3.24-4.36-3.6-4.65-5.17-1.12-2.45-.6-2.61,2.71,1.31,2.42-.26S439.05,67,437.86,66.44s-.54.67-1.19-.56-2.2-5.94-2.2-5.94,1.77-1.5,2.31-2-.88-4.35,2.28-6.13,7.3-6.48,8.54-7.3,38.67-15.72,45.51-18.76,30.34-14.29,31-14.44,3-2.48,12.71-3.35S566.08,5.89,579,6s36.55.41,42.76.46,13.6.82,16,1.76,18.47,9.62,28.6,16,22.71,16.32,22.71,16.32,7.25-.09,12.41.43,16.34,1.44,22.56,1.14,12.26-.43,15.71-.31S754.19,43,754.88,43.2s2.34,2.15,2.34,2.15,28.08,6,30.12,6.92,4.46.5,4.94,1.55a10.56,10.56,0,0,1,.59,3,9.47,9.47,0,0,0-2.6.43c-.53.33-2.48,6.64-2,9.24s3.69,3.07,4.33,4.3,1,5.38-.11,8.1-3.17,2-5.43,2.4-3.81.55-4.73,2.08a17.58,17.58,0,0,1-9.07,8c-5.6,2-11.35,3.74-14.29,4s-9.17.72-9.68.53-1.13-2.11-1.07-3.84-1.57-14.2-6.9-19.9-9.93-6.9-9.93-6.9a34.58,34.58,0,0,0-13.21-2A32.34,32.34,0,0,0,704,67.47c-1.41,1-5.12,3.27-6.63,7.18s-2.54,7.43-3.48,10.75S692.85,98.82,693.59,98.84Z"/>
      <circle class="cls-1" cx="720.21" cy="89.31" r="24.67"/>
      <circle class="cls-1" cx="720.21" cy="89.31" r="16.7"/>
      <circle class="cls-1" cx="720.21" cy="89.31" r="15.56"/>
      <circle class="cls-1" cx="720.08" cy="89.3" r="13.09"/>
      <path class="cls-1" d="M712.59,90.6A7.65,7.65,0,0,0,719.85,97a7.92,7.92,0,0,0,2-.2L720.24,94l3.07-1.81,1.75,3a7.63,7.63,0,0,0,.1-11.57l-1.91,3-3-1.89L722,81.89A7.67,7.67,0,0,0,712.83,87l3.29.11L716,90.72Z"/>
      <path class="cls-1" d="M725.06,95.13l.69,1.16a9,9,0,0,0,.12-13.87l-.71,1.14a7.63,7.63,0,0,1-.1,11.57Z"/>
      <path class="cls-1" d="M711.46,87l1.37.05A7.67,7.67,0,0,1,722,81.89l.74-1.17a9.14,9.14,0,0,0-2.29-.38A9,9,0,0,0,711.46,87Z"/>
      <path class="cls-1" d="M711.24,90.55a9,9,0,0,0,11.33,7.39l-.7-1.19a7.92,7.92,0,0,1-2,.2,7.65,7.65,0,0,1-7.26-6.35Z"/>
      <circle class="cls-1" cx="516.79" cy="88.35" r="25.34"/>
      <path class="cls-1" d="M675,42.47S642,16.13,634.24,15.17s-49.8-1.39-64.65-1.05-21.43,1.15-21.43,1.15-3.45-.12-2.49,2,10.57,13.48,12.72,16.14,5.83,6.07,7.52,7,5.8,1.93,13,2.18,95.89.77,95.89.77S675.86,43.54,675,42.47Z"/>
      <path class="cls-1" d="M635,13.22c-8.05-1.09-51.91-1.42-67.39-1s-22.34,1.42-22.34,1.42-3.59-.12-2.6,2.32,11,15.61,13.19,18.7,6.05,7,7.81,8.08,6,2.22,13.57,2.48c6.94.25,91.42.87,105,1,1.2,0,1.26-.44.22-1.25C674.72,39.06,642,14.17,635,13.22Z"/>
      <path class="cls-1" d="M689.07,40.55s2.9,1.14-.59,2.05l-3.48.91s.48,1.23-1.88-.58-21-15.23-24.4-17.41-14.33-9.65-14.33-9.65-2.19-1.28-2-2.31a17.3,17.3,0,0,1,1-2.73"/>
      <path class="cls-1" d="M471.05,40.32l58.05-24.6a1,1,0,0,1,1.34.55l10.63,25.1a1,1,0,0,1-1,1.43l-68.66-.51A1,1,0,0,1,471.05,40.32Z"/>
      <polyline class="cls-1" points="582.38 42.86 582.52 46.42 584.53 99.86"/>
      <polyline class="cls-1" points="777.4 60.03 438.41 55.76 436.69 55.7"/>
      <path class="cls-1" d="M493.08,97.23l-34.23-4.41a4.7,4.7,0,0,1-3-1.26c-1.56-1.32-6.41-.91-6.41-.91s-2.55.71-2.77.25a22.08,22.08,0,0,1-.22-3.46l0-.69"/>
      <path class="cls-1" d="M458.61,86.37s.28,5.18-2.49,5.43"/>
      <path class="cls-1" d="M461,86.8s.26,5.83-2.51,6.12"/>
      <polyline class="cls-1" points="457.03 85.74 451.72 59.79 435.41 59.34"/>
      <circle class="cls-1" cx="490.55" cy="49.59" r="4.65"/>
      <circle class="cls-1" cx="490.66" cy="49.6" r="3.16"/>
      <path class="cls-1" d="M482.26,41.65s-28.1,1.09-30.89,1.8a12.85,12.85,0,0,0-5.49,2.68"/>
      <path class="cls-1" d="M491,42.53s-34.44,1.56-37.23,2.27a12.86,12.86,0,0,0-5.5,2.68s-3.32,3-3.83,4.47S442,57.84,442,58.65l0,.8"/>
      <path class="cls-1" d="M438.17,59.32s7.71,22.92,7.58,23.26a14.43,14.43,0,0,1-2.25,1.76"/>
      <line class="cls-1" x1="587.53" y1="14.06" x2="587.04" y2="42.85"/>
      <line class="cls-1" x1="585.12" y1="13.97" x2="584.63" y2="42.76"/>
      <path class="cls-1" d="M582.26,46.42s-1.26-.1-1.63.57-1,.89-.87,1.76a14.57,14.57,0,0,0,1.5,3.32c.32.53,1.37,1.78,1.37,1.78"/>
      <circle class="cls-1" cx="587.04" cy="50.35" r="2.33"/>
      <circle class="cls-2" cx="587.1" cy="50.35" r="1.29"/>
      <path class="cls-1" d="M683.26,45.7s8,6.49-1.09,50.79"/>
      <path class="cls-1" d="M693,96s-58.29,2.56-140,1.89h-6.17"/>
      <path class="cls-1" d="M550.46,92.33c0,1.18,140,1.73,140,.55V91c0,1.12-140,.57-140-.55Z"/>
      <path class="cls-1" d="M684,46.24s52.48-.92,94.07,8.29"/>
      <path class="cls-1" d="M691.2,43.9s50-1.47,89.53,9.69"/>
      <path class="cls-1" d="M695.8,40.61a8.82,8.82,0,0,1-6.25,3.49c-4.06.29-3.47.66-4.06.29L684.9,44"/>
      <path class="cls-1" d="M757.22,45.35s-29.74-2.94-35.86-3.07"/>
      <rect class="cls-1" x="709.93" y="84.44" width="3.57" height="8.7" transform="translate(598.11 796.96) rotate(-88)"/>
      <polygon class="cls-1" points="720.24 93.97 721.87 96.75 722.57 97.94 724.65 101.47 727.73 99.65 725.75 96.29 725.07 95.13 723.32 92.16 720.24 93.97"/>
      <polygon class="cls-1" points="720.23 84.72 723.25 86.61 725.16 83.56 725.87 82.42 727.86 79.24 724.83 77.34 722.73 80.72 721.99 81.89 720.23 84.72"/>
      <circle class="cls-2" cx="720.12" cy="89.44" r="1.14"/>
      <circle class="cls-2" cx="717.33" cy="84.4" r="1.14"/>
      <circle class="cls-2" cx="717.13" cy="93.83" r="1.14"/>
      <circle class="cls-2" cx="725.62" cy="89.27" r="1.14"/>
      <path class="cls-2" d="M710.18,80.78s1.38.72,1.24,1.26-1.22,1.55-1.42,2.15-.12,1.52-.49,1.63a1.85,1.85,0,0,1-1.4,0l-.54-.26A15.91,15.91,0,0,1,710.18,80.78Z"/>
      <path class="cls-2" d="M717.72,76.45s.6,1.43.15,1.76-1.92.42-2.46.75-1.06,1.1-1.42,1a1.84,1.84,0,0,1-1-.93l-.25-.55A16,16,0,0,1,717.72,76.45Z"/>
      <path class="cls-2" d="M732.34,85s-1.31.85-1.71.46-.75-1.82-1.17-2.3-1.27-.85-1.18-1.22a1.84,1.84,0,0,1,.74-1.2l.49-.34A16,16,0,0,1,732.34,85Z"/>
      <path class="cls-2" d="M732.38,93.65s-1.54-.18-1.6-.74.58-1.88.56-2.52-.44-1.46-.13-1.69a1.84,1.84,0,0,1,1.33-.46l.6.06A15.82,15.82,0,0,1,732.38,93.65Z"/>
      <path class="cls-2" d="M717.87,102.12s-.08-1.55.46-1.71,1.94.26,2.57.12,1.36-.68,1.65-.42a1.89,1.89,0,0,1,.67,1.23l0,.6A15.94,15.94,0,0,1,717.87,102.12Z"/>
      <path class="cls-2" d="M710.3,97.86s.92-1.25,1.44-1,1.34,1.44,1.9,1.73,1.49.35,1.54.73a1.87,1.87,0,0,1-.26,1.38l-.35.49A15.79,15.79,0,0,1,710.3,97.86Z"/>
      <path class="cls-2" d="M724.83,77.35s-.47,1.59-1,1.58-.72-.35-1.35-.41-1.51.26-1.7-.07a1.79,1.79,0,0,1-.29-1.37l.12-.59A8.07,8.07,0,0,1,724.83,77.35Z"/>
      <path class="cls-2" d="M727.84,99.61s-1.12-1.23-.82-1.71.67-.42,1.05-.94.55-1.42.94-1.42a1.88,1.88,0,0,1,1.33.46l.43.41A8.11,8.11,0,0,1,727.84,99.61Z"/>
      <path class="cls-2" d="M707.22,90.58s1.63-.32,1.89.18,0,.8.26,1.39.92,1.21.72,1.54a1.92,1.92,0,0,1-1.08.9l-.58.16A8.09,8.09,0,0,1,707.22,90.58Z"/>
      <circle class="cls-1" cx="516.88" cy="88.22" r="17.05"/>
      <circle class="cls-1" cx="516.88" cy="88.22" r="15.89"/>
      <circle class="cls-1" cx="516.74" cy="88.21" r="13.36"/>
      <path class="cls-1" d="M509.1,89.54A7.82,7.82,0,0,0,516.52,96a7.72,7.72,0,0,0,2.05-.21L516.91,93l3.14-1.85,1.79,3a7.79,7.79,0,0,0,.09-11.81L520,85.47l-3.09-1.94,1.8-2.88a8,8,0,0,0-1.64-.23,7.8,7.8,0,0,0-7.72,5.48l3.37.12-.13,3.64Z"/>
      <path class="cls-1" d="M521.84,94.16l.69,1.19a9.16,9.16,0,0,0,.13-14.16l-.73,1.16a7.79,7.79,0,0,1-.09,11.81Z"/>
      <path class="cls-1" d="M507.94,85.85l1.4.05a7.8,7.8,0,0,1,7.72-5.48,8,8,0,0,1,1.64.23l.75-1.2a9.55,9.55,0,0,0-2.34-.39A9.17,9.17,0,0,0,507.94,85.85Z"/>
      <path class="cls-1" d="M507.72,89.49a9.17,9.17,0,0,0,8.75,7.88,9.4,9.4,0,0,0,2.82-.34l-.72-1.22a7.72,7.72,0,0,1-2.05.21,7.82,7.82,0,0,1-7.42-6.48Z"/>
      <rect class="cls-1" x="506.39" y="83.24" width="3.64" height="8.88" transform="matrix(0.03, -1, 1, 0.03, 402.81, 592.51)"/>
      <polygon class="cls-1" points="516.91 92.98 518.57 95.81 519.29 97.03 521.41 100.63 524.55 98.78 522.53 95.35 521.84 94.16 520.05 91.13 516.91 92.98"/>
      <polygon class="cls-1" points="516.9 83.53 519.99 85.47 521.93 82.35 522.66 81.19 524.69 77.94 521.6 76 519.45 79.45 518.7 80.65 516.9 83.53"/>
      <circle class="cls-2" cx="516.79" cy="88.36" r="1.17"/>
      <circle class="cls-2" cx="513.94" cy="83.21" r="1.17"/>
      <circle class="cls-2" cx="513.73" cy="92.83" r="1.17"/>
      <circle class="cls-2" cx="522.4" cy="88.18" r="1.17"/>
      <path class="cls-2" d="M506.64,79.51s1.41.73,1.26,1.29-1.24,1.58-1.45,2.19-.11,1.56-.49,1.67a1.88,1.88,0,0,1-1.43,0l-.55-.27A16.31,16.31,0,0,1,506.64,79.51Z"/>
      <path class="cls-2" d="M514.34,75.09s.61,1.46.15,1.8-2,.43-2.52.77-1.08,1.12-1.44,1a1.91,1.91,0,0,1-1.07-1l-.25-.55A16.27,16.27,0,0,1,514.34,75.09Z"/>
      <path class="cls-2" d="M529.26,83.77s-1.33.87-1.74.47-.76-1.86-1.2-2.35-1.29-.86-1.2-1.25a1.88,1.88,0,0,1,.75-1.22l.5-.35A16.31,16.31,0,0,1,529.26,83.77Z"/>
      <path class="cls-2" d="M529.31,92.65s-1.58-.19-1.64-.76.6-1.91.57-2.56-.44-1.5-.13-1.74a2,2,0,0,1,1.36-.46l.61.06A16.31,16.31,0,0,1,529.31,92.65Z"/>
      <path class="cls-2" d="M514.49,101.3s-.09-1.58.47-1.74,2,.25,2.62.12,1.4-.7,1.68-.43a1.87,1.87,0,0,1,.69,1.26l.06.61A16.36,16.36,0,0,1,514.49,101.3Z"/>
      <path class="cls-2" d="M506.76,97s.94-1.28,1.47-1,1.37,1.46,1.94,1.76,1.52.36,1.57.75a1.86,1.86,0,0,1-.27,1.41l-.35.5A16.32,16.32,0,0,1,506.76,97Z"/>
      <path class="cls-2" d="M521.6,76s-.48,1.62-1.06,1.62-.73-.37-1.37-.42-1.54.26-1.74-.07a1.89,1.89,0,0,1-.3-1.41l.13-.6A8.3,8.3,0,0,1,521.6,76Z"/>
      <path class="cls-2" d="M524.67,98.74s-1.14-1.26-.84-1.75.69-.43,1.07-1,.57-1.45,1-1.45a1.91,1.91,0,0,1,1.36.47l.44.42A8.25,8.25,0,0,1,524.67,98.74Z"/>
      <path class="cls-2" d="M503.62,89.51s1.67-.32,1.93.19,0,.82.26,1.42.94,1.24.74,1.57a1.91,1.91,0,0,1-1.11.92l-.59.16A8.29,8.29,0,0,1,503.62,89.51Z"/>
      <line class="cls-1" x1="634.24" y1="15.17" x2="650.03" y2="42.94"/>
      <line class="cls-1" x1="631.71" y1="15.31" x2="647.11" y2="42.94"/>
      <path class="cls-1" d="M784.84,51.32s-5.93,1.75-6.7,4A51.5,51.5,0,0,0,776.61,63c-.44,2.63-2,8.33-1.69,15.47a111.87,111.87,0,0,0,1,11.3"/>
      <path class="cls-1" d="M776.42,61.72l-2.17-.42s-2,7.86-2,10.51-.74,4.69-.07,5.29a2.39,2.39,0,0,0,1.93.75,5.53,5.53,0,0,1,.92-.08"/>
      <path class="cls-1" d="M775.13,72.48s0,4,1.1,4.76,2,.53,1.89,1.67a4.21,4.21,0,0,0,.36,3,19.66,19.66,0,0,0,3.14,2.29"/>
      <line class="cls-1" x1="543.15" y1="7.33" x2="545.22" y2="13.68"/>
      <line class="cls-1" x1="541.41" y1="7.61" x2="543.48" y2="13.97"/>
      <path class="cls-2" d="M526.54,18.59c2.2-.83,10.73,21.78,8.52,22.61Z"/>
      <polygon class="cls-2" points="525.22 20.04 523.15 20.08 531.17 40.72 532.7 39.74 525.22 20.04"/>
      <polygon class="cls-2" points="521.73 21.07 520.46 21.37 527.72 40.71 528.91 39.49 521.73 21.07"/>
      <polygon class="cls-2" points="518.82 22.35 517.42 22.87 524.48 41.18 525.68 39.72 518.82 22.35"/>
      <polygon class="cls-2" points="515.88 23.97 514.62 24.04 520.82 40.7 522 39.82 515.88 23.97"/>
      <polygon class="cls-2" points="513.3 25.49 511.92 25.44 517.49 40.47 518.65 40.05 513.3 25.49"/>
      <polygon class="cls-2" points="510.16 26.41 508.66 26.59 513.69 40.68 514.86 40.03 510.16 26.41"/>
      <polygon class="cls-2" points="506.56 27.32 505.51 27.86 510.12 40.67 511.19 39.68 506.56 27.32"/>
      <polygon class="cls-2" points="503.86 29.18 502.12 29.35 506.45 40.55 507.85 39.9 503.86 29.18"/>
      <polygon class="cls-2" points="500.59 30.45 498.86 30.73 502.66 40.3 503.71 39.99 500.59 30.45"/>
      <polygon class="cls-2" points="497.32 31.83 496.27 32.25 499.2 40.64 500.14 39.98 497.32 31.83"/>
      <polygon class="cls-2" points="494.28 33.22 493.13 33.41 495.64 40.51 496.81 39.98 494.28 33.22"/>
      <polygon class="cls-2" points="491.36 34.73 489.97 34.79 492.08 40.39 493.01 40.08 491.36 34.73"/>
      <polygon class="cls-2" points="488 35.97 486.73 35.95 488.23 40.39 489.59 39.49 488 35.97"/>
      <polygon class="cls-2" points="484.6 37.25 483.79 37.22 484.59 40.82 485.53 40.16 484.6 37.25"/>
    </g>
    <g>
      <path class="cls-1" d="M1117.92,98.84s-52.53,2.31-71.49,2-74.12-1.56-74.12-1.56l-.87.14s-1.28-22.47-8-28.57-11.13-7.46-13.88-7.73-9.26-1.53-15.72.66S921.28,68.85,918.58,72s-6.08,10.83-6.51,13.4a30.41,30.41,0,0,0-.45,3.09s-22.4-.78-26.33-1.78-4.79-1.2-5.7,0-.25,2.41-1.8,2.18-7.36-1.46-8.85-3.24-4.36-3.6-4.65-5.17-1.13-2.45-.6-2.61,2.71,1.31,2.42-.26S863.38,67,862.19,66.44s-.54.67-1.19-.56-2.2-5.94-2.2-5.94,1.77-1.5,2.31-2-.89-4.35,2.28-6.13,7.3-6.48,8.54-7.3,38.67-15.72,45.5-18.76,30.35-14.29,31-14.44,3-2.48,12.71-3.35,29.23-2.08,42.16-2,36.56.41,42.77.46,13.6.82,16,1.76,18.47,9.62,28.59,16,22.72,16.32,22.72,16.32,7.25-.09,12.41.43,16.33,1.44,22.55,1.14,12.27-.43,15.71-.31,14.45,1.19,15.13,1.39,2.34,2.15,2.34,2.15,28.09,6,30.12,6.92,4.47.5,4.95,1.55a10.56,10.56,0,0,1,.59,3,9.41,9.41,0,0,0-2.6.43c-.53.33-2.48,6.64-2,9.24s3.69,3.07,4.33,4.3,1,5.38-.11,8.1-3.17,2-5.43,2.4-3.81.55-4.73,2.08a17.65,17.65,0,0,1-9.08,8c-5.59,2-11.34,3.74-14.28,4s-9.17.72-9.68.53-1.13-2.11-1.07-3.84-1.58-14.2-6.9-19.9-9.93-6.9-9.93-6.9a34.61,34.61,0,0,0-13.22-2,32.29,32.29,0,0,0-14.12,4.34c-1.42,1-5.12,3.27-6.63,7.18s-2.55,7.43-3.49,10.75S1117.18,98.82,1117.92,98.84Z"/>
      <circle class="cls-1" cx="1144.54" cy="89.31" r="24.67"/>
      <circle class="cls-1" cx="1144.54" cy="89.31" r="16.7"/>
      <circle class="cls-1" cx="1144.54" cy="89.31" r="15.56"/>
      <circle class="cls-1" cx="1144.41" cy="89.3" r="13.09"/>
      <path class="cls-1" d="M1136.92,90.6a7.65,7.65,0,0,0,7.26,6.35,7.92,7.92,0,0,0,2-.2L1144.56,94l3.08-1.81,1.75,3a7.63,7.63,0,0,0,.1-11.57l-1.91,3-3-1.89,1.77-2.83a7.68,7.68,0,0,0-9.17,5.15l3.3.11-.12,3.57Z"/>
      <path class="cls-1" d="M1149.39,95.13l.68,1.16a9,9,0,0,0,.13-13.87l-.71,1.14a7.63,7.63,0,0,1-.1,11.57Z"/>
      <path class="cls-1" d="M1135.79,87l1.36.05a7.68,7.68,0,0,1,9.17-5.15l.73-1.17A9,9,0,0,0,1135.79,87Z"/>
      <path class="cls-1" d="M1135.57,90.55a9,9,0,0,0,11.33,7.39l-.7-1.19a7.92,7.92,0,0,1-2,.2,7.65,7.65,0,0,1-7.26-6.35Z"/>
      <circle class="cls-1" cx="941.12" cy="88.35" r="25.34"/>
      <path class="cls-1" d="M1099.36,42.47s-33.06-26.34-40.79-27.3-49.81-1.39-64.65-1.05-21.43,1.15-21.43,1.15-3.45-.12-2.49,2,10.57,13.48,12.72,16.14,5.82,6.07,7.52,7,5.8,1.93,13,2.18,95.89.77,95.89.77S1100.19,43.54,1099.36,42.47Z"/>
      <path class="cls-1" d="M1059.28,13.22c-8.06-1.09-51.91-1.42-67.39-1s-22.34,1.42-22.34,1.42S966,13.56,967,16s11,15.61,13.19,18.7,6,7,7.81,8.08,6,2.22,13.57,2.48c6.94.25,91.42.87,105,1,1.19,0,1.26-.44.21-1.25C1099,39.06,1066.37,14.17,1059.28,13.22Z"/>
      <path class="cls-1" d="M1113.4,40.55s2.89,1.14-.59,2.05l-3.48.91s.47,1.23-1.88-.58-21-15.23-24.4-17.41-14.33-9.65-14.33-9.65-2.2-1.28-2-2.31a18.06,18.06,0,0,1,1-2.73"/>
      <path class="cls-1" d="M895.38,40.32l58-24.6a1,1,0,0,1,1.35.55l10.62,25.1a1,1,0,0,1-.95,1.43l-68.67-.51A1,1,0,0,1,895.38,40.32Z"/>
      <polyline class="cls-1" points="1006.71 42.86 1006.85 46.42 1008.86 99.86"/>
      <polyline class="cls-1" points="1201.73 60.03 862.74 55.76 861.01 55.7"/>
      <path class="cls-1" d="M917.41,97.23l-34.23-4.41a4.69,4.69,0,0,1-2.95-1.26c-1.56-1.32-6.41-.91-6.41-.91s-2.55.71-2.77.25a22.08,22.08,0,0,1-.22-3.46l0-.69"/>
      <path class="cls-1" d="M882.94,86.37s.28,5.18-2.49,5.43"/>
      <path class="cls-1" d="M885.34,86.8s.26,5.83-2.51,6.12"/>
      <polyline class="cls-1" points="881.35 85.74 876.05 59.79 859.74 59.34"/>
      <circle class="cls-1" cx="914.88" cy="49.59" r="4.65"/>
      <circle class="cls-1" cx="914.99" cy="49.6" r="3.16"/>
      <path class="cls-1" d="M906.59,41.65s-28.1,1.09-30.89,1.8a13,13,0,0,0-5.5,2.68"/>
      <path class="cls-1" d="M915.3,42.53s-34.44,1.56-37.23,2.27a12.86,12.86,0,0,0-5.5,2.68s-3.32,3-3.84,4.47-2.39,5.89-2.41,6.7l0,.8"/>
      <path class="cls-1" d="M862.5,59.32s7.71,22.92,7.58,23.26a14.43,14.43,0,0,1-2.25,1.76"/>
      <line class="cls-1" x1="1011.86" y1="14.06" x2="1011.37" y2="42.85"/>
      <line class="cls-1" x1="1009.45" y1="13.97" x2="1008.96" y2="42.76"/>
      <path class="cls-1" d="M1006.59,46.42s-1.26-.1-1.63.57-1,.89-.87,1.76a14.57,14.57,0,0,0,1.49,3.32c.33.53,1.38,1.78,1.38,1.78"/>
      <circle class="cls-1" cx="1011.37" cy="50.35" r="2.33"/>
      <circle class="cls-2" cx="1011.42" cy="50.35" r="1.29"/>
      <path class="cls-1" d="M1107.59,45.7s8.05,6.49-1.09,50.79"/>
      <path class="cls-1" d="M1117.33,96S1059,98.51,977.38,97.84h-6.17"/>
      <path class="cls-1" d="M974.79,92.33c0,1.18,140,1.73,140,.55V91c0,1.12-140,.57-140-.55Z"/>
      <path class="cls-1" d="M1108.37,46.24s52.47-.92,94.07,8.29"/>
      <path class="cls-1" d="M1115.53,43.9s50-1.47,89.53,9.69"/>
      <path class="cls-1" d="M1120.13,40.61a8.85,8.85,0,0,1-6.25,3.49c-4.06.29-3.47.66-4.06.29l-.6-.36"/>
      <path class="cls-1" d="M1181.54,45.35s-29.74-2.94-35.86-3.07"/>
      <rect class="cls-1" x="1134.26" y="84.44" width="3.57" height="8.7" transform="translate(1007.6 1221.03) rotate(-88)"/>
      <polygon class="cls-1" points="1144.56 93.97 1146.2 96.75 1146.9 97.94 1148.98 101.47 1152.06 99.65 1150.07 96.29 1149.39 95.13 1147.64 92.16 1144.56 93.97"/>
      <polygon class="cls-1" points="1144.56 84.72 1147.58 86.61 1149.49 83.56 1150.2 82.42 1152.19 79.24 1149.16 77.34 1147.05 80.72 1146.32 81.89 1144.56 84.72"/>
      <circle class="cls-2" cx="1144.45" cy="89.44" r="1.14"/>
      <circle class="cls-2" cx="1141.66" cy="84.4" r="1.14"/>
      <circle class="cls-2" cx="1141.45" cy="93.83" r="1.14"/>
      <circle class="cls-2" cx="1149.95" cy="89.27" r="1.14"/>
      <path class="cls-2" d="M1134.51,80.78s1.38.72,1.23,1.26-1.21,1.55-1.41,2.15-.12,1.52-.49,1.63a1.85,1.85,0,0,1-1.4,0l-.54-.26A15.91,15.91,0,0,1,1134.51,80.78Z"/>
      <path class="cls-2" d="M1142.05,76.45s.6,1.43.15,1.76-1.92.42-2.47.75-1.06,1.1-1.41,1a1.84,1.84,0,0,1-1-.93l-.25-.55A16,16,0,0,1,1142.05,76.45Z"/>
      <path class="cls-2" d="M1156.67,85s-1.31.85-1.71.46-.75-1.82-1.17-2.3-1.27-.85-1.18-1.22a1.87,1.87,0,0,1,.73-1.2l.5-.34A16,16,0,0,1,1156.67,85Z"/>
      <path class="cls-2" d="M1156.71,93.65s-1.54-.18-1.6-.74.58-1.88.56-2.52-.44-1.46-.13-1.69a1.84,1.84,0,0,1,1.33-.46l.6.06A15.82,15.82,0,0,1,1156.71,93.65Z"/>
      <path class="cls-2" d="M1142.2,102.12s-.09-1.55.45-1.71,1.95.26,2.57.12,1.37-.68,1.65-.42a1.86,1.86,0,0,1,.68,1.23l0,.6A15.94,15.94,0,0,1,1142.2,102.12Z"/>
      <path class="cls-2" d="M1134.62,97.86s.93-1.25,1.44-1,1.34,1.44,1.91,1.73,1.49.35,1.54.73a1.84,1.84,0,0,1-.27,1.38l-.34.49A15.94,15.94,0,0,1,1134.62,97.86Z"/>
      <path class="cls-2" d="M1149.16,77.35s-.47,1.59-1,1.58-.72-.35-1.35-.41-1.51.26-1.7-.07a1.83,1.83,0,0,1-.3-1.37l.13-.59A8.08,8.08,0,0,1,1149.16,77.35Z"/>
      <path class="cls-2" d="M1152.17,99.61s-1.12-1.23-.82-1.71.67-.42,1-.94.56-1.42.95-1.42a1.87,1.87,0,0,1,1.32.46l.44.41A8.11,8.11,0,0,1,1152.17,99.61Z"/>
      <path class="cls-2" d="M1131.55,90.58s1.63-.32,1.89.18,0,.8.26,1.39.92,1.21.72,1.54a1.91,1.91,0,0,1-1.09.9l-.58.16A8.13,8.13,0,0,1,1131.55,90.58Z"/>
      <circle class="cls-1" cx="941.21" cy="88.22" r="17.05"/>
      <circle class="cls-1" cx="941.21" cy="88.22" r="15.89"/>
      <circle class="cls-1" cx="941.07" cy="88.21" r="13.36"/>
      <path class="cls-1" d="M933.43,89.54a7.77,7.77,0,0,0,9.47,6.27L941.23,93l3.15-1.85,1.78,3a7.78,7.78,0,0,0,.1-11.81l-2,3.12-3.09-1.94L943,80.65a8.1,8.1,0,0,0-1.64-.23,7.79,7.79,0,0,0-7.72,5.48L937,86l-.12,3.64Z"/>
      <path class="cls-1" d="M946.16,94.16l.7,1.19A9.16,9.16,0,0,0,947,81.19l-.73,1.16a7.78,7.78,0,0,1-.1,11.81Z"/>
      <path class="cls-1" d="M932.27,85.85l1.4.05a7.79,7.79,0,0,1,7.72-5.48,8.1,8.1,0,0,1,1.64.23l.75-1.2a9.55,9.55,0,0,0-2.34-.39A9.17,9.17,0,0,0,932.27,85.85Z"/>
      <path class="cls-1" d="M932.05,89.49a9.16,9.16,0,0,0,8.75,7.88,9.4,9.4,0,0,0,2.82-.34l-.72-1.22a7.77,7.77,0,0,1-9.47-6.27Z"/>
      <rect class="cls-1" x="930.71" y="83.24" width="3.64" height="8.88" transform="translate(812.31 1016.58) rotate(-88)"/>
      <polygon class="cls-1" points="941.23 92.98 942.9 95.81 943.62 97.03 945.74 100.63 948.88 98.78 946.86 95.35 946.16 94.16 944.38 91.13 941.23 92.98"/>
      <polygon class="cls-1" points="941.22 83.53 944.31 85.47 946.26 82.35 946.99 81.19 949.02 77.94 945.93 76 943.77 79.45 943.03 80.65 941.22 83.53"/>
      <circle class="cls-2" cx="941.11" cy="88.36" r="1.17"/>
      <circle class="cls-2" cx="938.27" cy="83.21" r="1.17"/>
      <circle class="cls-2" cx="938.06" cy="92.83" r="1.17"/>
      <circle class="cls-2" cx="946.73" cy="88.18" r="1.17"/>
      <path class="cls-2" d="M931,79.51s1.4.73,1.26,1.29S931,82.38,930.78,83s-.11,1.56-.49,1.67a1.88,1.88,0,0,1-1.43,0l-.56-.27A16.19,16.19,0,0,1,931,79.51Z"/>
      <path class="cls-2" d="M938.66,75.09s.62,1.46.16,1.8-2,.43-2.52.77-1.08,1.12-1.44,1a1.91,1.91,0,0,1-1.07-1l-.26-.55A16.39,16.39,0,0,1,938.66,75.09Z"/>
      <path class="cls-2" d="M953.59,83.77s-1.33.87-1.75.47-.76-1.86-1.19-2.35-1.29-.86-1.2-1.25a1.88,1.88,0,0,1,.75-1.22l.5-.35A16.31,16.31,0,0,1,953.59,83.77Z"/>
      <path class="cls-2" d="M953.64,92.65s-1.58-.19-1.64-.76.59-1.91.57-2.56-.45-1.5-.13-1.74a1.92,1.92,0,0,1,1.35-.46l.62.06A16.31,16.31,0,0,1,953.64,92.65Z"/>
      <path class="cls-2" d="M938.82,101.3s-.09-1.58.46-1.74,2,.25,2.63.12,1.39-.7,1.68-.43a1.87,1.87,0,0,1,.69,1.26l.05.61A16.31,16.31,0,0,1,938.82,101.3Z"/>
      <path class="cls-2" d="M931.09,97s.94-1.28,1.47-1,1.36,1.46,1.94,1.76,1.52.36,1.57.75a1.91,1.91,0,0,1-.27,1.41l-.35.5A16.32,16.32,0,0,1,931.09,97Z"/>
      <path class="cls-2" d="M945.93,76s-.49,1.62-1.06,1.62-.73-.37-1.38-.42-1.53.26-1.73-.07a1.89,1.89,0,0,1-.3-1.41l.12-.6A8.33,8.33,0,0,1,945.93,76Z"/>
      <path class="cls-2" d="M949,98.74s-1.14-1.26-.84-1.75.69-.43,1.07-1,.57-1.45,1-1.45a1.89,1.89,0,0,1,1.35.47l.45.42A8.25,8.25,0,0,1,949,98.74Z"/>
      <path class="cls-2" d="M928,89.51s1.66-.32,1.92.19,0,.82.27,1.42.94,1.24.73,1.57a1.89,1.89,0,0,1-1.1.92l-.59.16A8.29,8.29,0,0,1,928,89.51Z"/>
      <line class="cls-1" x1="1058.57" y1="15.17" x2="1074.36" y2="42.94"/>
      <line class="cls-1" x1="1056.03" y1="15.31" x2="1071.44" y2="42.94"/>
      <path class="cls-1" d="M1209.17,51.32s-5.93,1.75-6.7,4a50.26,50.26,0,0,0-1.53,7.65c-.44,2.63-2,8.33-1.69,15.47a111.87,111.87,0,0,0,1,11.3"/>
      <path class="cls-1" d="M1200.75,61.72l-2.17-.42s-2,7.86-2,10.51-.73,4.69-.07,5.29a2.39,2.39,0,0,0,1.93.75,5.67,5.67,0,0,1,.93-.08"/>
      <path class="cls-1" d="M1199.46,72.48s0,4,1.09,4.76,2.06.53,1.9,1.67a4.21,4.21,0,0,0,.36,3,19.66,19.66,0,0,0,3.14,2.29"/>
      <line class="cls-1" x1="967.47" y1="7.33" x2="969.55" y2="13.68"/>
      <line class="cls-1" x1="965.74" y1="7.61" x2="967.81" y2="13.97"/>
      <path class="cls-2" d="M950.86,18.59c2.21-.83,10.73,21.78,8.53,22.61Z"/>
      <polygon class="cls-2" points="949.55 20.04 947.48 20.08 955.5 40.72 957.02 39.74 949.55 20.04"/>
      <polygon class="cls-2" points="946.06 21.07 944.79 21.37 952.04 40.71 953.24 39.49 946.06 21.07"/>
      <polygon class="cls-2" points="943.14 22.35 941.74 22.87 948.81 41.18 950.01 39.72 943.14 22.35"/>
      <polygon class="cls-2" points="940.21 23.97 938.94 24.04 945.14 40.7 946.33 39.82 940.21 23.97"/>
      <polygon class="cls-2" points="937.63 25.49 936.25 25.44 941.82 40.47 942.98 40.05 937.63 25.49"/>
      <polygon class="cls-2" points="934.49 26.41 932.99 26.59 938.02 40.68 939.19 40.03 934.49 26.41"/>
      <polygon class="cls-2" points="930.89 27.32 929.84 27.86 934.45 40.67 935.52 39.68 930.89 27.32"/>
      <polygon class="cls-2" points="928.18 29.18 926.45 29.35 930.77 40.55 932.18 39.9 928.18 29.18"/>
      <polygon class="cls-2" points="924.92 30.45 923.18 30.73 926.99 40.3 928.03 39.99 924.92 30.45"/>
      <polygon class="cls-2" points="921.65 31.83 920.6 32.25 923.53 40.64 924.47 39.98 921.65 31.83"/>
      <polygon class="cls-2" points="918.61 33.22 917.46 33.41 919.97 40.51 921.13 39.98 918.61 33.22"/>
      <polygon class="cls-2" points="915.68 34.73 914.3 34.79 916.41 40.39 917.34 40.08 915.68 34.73"/>
      <polygon class="cls-2" points="912.33 35.97 911.06 35.95 912.55 40.39 913.92 39.49 912.33 35.97"/>
      <polygon class="cls-2" points="908.92 37.25 908.12 37.22 908.91 40.82 909.86 40.16 908.92 37.25"/>
    </g>
    <g>
      <path class="cls-1" d="M1542.24,98.84s-52.52,2.31-71.48,2-74.12-1.56-74.12-1.56l-.87.14s-1.29-22.47-8-28.57-11.13-7.46-13.88-7.73-9.26-1.53-15.72.66-12.6,5.08-15.3,8.26-6.07,10.83-6.5,13.4-.46,3.09-.46,3.09-22.39-.78-26.33-1.78-4.78-1.2-5.69,0-.25,2.41-1.8,2.18-7.37-1.46-8.86-3.24-4.36-3.6-4.65-5.17-1.12-2.45-.59-2.61,2.71,1.31,2.42-.26-2.73-10.61-3.92-11.17-.54.67-1.19-.56-2.21-5.94-2.21-5.94,1.78-1.5,2.31-2-.88-4.35,2.29-6.13,7.3-6.48,8.53-7.3,38.68-15.72,45.51-18.76,30.35-14.29,31-14.44,3-2.48,12.71-3.35,29.23-2.08,42.16-2,36.56.41,42.77.46,13.6.82,16,1.76,18.46,9.62,28.59,16,22.72,16.32,22.72,16.32,7.25-.09,12.4.43,16.34,1.44,22.56,1.14,12.26-.43,15.71-.31,14.45,1.19,15.13,1.39,2.34,2.15,2.34,2.15,28.08,6,30.12,6.92,4.47.5,5,1.55a10.56,10.56,0,0,1,.59,3,9.53,9.53,0,0,0-2.61.43c-.53.33-2.47,6.64-2.05,9.24s3.69,3.07,4.34,4.3,1,5.38-.11,8.1-3.17,2-5.43,2.4-3.82.55-4.73,2.08a17.65,17.65,0,0,1-9.08,8c-5.59,2-11.34,3.74-14.28,4s-9.17.72-9.68.53-1.14-2.11-1.08-3.84-1.57-14.2-6.89-19.9-9.94-6.9-9.94-6.9a34.53,34.53,0,0,0-13.21-2,32.29,32.29,0,0,0-14.12,4.34c-1.42,1-5.12,3.27-6.64,7.18s-2.54,7.43-3.48,10.75S1541.51,98.82,1542.24,98.84Z"/>
      <circle class="cls-1" cx="1568.87" cy="89.31" r="24.67"/>
      <circle class="cls-1" cx="1568.87" cy="89.31" r="16.7"/>
      <circle class="cls-1" cx="1568.87" cy="89.31" r="15.56"/>
      <circle class="cls-1" cx="1568.73" cy="89.3" r="13.09"/>
      <path class="cls-1" d="M1561.24,90.6a7.66,7.66,0,0,0,7.27,6.35,7.84,7.84,0,0,0,2-.2L1568.89,94l3.08-1.81,1.75,3a7.63,7.63,0,0,0,.1-11.57l-1.91,3-3-1.89,1.77-2.83a7.71,7.71,0,0,0-1.61-.22,7.63,7.63,0,0,0-7.56,5.37l3.3.11-.13,3.57Z"/>
      <path class="cls-1" d="M1573.72,95.13l.68,1.16a9,9,0,0,0,.13-13.87l-.71,1.14a7.63,7.63,0,0,1-.1,11.57Z"/>
      <path class="cls-1" d="M1560.11,87l1.37.05a7.63,7.63,0,0,1,7.56-5.37,7.71,7.71,0,0,1,1.61.22l.73-1.17a9.14,9.14,0,0,0-2.29-.38A9,9,0,0,0,1560.11,87Z"/>
      <path class="cls-1" d="M1559.89,90.55a9,9,0,0,0,8.57,7.72,9.07,9.07,0,0,0,2.77-.33l-.71-1.19a7.84,7.84,0,0,1-2,.2,7.66,7.66,0,0,1-7.27-6.35Z"/>
      <circle class="cls-1" cx="1365.45" cy="88.35" r="25.34"/>
      <path class="cls-1" d="M1523.69,42.47s-33.06-26.34-40.79-27.3-49.81-1.39-64.66-1.05-21.43,1.15-21.43,1.15-3.44-.12-2.48,2,10.57,13.48,12.72,16.14,5.82,6.07,7.52,7,5.79,1.93,13,2.18,95.89.77,95.89.77S1524.51,43.54,1523.69,42.47Z"/>
      <path class="cls-1" d="M1483.6,13.22c-8-1.09-51.9-1.42-67.38-1s-22.35,1.42-22.35,1.42-3.59-.12-2.59,2.32,11,15.61,13.19,18.7,6,7,7.8,8.08,6,2.22,13.58,2.48c6.93.25,91.42.87,105,1,1.19,0,1.25-.44.21-1.25C1523.37,39.06,1490.7,14.17,1483.6,13.22Z"/>
      <path class="cls-1" d="M1537.73,40.55s2.89,1.14-.59,2.05l-3.48.91s.47,1.23-1.88-.58-21-15.23-24.4-17.41-14.33-9.65-14.33-9.65-2.2-1.28-2-2.31a18.06,18.06,0,0,1,1-2.73"/>
      <path class="cls-1" d="M1319.71,40.32l58-24.6a1,1,0,0,1,1.35.55l10.62,25.1a1,1,0,0,1-1,1.43l-68.67-.51A1,1,0,0,1,1319.71,40.32Z"/>
      <polyline class="cls-1" points="1431.04 42.86 1431.17 46.42 1433.18 99.86"/>
      <polyline class="cls-1" points="1626.06 60.03 1287.06 55.76 1285.34 55.7"/>
      <path class="cls-1" d="M1341.73,97.23l-34.23-4.41a4.67,4.67,0,0,1-2.94-1.26c-1.57-1.32-6.41-.91-6.41-.91s-2.56.71-2.77.25a22.08,22.08,0,0,1-.22-3.46l0-.69"/>
      <path class="cls-1" d="M1307.27,86.37s.28,5.18-2.49,5.43"/>
      <path class="cls-1" d="M1309.67,86.8s.25,5.83-2.52,6.12"/>
      <polyline class="cls-1" points="1305.68 85.74 1300.38 59.79 1284.06 59.34"/>
      <circle class="cls-1" cx="1339.2" cy="49.59" r="4.65"/>
      <circle class="cls-1" cx="1339.32" cy="49.6" r="3.16"/>
      <path class="cls-1" d="M1330.91,41.65s-28.1,1.09-30.88,1.8a13,13,0,0,0-5.5,2.68"/>
      <path class="cls-1" d="M1339.62,42.53s-34.44,1.56-37.22,2.27a12.79,12.79,0,0,0-5.5,2.68s-3.33,3-3.84,4.47-2.39,5.89-2.42,6.7l0,.8"/>
      <path class="cls-1" d="M1286.82,59.32s7.71,22.92,7.59,23.26a14.43,14.43,0,0,1-2.25,1.76"/>
      <line class="cls-1" x1="1436.19" y1="14.06" x2="1435.7" y2="42.85"/>
      <line class="cls-1" x1="1433.77" y1="13.97" x2="1433.29" y2="42.76"/>
      <path class="cls-1" d="M1430.91,46.42s-1.26-.1-1.63.57-1,.89-.86,1.76a14.57,14.57,0,0,0,1.49,3.32c.33.53,1.38,1.78,1.38,1.78"/>
      <circle class="cls-1" cx="1435.69" cy="50.35" r="2.33"/>
      <circle class="cls-2" cx="1435.75" cy="50.35" r="1.29"/>
      <path class="cls-1" d="M1531.91,45.7s8.06,6.49-1.08,50.79"/>
      <path class="cls-1" d="M1541.66,96s-58.3,2.56-140,1.89h-6.18"/>
      <path class="cls-1" d="M1399.12,92.33c0,1.18,140,1.73,140,.55V91c0,1.12-140,.57-140-.55Z"/>
      <path class="cls-1" d="M1532.7,46.24s52.47-.92,94.07,8.29"/>
      <path class="cls-1" d="M1539.85,43.9s50-1.47,89.54,9.69"/>
      <path class="cls-1" d="M1544.45,40.61a8.82,8.82,0,0,1-6.24,3.49c-4.07.29-3.48.66-4.07.29l-.59-.36"/>
      <path class="cls-1" d="M1605.87,45.35s-29.74-2.94-35.86-3.07"/>
      <rect class="cls-1" x="1558.59" y="84.44" width="3.57" height="8.7" transform="translate(1417.09 1645.1) rotate(-88)"/>
      <polygon class="cls-1" points="1568.89 93.97 1570.52 96.75 1571.23 97.94 1573.3 101.47 1576.38 99.65 1574.4 96.29 1573.72 95.13 1571.97 92.16 1568.89 93.97"/>
      <polygon class="cls-1" points="1568.88 84.72 1571.91 86.61 1573.82 83.56 1574.53 82.42 1576.52 79.24 1573.49 77.34 1571.38 80.72 1570.65 81.89 1568.88 84.72"/>
      <circle class="cls-2" cx="1568.77" cy="89.44" r="1.14"/>
      <circle class="cls-2" cx="1565.99" cy="84.4" r="1.14"/>
      <circle class="cls-2" cx="1565.78" cy="93.83" r="1.14"/>
      <circle class="cls-2" cx="1574.28" cy="89.27" r="1.14"/>
      <path class="cls-2" d="M1558.83,80.78s1.38.72,1.24,1.26-1.21,1.55-1.42,2.15-.11,1.52-.48,1.63a1.85,1.85,0,0,1-1.4,0l-.54-.26A15.78,15.78,0,0,1,1558.83,80.78Z"/>
      <path class="cls-2" d="M1566.38,76.45s.6,1.43.14,1.76-1.92.42-2.46.75-1.06,1.1-1.41,1a1.82,1.82,0,0,1-1.05-.93l-.25-.55A16,16,0,0,1,1566.38,76.45Z"/>
      <path class="cls-2" d="M1581,85s-1.31.85-1.71.46-.75-1.82-1.17-2.3-1.27-.85-1.18-1.22a1.83,1.83,0,0,1,.73-1.2l.5-.34A16,16,0,0,1,1581,85Z"/>
      <path class="cls-2" d="M1581,93.65s-1.54-.18-1.61-.74.59-1.88.56-2.52-.43-1.46-.12-1.69a1.83,1.83,0,0,1,1.33-.46l.59.06A16,16,0,0,1,1581,93.65Z"/>
      <path class="cls-2" d="M1566.53,102.12s-.09-1.55.45-1.71,2,.26,2.57.12,1.37-.68,1.65-.42a1.86,1.86,0,0,1,.68,1.23l0,.6A15.94,15.94,0,0,1,1566.53,102.12Z"/>
      <path class="cls-2" d="M1559,97.86s.92-1.25,1.44-1,1.34,1.44,1.91,1.73,1.48.35,1.53.73a1.82,1.82,0,0,1-.26,1.38l-.34.49A15.78,15.78,0,0,1,1559,97.86Z"/>
      <path class="cls-2" d="M1573.49,77.35s-.47,1.59-1,1.58-.71-.35-1.35-.41-1.5.26-1.7-.07a1.88,1.88,0,0,1-.29-1.37l.12-.59A8.11,8.11,0,0,1,1573.49,77.35Z"/>
      <path class="cls-2" d="M1576.5,99.61s-1.12-1.23-.83-1.71.68-.42,1-.94.56-1.42.94-1.42A1.88,1.88,0,0,1,1579,96l.44.41A8.11,8.11,0,0,1,1576.5,99.61Z"/>
      <path class="cls-2" d="M1555.88,90.58s1.63-.32,1.88.18,0,.8.26,1.39.93,1.21.72,1.54a1.85,1.85,0,0,1-1.08.9l-.58.16A8.13,8.13,0,0,1,1555.88,90.58Z"/>
      <circle class="cls-1" cx="1365.54" cy="88.22" r="17.05"/>
      <circle class="cls-1" cx="1365.54" cy="88.22" r="15.89"/>
      <circle class="cls-1" cx="1365.4" cy="88.21" r="13.36"/>
      <path class="cls-1" d="M1357.75,89.54a7.78,7.78,0,0,0,9.48,6.27L1365.56,93l3.14-1.85,1.79,3a7.8,7.8,0,0,0,.1-11.81l-1.95,3.12-3.09-1.94,1.8-2.88a7.91,7.91,0,0,0-1.63-.23A7.78,7.78,0,0,0,1358,85.9l3.36.12-.13,3.64Z"/>
      <path class="cls-1" d="M1370.49,94.16l.7,1.19a9.15,9.15,0,0,0,.12-14.16l-.72,1.16a7.8,7.8,0,0,1-.1,11.81Z"/>
      <path class="cls-1" d="M1356.6,85.85l1.4.05a7.78,7.78,0,0,1,7.72-5.48,7.91,7.91,0,0,1,1.63.23l.75-1.2a9.47,9.47,0,0,0-2.34-.39A9.16,9.16,0,0,0,1356.6,85.85Z"/>
      <path class="cls-1" d="M1356.38,89.49a9.16,9.16,0,0,0,8.74,7.88,9.37,9.37,0,0,0,2.82-.34l-.71-1.22a7.78,7.78,0,0,1-9.48-6.27Z"/>
      <rect class="cls-1" x="1355.04" y="83.24" width="3.64" height="8.88" transform="translate(1221.8 1440.65) rotate(-88)"/>
      <polygon class="cls-1" points="1365.56 92.98 1367.23 95.81 1367.94 97.03 1370.07 100.63 1373.21 98.78 1371.19 95.35 1370.49 94.16 1368.7 91.13 1365.56 92.98"/>
      <polygon class="cls-1" points="1365.55 83.53 1368.64 85.47 1370.59 82.35 1371.32 81.19 1373.34 77.94 1370.26 76 1368.1 79.45 1367.35 80.65 1365.55 83.53"/>
      <circle class="cls-2" cx="1365.44" cy="88.36" r="1.17"/>
      <circle class="cls-2" cx="1362.6" cy="83.21" r="1.17"/>
      <circle class="cls-2" cx="1362.39" cy="92.83" r="1.17"/>
      <circle class="cls-2" cx="1371.06" cy="88.18" r="1.17"/>
      <path class="cls-2" d="M1355.29,79.51s1.41.73,1.27,1.29-1.24,1.58-1.45,2.19-.12,1.56-.49,1.67a1.91,1.91,0,0,1-1.44,0l-.55-.27A16.31,16.31,0,0,1,1355.29,79.51Z"/>
      <path class="cls-2" d="M1363,75.09s.62,1.46.15,1.8-2,.43-2.51.77-1.08,1.12-1.44,1a1.88,1.88,0,0,1-1.07-1l-.26-.55A16.39,16.39,0,0,1,1363,75.09Z"/>
      <path class="cls-2" d="M1377.92,83.77s-1.34.87-1.75.47-.76-1.86-1.19-2.35-1.3-.86-1.21-1.25a1.92,1.92,0,0,1,.75-1.22l.51-.35A16.31,16.31,0,0,1,1377.92,83.77Z"/>
      <path class="cls-2" d="M1378,92.65s-1.57-.19-1.64-.76.6-1.91.58-2.56-.45-1.5-.13-1.74a1.92,1.92,0,0,1,1.35-.46l.61.06A16,16,0,0,1,1378,92.65Z"/>
      <path class="cls-2" d="M1363.15,101.3s-.09-1.58.46-1.74,2,.25,2.63.12,1.39-.7,1.68-.43a1.87,1.87,0,0,1,.69,1.26l.05.61A16.31,16.31,0,0,1,1363.15,101.3Z"/>
      <path class="cls-2" d="M1355.41,97s.95-1.28,1.47-1,1.37,1.46,1.95,1.76,1.52.36,1.57.75a1.91,1.91,0,0,1-.27,1.41l-.35.5A16.3,16.3,0,0,1,1355.41,97Z"/>
      <path class="cls-2" d="M1370.25,76s-.48,1.62-1,1.62-.73-.37-1.38-.42-1.54.26-1.74-.07a1.94,1.94,0,0,1-.3-1.41l.13-.6A8.29,8.29,0,0,1,1370.25,76Z"/>
      <path class="cls-2" d="M1373.32,98.74s-1.14-1.26-.83-1.75.68-.43,1.07-1,.56-1.45,1-1.45a1.91,1.91,0,0,1,1.35.47l.45.42A8.23,8.23,0,0,1,1373.32,98.74Z"/>
      <path class="cls-2" d="M1352.28,89.51s1.66-.32,1.92.19,0,.82.27,1.42.94,1.24.73,1.57a1.89,1.89,0,0,1-1.1.92l-.6.16A8.23,8.23,0,0,1,1352.28,89.51Z"/>
      <line class="cls-1" x1="1482.9" y1="15.17" x2="1498.69" y2="42.94"/>
      <line class="cls-1" x1="1480.36" y1="15.31" x2="1495.77" y2="42.94"/>
      <path class="cls-1" d="M1633.49,51.32s-5.92,1.75-6.69,4a50.26,50.26,0,0,0-1.53,7.65c-.44,2.63-2,8.33-1.7,15.47a113.29,113.29,0,0,0,1,11.3"/>
      <path class="cls-1" d="M1625.08,61.72l-2.17-.42s-2,7.86-2,10.51-.74,4.69-.07,5.29a2.39,2.39,0,0,0,1.93.75,5.59,5.59,0,0,1,.92-.08"/>
      <path class="cls-1" d="M1623.78,72.48s0,4,1.1,4.76,2,.53,1.9,1.67a4.16,4.16,0,0,0,.35,3,19.66,19.66,0,0,0,3.14,2.29"/>
      <line class="cls-1" x1="1391.8" y1="7.33" x2="1393.87" y2="13.68"/>
      <line class="cls-1" x1="1390.07" y1="7.61" x2="1392.14" y2="13.97"/>
      <path class="cls-2" d="M1375.19,18.59c2.21-.83,10.73,21.78,8.53,22.61Z"/>
      <polygon class="cls-2" points="1373.88 20.04 1371.8 20.08 1379.82 40.72 1381.35 39.74 1373.88 20.04"/>
      <polygon class="cls-2" points="1370.39 21.07 1369.11 21.37 1376.37 40.71 1377.57 39.49 1370.39 21.07"/>
      <polygon class="cls-2" points="1367.47 22.35 1366.07 22.87 1373.14 41.18 1374.34 39.72 1367.47 22.35"/>
      <polygon class="cls-2" points="1364.54 23.97 1363.27 24.04 1369.47 40.7 1370.65 39.82 1364.54 23.97"/>
      <polygon class="cls-2" points="1361.95 25.49 1360.58 25.44 1366.15 40.47 1367.31 40.05 1361.95 25.49"/>
      <polygon class="cls-2" points="1358.82 26.41 1357.32 26.59 1362.34 40.68 1363.52 40.03 1358.82 26.41"/>
      <polygon class="cls-2" points="1355.22 27.32 1354.17 27.86 1358.78 40.67 1359.85 39.68 1355.22 27.32"/>
      <polygon class="cls-2" points="1352.51 29.18 1350.78 29.35 1355.1 40.55 1356.51 39.9 1352.51 29.18"/>
      <polygon class="cls-2" points="1349.25 30.45 1347.51 30.73 1351.32 40.3 1352.36 39.99 1349.25 30.45"/>
      <polygon class="cls-2" points="1345.98 31.83 1344.93 32.25 1347.86 40.64 1348.8 39.98 1345.98 31.83"/>
      <polygon class="cls-2" points="1342.94 33.22 1341.78 33.41 1344.29 40.51 1345.46 39.98 1342.94 33.22"/>
      <polygon class="cls-2" points="1340.01 34.73 1338.63 34.79 1340.73 40.39 1341.66 40.08 1340.01 34.73"/>
      <polygon class="cls-2" points="1336.66 35.97 1335.39 35.95 1336.88 40.39 1338.25 39.49 1336.66 35.97"/>
      <polygon class="cls-2" points="1333.25 37.25 1332.45 37.22 1333.24 40.82 1334.19 40.16 1333.25 37.25"/>
    </g>
  </g>
</svg>
